<svg width="1453" height="539" viewBox="0 0 1453 539" fill="none" xmlns="http://www.w3.org/2000/svg">
<path d="M-0.000311628 -3.67165e-05H120.89L174.79 385.77H176.33L230.23 -3.67165e-05H351.12V539H271.04V130.9H269.5L207.9 539H137.06L75.4597 130.9H73.9197V539H-0.000311628V-3.67165e-05ZM414.326 -3.67165e-05H645.326V77H499.026V219.45H615.296V296.45H499.026V462H645.326V539H414.326V-3.67165e-05ZM1187.33 -3.67165e-05H1293.59L1375.98 322.63H1377.52V-3.67165e-05H1452.98V539H1365.97L1264.33 145.53H1262.79V539H1187.33V-3.67165e-05Z" fill="#2B2929"/>
</svg>
