<svg width="930" height="202" viewBox="0 0 930 202" fill="none" xmlns="http://www.w3.org/2000/svg">
<path d="M45.3605 201.601C30.6138 201.601 19.3205 197.401 11.4805 189.001C3.82714 180.601 0.000469267 168.747 0.000469267 153.441V48.1608C0.000469267 32.8541 3.82714 21.0008 11.4805 12.6008C19.3205 4.20077 30.6138 0.000770569 45.3605 0.000770569C60.1071 0.000770569 71.3071 4.20077 78.9605 12.6008C86.8005 21.0008 90.7205 32.8541 90.7205 48.1608V68.8808H61.6005V46.2008C61.6005 34.0674 56.4671 28.0008 46.2005 28.0008C35.9338 28.0008 30.8005 34.0674 30.8005 46.2008V155.681C30.8005 167.627 35.9338 173.601 46.2005 173.601C56.4671 173.601 61.6005 167.627 61.6005 155.681V125.721H90.7205V153.441C90.7205 168.747 86.8005 180.601 78.9605 189.001C71.3071 197.401 60.1071 201.601 45.3605 201.601ZM137.415 201.601C122.295 201.601 110.722 197.307 102.695 188.721C94.6682 180.134 90.6548 168.001 90.6548 152.321V49.2808C90.6548 33.6008 94.6682 21.4674 102.695 12.8808C110.722 4.2941 122.295 0.000770569 137.415 0.000770569C152.535 0.000770569 164.108 4.2941 172.135 12.8808C180.162 21.4674 184.175 33.6008 184.175 49.2808V152.321C184.175 168.001 180.162 180.134 172.135 188.721C164.108 197.307 152.535 201.601 137.415 201.601ZM137.415 173.601C148.055 173.601 153.375 167.161 153.375 154.281V47.3208C153.375 34.4408 148.055 28.0008 137.415 28.0008C126.775 28.0008 121.455 34.4408 121.455 47.3208V154.281C121.455 167.161 126.775 173.601 137.415 173.601ZM188.204 2.80077H219.004V170.801H269.684V198.801H188.204V2.80077ZM267.654 2.80077H298.454V170.801H349.134V198.801H267.654V2.80077ZM347.104 2.80077H431.104V30.8008H377.904V82.6008H420.184V110.601H377.904V170.801H431.104V198.801H347.104V2.80077ZM475.423 201.601C460.676 201.601 449.383 197.401 441.543 189.001C433.89 180.601 430.063 168.747 430.063 153.441V48.1608C430.063 32.8541 433.89 21.0008 441.543 12.6008C449.383 4.20077 460.676 0.000770569 475.423 0.000770569C490.17 0.000770569 501.37 4.20077 509.023 12.6008C516.863 21.0008 520.783 32.8541 520.783 48.1608V68.8808H491.663V46.2008C491.663 34.0674 486.53 28.0008 476.263 28.0008C465.996 28.0008 460.863 34.0674 460.863 46.2008V155.681C460.863 167.627 465.996 173.601 476.263 173.601C486.53 173.601 491.663 167.627 491.663 155.681V125.721H520.783V153.441C520.783 168.747 516.863 180.601 509.023 189.001C501.37 197.401 490.17 201.601 475.423 201.601ZM546.49 30.8008H514.29V2.80077H609.49V30.8008H577.29V198.801H546.49V30.8008ZM607.603 2.80077H638.403V198.801H607.603V2.80077ZM689.19 201.601C674.07 201.601 662.496 197.307 654.47 188.721C646.443 180.134 642.43 168.001 642.43 152.321V49.2808C642.43 33.6008 646.443 21.4674 654.47 12.8808C662.496 4.2941 674.07 0.000770569 689.19 0.000770569C704.31 0.000770569 715.883 4.2941 723.91 12.8808C731.936 21.4674 735.95 33.6008 735.95 49.2808V152.321C735.95 168.001 731.936 180.134 723.91 188.721C715.883 197.307 704.31 201.601 689.19 201.601ZM689.19 173.601C699.83 173.601 705.15 167.161 705.15 154.281V47.3208C705.15 34.4408 699.83 28.0008 689.19 28.0008C678.55 28.0008 673.23 34.4408 673.23 47.3208V154.281C673.23 167.161 678.55 173.601 689.19 173.601ZM739.979 2.80077H778.619L808.579 120.121H809.139V2.80077H836.579V198.801H804.939L767.979 55.7208H767.419V198.801H739.979V2.80077ZM882.711 201.601C867.778 201.601 856.485 197.401 848.831 189.001C841.178 180.414 837.351 168.187 837.351 152.321V141.121H866.471V154.561C866.471 167.254 871.791 173.601 882.431 173.601C887.658 173.601 891.578 172.107 894.191 169.121C896.991 165.947 898.391 160.907 898.391 154.001C898.391 145.787 896.525 138.601 892.791 132.441C889.058 126.094 882.151 118.534 872.071 109.761C859.378 98.5608 850.511 88.4808 845.471 79.5208C840.431 70.3741 837.911 60.1074 837.911 48.7208C837.911 33.2274 841.831 21.2808 849.671 12.8808C857.511 4.2941 868.898 0.000770569 883.831 0.000770569C898.578 0.000770569 909.685 4.2941 917.151 12.8808C924.805 21.2808 928.631 33.4141 928.631 49.2808V57.4008H899.511V47.3208C899.511 40.6008 898.205 35.7474 895.591 32.7608C892.978 29.5874 889.151 28.0008 884.111 28.0008C873.845 28.0008 868.711 34.2541 868.711 46.7608C868.711 53.8541 870.578 60.4808 874.311 66.6408C878.231 72.8008 885.231 80.2674 895.311 89.0408C908.191 100.241 917.058 110.414 921.911 119.561C926.765 128.707 929.191 139.441 929.191 151.761C929.191 167.814 925.178 180.134 917.151 188.721C909.311 197.307 897.831 201.601 882.711 201.601Z" fill="#2B2929"/>
</svg>
