<svg width="54" height="85" viewBox="0 0 54 85" fill="none" xmlns="http://www.w3.org/2000/svg">
<path d="M0 2C0 0.89543 0.895431 0 2 0H52C53.1046 0 54 0.895431 54 2V83C54 84.1046 53.1046 85 52 85H2C0.895429 85 0 84.1046 0 83V2Z" fill="#002972"/>
<circle cx="38" cy="75" r="6" fill="#E93434"/>
<path d="M50 75C50 78.3137 47.3137 81 44 81C40.6863 81 38 78.3137 38 75C38 71.6863 40.6863 69 44 69C47.3137 69 50 71.6863 50 75Z" fill="#FFB800"/>
<path fill-rule="evenodd" clip-rule="evenodd" d="M41 80.1973C42.7934 79.1599 44 77.2209 44 75C44 72.7792 42.7934 70.8402 41 69.8027C39.2066 70.8402 38 72.7792 38 75C38 77.2209 39.2066 79.1599 41 80.1973Z" fill="#FF9D42"/>
<path d="M51 20V68.5" stroke="white" stroke-width="0.5"/>
<path d="M6 3H5C3.89543 3 3 3.89543 3 5V80C3 81.1046 3.89543 82 5 82H28.5" stroke="white" stroke-width="0.5"/>
<path d="M21 3H49.9999C50.5522 3 50.9999 3.44772 50.9999 4V5" stroke="white" stroke-width="0.5"/>
<path d="M28 6.5L29.4293 5.07071C29.4683 5.03166 29.5317 5.03166 29.5707 5.07071L31 6.5" stroke="white" stroke-width="0.2"/>
<path d="M23 9C23 8.44772 23.4477 8 24 8H34C34.5523 8 35 8.44772 35 9V20C35 20.5523 34.5523 21 34 21H24C23.4477 21 23 20.5523 23 20V9Z" fill="#FFD953"/>
<path d="M9.95984 3.48013C9.95984 4.2977 9.29685 4.96027 8.48077 4.96027C7.66278 4.96027 7 4.2977 7 3.48013C7.00021 2.66341 7.66278 2 8.48098 2C9.29685 2 9.95984 2.66341 9.95984 3.48013Z" fill="#002972"/>
<path d="M8.48185 4.8904C9.25961 4.8904 9.89063 4.25938 9.89063 3.48036C9.89063 2.70175 9.25961 2.07031 8.48164 2.07031C7.70261 2.07031 7.07202 2.70154 7.07202 3.48036C7.07181 4.2596 7.70261 4.8904 8.48185 4.8904Z" fill="white"/>
<mask id="mask0_135_2" style="mask-type:luminance" maskUnits="userSpaceOnUse" x="7" y="2" width="3" height="3">
<path d="M8.48185 4.89035C9.25961 4.89035 9.89063 4.25933 9.89063 3.48094C9.89063 2.70234 9.25961 2.07153 8.48164 2.07153C7.70261 2.07153 7.07202 2.70234 7.07202 3.48094C7.07181 4.25955 7.70261 4.89035 8.48185 4.89035Z" fill="white"/>
</mask>
<g mask="url(#mask0_135_2)">
<path d="M8.49413 4.16051C9.11434 4.16051 9.64477 4.33372 9.87304 4.57872C9.94821 4.40445 9.99035 4.21027 9.99035 4.00847C9.99035 3.19916 9.32016 2.54443 8.49413 2.54443C7.66915 2.54443 6.99854 3.19938 6.99854 4.00911C6.99854 4.21091 7.04089 4.40402 7.11606 4.57872C7.3439 4.33372 7.87497 4.16051 8.49413 4.16051Z" fill="white"/>
<path d="M8.49401 4.16219C9.11274 4.16219 9.64169 4.33392 9.86954 4.57701C9.94471 4.40401 9.98663 4.21153 9.98663 4.01143C9.98663 3.20868 9.31814 2.55713 8.49422 2.55713C7.67157 2.55713 7.00244 3.2089 7.00244 4.01206C7.00244 4.21238 7.04458 4.40401 7.11975 4.57722C7.34675 4.33392 7.87655 4.16219 8.49401 4.16219Z" fill="white"/>
<path d="M8.49358 4.16372C9.11062 4.16372 9.6383 4.33397 9.86551 4.57515C9.94047 4.40364 9.98219 4.21285 9.98219 4.01402C9.98219 3.21762 9.31538 2.56946 8.49358 2.56946C7.67305 2.56946 7.00562 3.21805 7.00562 4.01465C7.00562 4.21327 7.04775 4.40342 7.12271 4.57515C7.34929 4.33418 7.8776 4.16372 8.49358 4.16372Z" fill="white"/>
<path d="M8.49343 4.16541C9.10899 4.16541 9.63519 4.33438 9.86176 4.57345C9.93651 4.40342 9.97822 4.21411 9.97822 4.01697C9.97822 3.22714 9.31312 2.58215 8.49343 2.58215C7.67502 2.58215 7.00928 3.22757 7.00928 4.01761C7.00928 4.21475 7.0512 4.4032 7.12616 4.57366C7.3521 4.33417 7.87915 4.16541 8.49343 4.16541Z" fill="white"/>
<path d="M8.49328 4.16682C9.10715 4.16682 9.63229 4.33431 9.85801 4.57147C9.93276 4.40271 9.97426 4.21509 9.97426 4.01944C9.97426 3.23617 9.31085 2.59436 8.49328 2.59436C7.67699 2.59436 7.01294 3.2366 7.01294 4.02007C7.01294 4.21552 7.05487 4.40271 7.1294 4.57147C7.35492 4.33431 7.88069 4.16682 8.49328 4.16682Z" fill="white"/>
<path d="M8.49313 4.1685C9.10552 4.1685 9.62917 4.33451 9.85426 4.56977C9.9288 4.40248 9.9703 4.21636 9.9703 4.02239C9.9703 3.24569 9.30858 2.60706 8.49313 2.60706C7.67896 2.60706 7.0166 3.24591 7.0166 4.02282C7.0166 4.21678 7.05832 4.40227 7.13285 4.56977C7.35773 4.33451 7.88202 4.1685 8.49313 4.1685Z" fill="white"/>
<path d="M8.49277 4.17006C9.10346 4.17006 9.62585 4.3348 9.85051 4.56794C9.92484 4.40214 9.96634 4.21749 9.96634 4.02523C9.96634 3.25488 9.30632 2.61963 8.49299 2.61963C7.68092 2.61963 7.02026 3.2553 7.02026 4.02565C7.02026 4.21792 7.06198 4.40193 7.1363 4.56794C7.36033 4.3348 7.88336 4.17006 8.49277 4.17006Z" fill="white"/>
<path d="M8.49284 4.17171C9.10204 4.17171 9.62295 4.33497 9.84698 4.5662C9.9213 4.40167 9.96238 4.21872 9.96238 4.02794C9.96238 3.26415 9.30405 2.63208 8.49284 2.63208C7.68268 2.63208 7.02393 3.26437 7.02393 4.02836C7.02393 4.21915 7.06543 4.40167 7.13975 4.5662C7.36315 4.33476 7.8849 4.17171 8.49284 4.17171Z" fill="white"/>
<path d="M8.49269 4.17315C9.1002 4.17315 9.61983 4.33493 9.84323 4.56426C9.91734 4.40121 9.95842 4.21974 9.95842 4.03065C9.95842 3.27343 9.30199 2.64453 8.49269 2.64453C7.68486 2.64453 7.02759 3.27364 7.02759 4.03107C7.02759 4.22016 7.06909 4.40121 7.14299 4.56447C7.36596 4.33493 7.88645 4.17315 8.49269 4.17315Z" fill="white"/>
<path d="M8.49254 4.17468C9.09835 4.17468 9.61672 4.33498 9.83948 4.5624C9.91338 4.40083 9.95446 4.22085 9.95446 4.03324C9.95446 3.28258 9.29973 2.65686 8.49254 2.65686C7.68683 2.65686 7.03125 3.28279 7.03125 4.03366C7.03125 4.22127 7.07254 4.40062 7.14644 4.5624C7.36899 4.33519 7.88778 4.17468 8.49254 4.17468Z" fill="white"/>
<path d="M8.49214 4.17637C9.09648 4.17637 9.61336 4.33539 9.83548 4.56069C9.90939 4.4004 9.95025 4.22211 9.95025 4.03619C9.95025 3.2921 9.29722 2.66956 8.49214 2.66956C7.68855 2.66956 7.03467 3.29231 7.03467 4.03661C7.03467 4.22253 7.07596 4.40061 7.14965 4.56091C7.37156 4.33539 7.88908 4.17637 8.49214 4.17637Z" fill="white"/>
<path d="M8.49203 4.1779C9.09467 4.1779 9.61049 4.33544 9.83198 4.55884C9.90567 4.40002 9.94654 4.22321 9.94654 4.03878C9.94654 3.30104 9.29519 2.68188 8.49224 2.68188C7.69076 2.68188 7.03857 3.30147 7.03857 4.03899C7.03857 4.22342 7.07965 4.39981 7.15334 4.55863C7.37441 4.33544 7.89066 4.1779 8.49203 4.1779Z" fill="white"/>
<path d="M8.49184 4.17958C9.093 4.17958 9.60734 4.33564 9.8282 4.55713C9.90168 4.3998 9.94233 4.22447 9.94233 4.04173C9.94233 3.31056 9.29268 2.69458 8.49184 2.69458C7.69249 2.69458 7.04199 3.31077 7.04199 4.04195C7.04199 4.22469 7.08307 4.39959 7.15634 4.55713C7.37719 4.33564 7.89196 4.17958 8.49184 4.17958Z" fill="white"/>
<path d="M8.4917 4.18102C9.09116 4.18102 9.60423 4.33581 9.82445 4.55519C9.89793 4.39913 9.93837 4.22549 9.93837 4.04444C9.93837 3.31984 9.29042 2.70703 8.4917 2.70703C7.69446 2.70703 7.04565 3.32005 7.04565 4.04466C7.04565 4.22591 7.08652 4.39913 7.15979 4.55519C7.38001 4.33581 7.8935 4.18102 8.4917 4.18102Z" fill="white"/>
<path d="M8.4913 4.1828C9.08928 4.1828 9.60087 4.3361 9.82046 4.55357C9.89372 4.39899 9.93417 4.22684 9.93417 4.04728C9.93417 3.32923 9.2879 2.7196 8.4913 2.7196C7.69618 2.7196 7.04907 3.32944 7.04907 4.04749C7.04907 4.22705 7.08994 4.39899 7.16299 4.55357C7.38258 4.3361 7.8948 4.1828 8.4913 4.1828Z" fill="white"/>
<path d="M8.49118 4.18424C9.08747 4.18424 9.59779 4.33606 9.81695 4.55162C9.89001 4.39853 9.93045 4.22786 9.93045 4.04999C9.93045 3.33851 9.28588 2.73206 8.4914 2.73206C7.69839 2.73206 7.05298 3.33851 7.05298 4.0502C7.05298 4.22828 7.09363 4.39853 7.16648 4.55162C7.38543 4.33606 7.89617 4.18424 8.49118 4.18424Z" fill="white"/>
<path d="M8.49104 4.18589C9.08584 4.18589 9.59468 4.33644 9.8132 4.54989C9.88626 4.39806 9.92628 4.22909 9.92628 4.0527C9.92628 3.34757 9.2834 2.74451 8.49104 2.74451C7.70015 2.74451 7.05664 3.34778 7.05664 4.05291C7.05664 4.2293 7.0973 4.39806 7.16993 4.54989C7.38824 4.33623 7.89771 4.18589 8.49104 4.18589Z" fill="white"/>
<path d="M8.49064 4.18745C9.08375 4.18745 9.59153 4.33652 9.80921 4.54806C9.88205 4.39772 9.92207 4.23022 9.92207 4.05553C9.92207 3.35697 9.28089 2.75708 8.49064 2.75708C7.70187 2.75708 7.06006 3.35718 7.06006 4.05574C7.06006 4.23065 7.1005 4.39793 7.17313 4.54827C7.39081 4.33652 7.89901 4.18745 8.49064 4.18745Z" fill="white"/>
<path d="M8.49074 4.18914C9.08237 4.18914 9.58866 4.33673 9.8057 4.54636C9.87833 4.3975 9.91835 4.23149 9.91835 4.05849C9.91835 3.36649 9.27908 2.76978 8.49074 2.76978C7.70409 2.76978 7.06396 3.3667 7.06396 4.0587C7.06396 4.23191 7.10441 4.39771 7.17683 4.54657C7.39366 4.33673 7.90038 4.18914 8.49074 4.18914Z" fill="white"/>
<path d="M8.49059 4.19054C9.08052 4.19054 9.58555 4.33665 9.80195 4.54438C9.87458 4.39679 9.91439 4.23247 9.91439 4.06095C9.91439 3.37552 9.27681 2.78198 8.49059 2.78198C7.70605 2.78198 7.06763 3.37552 7.06763 4.06095C7.06763 4.23268 7.10786 4.39679 7.18007 4.54438C7.39647 4.33665 7.90192 4.19054 8.49059 4.19054Z" fill="white"/>
<path d="M8.49023 4.19211C9.07847 4.19211 9.58222 4.33694 9.79821 4.54255C9.87062 4.39644 9.91043 4.23361 9.91043 4.06379C9.91043 3.38491 9.27455 2.79456 8.49044 2.79456C7.70802 2.79456 7.07129 3.38491 7.07129 4.06379C7.07129 4.23382 7.11152 4.39666 7.18352 4.54255C7.39908 4.33694 7.90325 4.19211 8.49023 4.19211Z" fill="white"/>
<path d="M8.49004 4.19376C9.0768 4.19376 9.57907 4.33711 9.79442 4.54082C9.86663 4.39619 9.90623 4.23484 9.90623 4.0665C9.90623 3.39398 9.27204 2.80701 8.49004 2.80701C7.70975 2.80701 7.07471 3.39419 7.07471 4.0665C7.07471 4.23505 7.11473 4.39619 7.18672 4.54082C7.40207 4.33711 7.90456 4.19376 8.49004 4.19376Z" fill="white"/>
<path d="M8.48989 4.1952C9.07496 4.1952 9.57596 4.33707 9.79067 4.53887C9.86267 4.39551 9.90227 4.23585 9.90227 4.06921C9.90227 3.40325 9.26977 2.81946 8.48989 2.81946C7.71171 2.81946 7.07837 3.40346 7.07837 4.06921C7.07837 4.23607 7.11839 4.39573 7.19017 4.53887C7.40489 4.33728 7.9061 4.1952 8.48989 4.1952Z" fill="white"/>
<path d="M8.48975 4.19697C9.07333 4.19697 9.57285 4.33757 9.78693 4.53725C9.85892 4.39538 9.89831 4.2372 9.89831 4.07204C9.89831 3.41265 9.2675 2.83203 8.48975 2.83203C7.71368 2.83203 7.08203 3.41265 7.08203 4.07204C7.08203 4.23742 7.12184 4.39559 7.19341 4.53725C7.4077 4.33736 7.90764 4.19697 8.48975 4.19697Z" fill="white"/>
<path d="M8.48935 4.19844C9.07124 4.19844 9.5697 4.33756 9.78293 4.53555C9.85472 4.39516 9.8941 4.23846 9.8941 4.07499C9.8941 3.42217 9.26499 2.84473 8.48935 2.84473C7.71541 2.84473 7.08545 3.42217 7.08545 4.07499C7.08545 4.23868 7.12526 4.39537 7.19662 4.53555C7.41027 4.33756 7.90873 4.19844 8.48935 4.19844Z" fill="white"/>
<path d="M8.48923 4.20013C9.06964 4.20013 9.56662 4.33777 9.77943 4.53385C9.851 4.39473 9.89039 4.23973 9.89039 4.07795C9.89039 3.43148 9.26297 2.85742 8.48945 2.85742C7.71762 2.85742 7.08936 3.43169 7.08936 4.07795C7.08936 4.24015 7.12895 4.39515 7.20031 4.53406C7.41312 4.33777 7.91031 4.20013 8.48923 4.20013Z" fill="white"/>
<path d="M8.48905 4.20154C9.06777 4.20154 9.56347 4.33769 9.77565 4.53187C9.84722 4.39423 9.88618 4.24071 9.88618 4.08042C9.88618 3.44051 9.26046 2.86963 8.48905 2.86963C7.71955 2.86963 7.09277 3.44072 7.09277 4.0802C7.09277 4.24071 7.13237 4.39423 7.20352 4.53187C7.4159 4.3379 7.91182 4.20154 8.48905 4.20154Z" fill="white"/>
<path d="M8.4889 4.20334C9.06613 4.20334 9.56036 4.33823 9.7719 4.53028C9.84326 4.39413 9.88222 4.24209 9.88222 4.08349C9.88222 3.45015 9.25819 2.88245 8.4889 2.88245C7.72152 2.88245 7.09644 3.45015 7.09644 4.08328C7.09644 4.2423 7.13582 4.39434 7.20676 4.53028C7.41872 4.33802 7.91316 4.20334 8.4889 4.20334Z" fill="white"/>
<path d="M8.48851 4.20475C9.06405 4.20475 9.557 4.33815 9.7679 4.5283C9.83905 4.39342 9.87801 4.24308 9.87801 4.08596C9.87801 3.45918 9.25589 2.89465 8.48851 2.89465C7.72325 2.89465 7.09985 3.45918 7.09985 4.08575C7.09985 4.24308 7.13924 4.39363 7.20996 4.5283C7.42129 4.33815 7.91446 4.20475 8.48851 4.20475Z" fill="white"/>
<path d="M8.48864 4.20643C9.06269 4.20643 9.55416 4.33836 9.76464 4.5266C9.83579 4.3932 9.87454 4.24434 9.87454 4.08891C9.87454 3.4687 9.25411 2.90735 8.48885 2.90735C7.7257 2.90735 7.104 3.4687 7.104 4.0887C7.104 4.24455 7.14318 4.39341 7.2139 4.5266C7.42417 4.33836 7.91607 4.20643 8.48864 4.20643Z" fill="white"/>
<path d="M8.48846 4.20796C9.06082 4.20796 9.55123 4.33861 9.76086 4.52474C9.8318 4.39282 9.87034 4.24544 9.87034 4.0915C9.87034 3.47764 9.2516 2.91968 8.48846 2.91968C7.72743 2.91968 7.10742 3.47785 7.10742 4.09129C7.10742 4.24544 7.14638 4.39303 7.21711 4.52474C7.42695 4.33861 7.91758 4.20796 8.48846 4.20796Z" fill="white"/>
<path d="M8.48831 4.2094C9.05918 4.2094 9.54811 4.33857 9.75711 4.52279C9.82784 4.39215 9.86637 4.24646 9.86637 4.09421C9.86637 3.48691 9.24934 2.93213 8.48831 2.93213C7.72939 2.93213 7.11108 3.48691 7.11108 4.094C7.11108 4.24667 7.15005 4.39257 7.22035 4.52279C7.42977 4.33857 7.91891 4.2094 8.48831 4.2094Z" fill="white"/>
<path d="M8.48814 4.21304C9.05817 4.21304 9.54647 4.34137 9.75525 4.52432C9.82598 4.39451 9.86452 4.24989 9.86452 4.09849C9.86452 3.49521 9.24832 2.9436 8.48835 2.9436C7.73029 2.9436 7.11304 3.49521 7.11304 4.09828C7.11304 4.24989 7.152 4.39494 7.2223 4.52432C7.43109 4.34137 7.91959 4.21304 8.48814 4.21304Z" fill="white"/>
<path d="M8.48816 4.21656C9.05734 4.21656 9.545 4.34404 9.75357 4.52572C9.82409 4.39676 9.86263 4.2532 9.86263 4.10285C9.86263 3.50339 9.24728 2.95496 8.48816 2.95496C7.73115 2.95496 7.11475 3.50339 7.11475 4.10243C7.11475 4.25298 7.1535 4.39697 7.2238 4.52572C7.43258 4.34404 7.92024 4.21656 8.48816 4.21656Z" fill="white"/>
<path d="M8.48817 4.22023C9.05672 4.22023 9.54375 4.34686 9.7519 4.52748C9.82241 4.39938 9.86073 4.25666 9.86073 4.10737C9.86073 3.51193 9.24624 2.96667 8.48817 2.96667C7.73222 2.96667 7.11646 3.51193 7.11646 4.10716C7.11646 4.25687 7.15521 4.3998 7.22529 4.5277C7.43387 4.34707 7.92111 4.22023 8.48817 4.22023Z" fill="#002972"/>
<path d="M8.48819 4.22387C9.05589 4.22387 9.54228 4.34965 9.75 4.52901C9.82031 4.40174 9.85863 4.26008 9.85863 4.11165C9.85863 3.52002 9.24477 2.97815 8.48797 2.97815C7.73309 2.97815 7.11816 3.52023 7.11816 4.11144C7.11816 4.26008 7.15691 4.40217 7.22679 4.52922C7.43537 4.34987 7.92197 4.22387 8.48819 4.22387Z" fill="#002972"/>
<path d="M8.48827 4.22739C9.05512 4.22739 9.54088 4.35232 9.74839 4.53062C9.81848 4.4042 9.85702 4.26339 9.85702 4.11601C9.85702 3.52841 9.244 2.9895 8.48827 2.9895C7.73422 2.9895 7.12036 3.52819 7.12036 4.11559C7.12036 4.26339 7.15911 4.4042 7.22878 4.53041C7.43672 4.35254 7.92268 4.22739 8.48827 4.22739Z" fill="#002972"/>
<path d="M8.48831 4.23103C9.05453 4.23103 9.53965 4.35533 9.74674 4.53214C9.81683 4.40657 9.85516 4.26682 9.85516 4.12029C9.85516 3.53649 9.24299 3.00098 8.48831 3.00098C7.73533 3.00098 7.12231 3.53649 7.12231 4.11986C7.12231 4.26661 7.16085 4.40657 7.23073 4.53193C7.43825 4.35533 7.92358 4.23103 8.48831 4.23103Z" fill="#002972"/>
<path d="M8.48812 4.23458C9.05349 4.23458 9.53797 4.35803 9.74485 4.53357C9.81473 4.40885 9.85306 4.26994 9.85306 4.12468C9.85306 3.54491 9.24174 3.01257 8.48812 3.01257C7.73619 3.01257 7.12402 3.54491 7.12402 4.12447C7.12402 4.27016 7.16256 4.40928 7.23223 4.53379C7.43953 4.35803 7.92423 4.23458 8.48812 4.23458Z" fill="#002972"/>
<path d="M8.4882 4.23825C9.05272 4.23825 9.53657 4.36086 9.74324 4.53534C9.81312 4.41147 9.85144 4.27362 9.85144 4.1292C9.85144 3.55324 9.24097 3.02429 8.48841 3.02429C7.73733 3.02429 7.12622 3.55346 7.12622 4.12899C7.12622 4.27383 7.16476 4.41168 7.23421 4.53555C7.44088 4.36086 7.92494 4.23825 8.4882 4.23825Z" fill="#002972"/>
<path d="M8.48818 4.24186C9.05207 4.24186 9.53528 4.36362 9.74153 4.53683C9.81119 4.4138 9.84952 4.2768 9.84952 4.13345C9.84952 3.56151 9.23989 3.03552 8.48818 3.03552C7.73816 3.03552 7.12769 3.56151 7.12769 4.13323C7.12769 4.27701 7.16622 4.41401 7.23547 4.53704C7.44235 4.36362 7.92577 4.24186 8.48818 4.24186Z" fill="#002972"/>
<path d="M8.48823 4.24541C9.05127 4.24541 9.53385 4.36632 9.73988 4.53847C9.80934 4.41629 9.84766 4.28035 9.84766 4.13784C9.84766 3.56972 9.23888 3.04712 8.48823 3.04712C7.73927 3.04712 7.12964 3.56993 7.12964 4.13763C7.12964 4.28035 7.16797 4.41629 7.23742 4.53847C7.44366 4.36632 7.92645 4.24541 8.48823 4.24541Z" fill="#002972"/>
<path d="M8.48827 4.24896C9.05047 4.24896 9.53241 4.36902 9.73802 4.53991C9.80748 4.41836 9.8458 4.28369 9.8458 4.14224C9.8458 3.57814 9.23787 3.05872 8.48827 3.05872C7.74037 3.05872 7.13159 3.57814 7.13159 4.14203C7.13159 4.2839 7.16992 4.41879 7.23916 4.54012C7.44519 4.36902 7.92735 4.24896 8.48827 4.24896Z" fill="#002972"/>
<path d="M8.48808 4.25257C9.04964 4.25257 9.53073 4.37179 9.73613 4.5414C9.80537 4.4207 9.8437 4.28687 9.8437 4.14648C9.8437 3.5864 9.23661 3.06995 8.48808 3.06995C7.74102 3.06995 7.1333 3.58619 7.1333 4.14606C7.1333 4.28687 7.17163 4.42091 7.24066 4.5414C7.44627 4.37179 7.928 4.25257 8.48808 4.25257Z" fill="#002972"/>
<path d="M8.48812 4.25624C9.04884 4.25624 9.52951 4.37461 9.73449 4.54316C9.80373 4.42331 9.84184 4.29055 9.84184 4.151C9.84184 3.59474 9.23539 3.08167 8.48812 3.08167C7.74213 3.08167 7.13525 3.59474 7.13525 4.15079C7.13525 4.29076 7.17358 4.42352 7.2424 4.54338C7.4478 4.37461 7.92868 4.25624 8.48812 4.25624Z" fill="#002972"/>
<path d="M8.48814 4.25976C9.04801 4.25976 9.52804 4.37749 9.73281 4.54456C9.80184 4.42556 9.83995 4.29364 9.83995 4.15516C9.83995 3.60291 9.23435 3.09302 8.48814 3.09302C7.7432 3.09302 7.13696 3.60291 7.13696 4.15494C7.13696 4.29385 7.17508 4.42577 7.2439 4.54478C7.44929 4.37728 7.92954 4.25976 8.48814 4.25976Z" fill="#002972"/>
<path d="M8.48819 4.2634C9.04742 4.2634 9.52661 4.38029 9.73116 4.54609C9.79998 4.42793 9.8383 4.29707 9.8383 4.15964C9.8383 3.61121 9.23355 3.10449 8.48819 3.10449C7.7441 3.10449 7.13892 3.61121 7.13892 4.15922C7.13892 4.29707 7.17703 4.42814 7.24585 4.54609C7.45061 4.38007 7.93023 4.2634 8.48819 4.2634Z" fill="#002972"/>
<path d="M8.48823 4.26707C9.04662 4.26707 9.52539 4.38311 9.72951 4.54785C9.79833 4.43054 9.83645 4.30053 9.83645 4.16416C9.83645 3.61975 9.23254 3.11621 8.48823 3.11621C7.7452 3.11621 7.14087 3.61954 7.14087 4.16374C7.14087 4.30074 7.17898 4.43054 7.24759 4.54785C7.45214 4.3829 7.93112 4.26707 8.48823 4.26707Z" fill="#002972"/>
<path d="M8.48828 4.27047C9.04582 4.27047 9.52395 4.38566 9.72787 4.54913C9.79647 4.43267 9.83459 4.30371 9.83459 4.16819C9.83459 3.62759 9.23152 3.12744 8.48828 3.12744C7.74631 3.12744 7.14282 3.62759 7.14282 4.16798C7.14282 4.30392 7.18094 4.43288 7.24933 4.54934C7.45346 4.38566 7.93201 4.27068 8.48828 4.27047Z" fill="#002972"/>
<path d="M8.48809 4.27402C9.04499 4.27402 9.52227 4.38836 9.72576 4.55078C9.79437 4.43516 9.83249 4.30705 9.83249 4.17259C9.83249 3.63602 9.23027 3.13904 8.48809 3.13904C7.74717 3.13904 7.14453 3.63602 7.14453 4.17238C7.14453 4.30726 7.18265 4.43537 7.25083 4.55099C7.45475 4.38836 7.93245 4.27423 8.48809 4.27402Z" fill="#002972"/>
<path d="M8.48813 4.27766C9.04419 4.27766 9.52105 4.39116 9.72412 4.5523C9.79251 4.43753 9.83063 4.31048 9.83063 4.17708C9.83063 3.64431 9.22926 3.15051 8.48813 3.15051C7.74807 3.15051 7.14648 3.64431 7.14648 4.17665C7.14648 4.31069 7.18439 4.43753 7.25278 4.55251C7.45627 4.39116 7.93335 4.27787 8.48813 4.27766Z" fill="#002972"/>
<path d="M8.48815 4.28118C9.04336 4.28118 9.51958 4.39383 9.72244 4.5537C9.79083 4.43978 9.82874 4.31379 9.82874 4.18123C9.82874 3.65249 9.22821 3.16187 8.48815 3.16187C7.74914 3.16187 7.14819 3.65249 7.14819 4.18102C7.14819 4.314 7.1861 4.43999 7.25428 4.55412C7.45756 4.39404 7.93421 4.28139 8.48815 4.28118Z" fill="#002972"/>
<path d="M8.48819 4.28485C9.04277 4.28485 9.51815 4.39665 9.72079 4.55546C9.78898 4.44239 9.82709 4.31725 9.82709 4.18575C9.82709 3.66082 9.22741 3.17358 8.48819 3.17358C7.75025 3.17358 7.15015 3.66103 7.15015 4.18554C7.15015 4.31746 7.18805 4.4426 7.25602 4.55568C7.45909 4.39686 7.93489 4.28506 8.48819 4.28485Z" fill="#002972"/>
<path d="M8.48824 4.28846C9.04197 4.28846 9.51692 4.39941 9.71914 4.55695C9.78712 4.44473 9.82523 4.32064 9.82523 4.18999C9.82523 3.66909 9.2264 3.18481 8.48824 3.18481C7.75114 3.18481 7.1521 3.66887 7.1521 4.18957C7.1521 4.32064 7.19 4.44452 7.25776 4.55695C7.46041 4.39962 7.93579 4.28867 8.48824 4.28846Z" fill="#002972"/>
<path d="M8.48829 4.29197C9.04117 4.29197 9.51549 4.40229 9.7175 4.55835C9.78547 4.44697 9.82337 4.32374 9.82337 4.19414C9.82337 3.67705 9.22518 3.19617 8.48829 3.19617C7.75225 3.19617 7.15405 3.67705 7.15405 4.19393C7.15405 4.32395 7.19174 4.44697 7.2595 4.55857C7.46194 4.40229 7.93647 4.29218 8.48829 4.29197Z" fill="#002972"/>
<path d="M8.48809 4.29556C9.04034 4.29556 9.51381 4.40503 9.71561 4.56003C9.78337 4.4495 9.82127 4.32732 9.82127 4.19879C9.82127 3.68572 9.22392 3.20801 8.48809 3.20801C7.75311 3.20801 7.15576 3.68572 7.15576 4.19857C7.15576 4.32774 7.19345 4.44971 7.26121 4.56046C7.46322 4.40503 7.93712 4.29577 8.48809 4.29556Z" fill="#002972"/>
<path d="M8.48814 4.29916C9.03954 4.29916 9.51259 4.40779 9.71375 4.56152C9.78151 4.45162 9.81941 4.3305 9.81941 4.20303C9.81941 3.69377 9.22291 3.21924 8.48814 3.21924C7.75421 3.21924 7.15771 3.69377 7.15771 4.20261C7.15771 4.33071 7.19541 4.45162 7.26295 4.56173C7.46454 4.40779 7.93801 4.29938 8.48814 4.29916Z" fill="#002972"/>
<path d="M8.48816 4.30284C9.0387 4.30284 9.51112 4.41062 9.71207 4.56329C9.77962 4.45424 9.81752 4.33417 9.81752 4.20755C9.81752 3.70231 9.22187 3.23096 8.48816 3.23096C7.75508 3.23096 7.15942 3.70231 7.15942 4.20712C7.15942 4.33417 7.19712 4.45424 7.26445 4.56329C7.46604 4.41062 7.93866 4.30305 8.48816 4.30284Z" fill="#002972"/>
<path d="M8.48817 4.30635C9.03808 4.30635 9.50965 4.41329 9.71039 4.56469C9.77773 4.45648 9.81563 4.33727 9.81563 4.2117C9.81563 3.71028 9.22082 3.24231 8.48796 3.24231C7.75594 3.24231 7.16113 3.71049 7.16113 4.21149C7.16113 4.33769 7.19861 4.4567 7.26595 4.5649C7.46732 4.41329 7.93953 4.30657 8.48817 4.30635Z" fill="#002972"/>
<path d="M8.48825 4.31003C9.03732 4.31003 9.50846 4.41611 9.70878 4.56624C9.77611 4.45889 9.81402 4.34073 9.81402 4.21622C9.81402 3.71882 9.22006 3.25403 8.48825 3.25403C7.75729 3.25403 7.16333 3.71882 7.16333 4.21601C7.16333 4.34115 7.20081 4.4591 7.26815 4.56667C7.46889 4.41611 7.94045 4.31024 8.48825 4.31003Z" fill="#002972"/>
<path d="M8.4883 4.31367C9.03652 4.31367 9.50703 4.41891 9.70713 4.56798C9.77425 4.46147 9.81216 4.34437 9.81216 4.22071C9.81216 3.72712 9.21905 3.2655 8.4883 3.2655C7.75818 3.2655 7.16528 3.72712 7.16528 4.22028C7.16528 4.34437 7.20276 4.46147 7.26989 4.56819C7.47041 4.41891 7.94114 4.31388 8.4883 4.31367Z" fill="#002972"/>
<path d="M8.4881 4.31718C9.03569 4.31718 9.50535 4.42158 9.70524 4.56938C9.77236 4.46371 9.81006 4.34746 9.81006 4.22486C9.81006 3.73529 9.21779 3.27686 8.4881 3.27686C7.75905 3.27686 7.16699 3.73529 7.16699 4.22465C7.16699 4.34789 7.20447 4.46371 7.27138 4.5698C7.47149 4.42158 7.94179 4.31739 8.4881 4.31718Z" fill="#002972"/>
<path d="M8.48818 4.32086C9.03492 4.32086 9.50395 4.42461 9.70363 4.57114C9.77054 4.46633 9.80844 4.35114 9.80844 4.22938C9.80844 3.74362 9.21702 3.28857 8.48839 3.28857C7.7604 3.28857 7.16919 3.74384 7.16919 4.22917C7.16919 4.35135 7.20646 4.46633 7.27337 4.57157C7.47305 4.4244 7.9425 4.32107 8.48818 4.32086Z" fill="#002972"/>
</g>
<path d="M8.4814 3.8363C8.00306 3.8363 7.55923 3.91762 7.19312 4.05525C7.41312 4.54757 7.90671 4.8904 8.48183 4.8904C9.05588 4.8904 9.54862 4.54715 9.76927 4.05525C9.40315 3.91762 8.95869 3.8363 8.4814 3.8363Z" fill="white"/>
<path d="M10.3438 3.90192H11.2763V4.7053H11.6411V3.90192H12.5739V3.67493H10.3438V3.90192Z" fill="white"/>
<path d="M10.8895 3.29588C10.9621 3.35178 11.0477 3.39625 11.1444 3.42886C11.2412 3.46105 11.3469 3.47756 11.4587 3.47756C11.5688 3.47756 11.6738 3.46105 11.7702 3.42886C11.8669 3.39646 11.9527 3.35157 12.0255 3.29588C12.0982 3.23786 12.1566 3.1701 12.1994 3.0943C12.2419 3.01785 12.2637 2.93506 12.2637 2.84761C12.2637 2.76227 12.2419 2.68011 12.1994 2.60346C12.1566 2.52765 12.0984 2.45989 12.0253 2.40187C11.9529 2.34618 11.8671 2.30108 11.7706 2.26784C11.6742 2.23459 11.5692 2.21765 11.4589 2.21765C11.3467 2.21765 11.241 2.23438 11.1446 2.26784C11.0479 2.30108 10.9621 2.3464 10.8895 2.40209C10.8166 2.45968 10.7586 2.52744 10.7169 2.60367C10.6752 2.68011 10.6538 2.76206 10.6538 2.8474C10.6538 2.93485 10.6752 3.01764 10.7169 3.09408C10.7584 3.1701 10.8166 3.23786 10.8895 3.29588ZM11.0187 2.84761C11.0187 2.79488 11.0303 2.743 11.0532 2.69451C11.0762 2.6456 11.108 2.60261 11.1476 2.56662C11.187 2.52892 11.2338 2.49886 11.2867 2.47705C11.3397 2.45566 11.3977 2.44465 11.4587 2.44465C11.518 2.44465 11.5747 2.45566 11.6279 2.47705C11.6808 2.49886 11.7278 2.52892 11.7672 2.56683C11.8066 2.60282 11.8388 2.6456 11.8629 2.69472C11.8866 2.74343 11.8985 2.79488 11.8985 2.84761C11.8985 2.90224 11.8866 2.95454 11.8629 3.00346C11.8388 3.05237 11.8068 3.09514 11.767 3.13135C11.7274 3.16926 11.6806 3.1989 11.6279 3.21944C11.5203 3.26137 11.3905 3.26031 11.2865 3.21944C11.2336 3.1989 11.1868 3.16926 11.1472 3.13135C11.1076 3.09514 11.0758 3.05237 11.053 3.00346C11.0303 2.95475 11.0187 2.90224 11.0187 2.84761Z" fill="white"/>
<path d="M14.5566 2.26062H14.2727L14.29 2.28201C14.297 2.2909 14.3013 2.30022 14.3027 2.31144C14.3112 2.34596 14.315 2.40059 14.315 2.47385V3.60523C14.315 3.67596 14.2737 3.72339 14.1888 3.75007C14.1607 3.75875 14.1162 3.76489 14.0569 3.76828H13.2832C13.2419 3.76828 13.229 3.75896 13.2245 3.75325C13.216 3.74266 13.2118 3.72508 13.2118 3.70179V3.25055H13.8803C13.9203 3.25055 13.9474 3.2425 13.9629 3.2262C13.9781 3.21053 13.986 3.18618 13.986 3.15442V2.42854C13.986 2.39656 13.9777 2.37242 13.9614 2.35612C13.9449 2.34024 13.9176 2.3324 13.8778 2.3324H12.8345V2.5594H13.6211V3.02356H12.8088L12.8328 3.07332C12.8425 3.1019 12.8474 3.13727 12.8474 3.17834V3.82948C12.8474 3.87034 12.8618 3.90592 12.8895 3.93493C12.9278 3.97495 12.9897 3.99506 13.0735 3.99506H13.9862L14.1306 3.98956C14.217 3.98067 14.278 3.965 14.3157 3.9417V4.67817H14.6805V2.3593C14.6801 2.31525 14.6587 2.26316 14.5566 2.26062Z" fill="white"/>
<path d="M16.9808 2.35379C16.9808 2.31123 16.9594 2.26062 16.8573 2.26062H16.5774L16.6011 2.30953C16.6108 2.34511 16.6159 2.39953 16.6159 2.47131V4.67817H16.9808V3.25839H17.324V3.03181H16.9808V2.35379Z" fill="white"/>
<path d="M16.2323 2.3324H15.1223V2.55664L15.9323 2.55643C15.9388 2.55791 15.9443 2.56045 15.9486 2.56299C15.9486 2.56299 15.9507 2.5668 15.9475 2.58247C15.9382 2.72668 15.9107 2.86241 15.8649 2.98903H15.1352V3.21603H15.7582C15.6041 3.47669 15.3582 3.69204 15.0224 3.8606L15.009 3.86737L15.1098 4.02492L15.1198 4.02132C15.9265 3.74308 16.3365 3.20608 16.338 2.42599C16.3378 2.38301 16.3193 2.3324 16.2323 2.3324Z" fill="white"/>
<path d="M17.6776 2.45752C17.6907 2.49119 17.6971 2.53015 17.6971 2.57272V3.40532C17.6971 3.45317 17.7147 3.49595 17.7494 3.53215C17.7945 3.57916 17.8623 3.60288 17.9512 3.60288H19.3915V3.37609H18.1306C18.0831 3.37609 18.0619 3.35704 18.0619 3.31469V2.62608H19.3788V2.39929H17.6401L17.656 2.42068C17.6675 2.43508 17.6744 2.44757 17.6776 2.45752Z" fill="white"/>
<path d="M19.6532 4.18713H17.4231V4.41413H19.6532V4.18713Z" fill="white"/>
<path d="M51.815 7.29C51.815 7.32 51.8092 7.34083 51.7975 7.3525C51.7875 7.36417 51.7642 7.37417 51.7275 7.3825L50.465 7.675L51.695 7.965C51.705 7.96833 51.7183 7.97167 51.735 7.975C51.7517 7.97833 51.765 7.98 51.775 7.98C51.7833 7.98 51.7967 7.975 51.815 7.965V8.245C51.815 8.28833 51.7992 8.31 51.7675 8.31C51.7558 8.31 51.7417 8.3075 51.725 8.3025L50 7.8725V7.5L51.3325 7.1875L50 6.8775V6.51L51.7425 6.0675C51.7742 6.05917 51.7983 6.04333 51.815 6.02V6.3175C51.815 6.34917 51.8092 6.37167 51.7975 6.385C51.7875 6.39833 51.7642 6.40917 51.7275 6.4175L50.475 6.7125L51.685 6.9925C51.7033 6.99583 51.72 6.99917 51.735 7.0025C51.7517 7.00583 51.7642 7.0075 51.7725 7.0075C51.7825 7.0075 51.7967 7.0025 51.815 6.9925V7.29ZM50.75 9.36881V8.52131H51V9.36881H50.75ZM51.6475 9.7473C51.6708 9.7473 51.6983 9.74564 51.73 9.7423C51.7633 9.74064 51.7917 9.73147 51.815 9.7148V9.9773C51.815 10.0573 51.7875 10.0973 51.7325 10.0973H50.715C50.6467 10.0973 50.5792 10.1015 50.5125 10.1098C50.4475 10.1181 50.3892 10.1356 50.3375 10.1623C50.2858 10.1906 50.2442 10.2298 50.2125 10.2798C50.1808 10.3298 50.165 10.3965 50.165 10.4798C50.165 10.5598 50.18 10.6248 50.21 10.6748C50.2417 10.7248 50.2825 10.764 50.3325 10.7923C50.3825 10.8206 50.44 10.8398 50.505 10.8498C50.5717 10.8598 50.64 10.8648 50.71 10.8648H51.6475C51.6725 10.8648 51.7008 10.8631 51.7325 10.8598C51.7658 10.8565 51.7933 10.8473 51.815 10.8323V11.0923C51.815 11.1723 51.7875 11.2123 51.7325 11.2123H50.73C50.22 11.2123 49.965 10.9681 49.965 10.4798C49.965 10.2298 50.0275 10.0448 50.1525 9.9248C50.2775 9.80647 50.47 9.7473 50.73 9.7473H51.6475ZM50.5275 12.7602H51.6475C51.6725 12.7602 51.7008 12.7585 51.7325 12.7552C51.7642 12.7535 51.7917 12.7452 51.815 12.7302V12.9902C51.815 13.0702 51.7867 13.1102 51.73 13.1102H50V12.6927L51.4275 11.9602H50V11.6102H51.645C51.67 11.6102 51.6992 11.6085 51.7325 11.6052C51.7658 11.6018 51.7933 11.5927 51.815 11.5777V12.0427C51.815 12.0593 51.8133 12.0727 51.81 12.0827C51.8083 12.0927 51.8042 12.101 51.7975 12.1077C51.7908 12.1143 51.7817 12.1202 51.77 12.1252C51.7583 12.1318 51.7442 12.1393 51.7275 12.1477L50.5275 12.7602ZM50 14.2646V13.4546H50.2V13.6846H51.615V13.4546H51.815V14.2646H51.615V14.0346H50.2V14.2646H50ZM51.78 15.6481H51.585V15.3081C51.5033 15.3048 51.4217 15.294 51.34 15.2756C51.2583 15.2573 51.1767 15.2315 51.095 15.1981C51.005 15.2748 50.9183 15.3556 50.835 15.4406C50.7533 15.5256 50.6742 15.6181 50.5975 15.7181L50.3875 15.4906C50.5575 15.3306 50.7225 15.1981 50.8825 15.0931C50.7042 14.9848 50.5258 14.8215 50.3475 14.6031L50.4525 14.4781C50.6342 14.6465 50.8158 14.7665 50.9975 14.8381C51.1792 14.9115 51.3508 14.9498 51.5125 14.9531C51.5442 14.9531 51.5642 14.9498 51.5725 14.9431C51.5808 14.9365 51.585 14.9215 51.585 14.8981V14.5781H51.78V14.9556H51.94C51.9583 14.9556 51.98 14.954 52.005 14.9506C52.0317 14.949 52.05 14.939 52.06 14.9206V15.2006C52.06 15.2656 52.0333 15.2981 51.98 15.2981H51.78V15.6481ZM51.82 16.2956C51.8483 16.2956 51.88 16.2948 51.915 16.2931C51.9517 16.2915 51.9833 16.2823 52.01 16.2656V16.5306C52.01 16.569 52.0033 16.594 51.99 16.6056C51.9783 16.6173 51.9583 16.6231 51.93 16.6231H49.685V16.2956H51.82ZM49.685 16.1506V15.8206H51.09V15.5156H51.2875V15.8206H51.82C51.8483 15.8206 51.88 15.8198 51.915 15.8181C51.9517 15.8165 51.9833 15.8081 52.01 15.7931V16.0606C52.01 16.0973 52.0033 16.1215 51.99 16.1331C51.9783 16.1448 51.9583 16.1506 51.93 16.1506H49.685ZM50.135 19.128H49.9375V16.893H50.135V18.4005C50.135 18.4405 50.1492 18.468 50.1775 18.483C50.2058 18.498 50.2375 18.5055 50.2725 18.5055H50.835V17.173H51.03V18.5055H51.705V17.143H51.9V18.7255C51.9 18.7639 51.8892 18.7939 51.8675 18.8155C51.8458 18.8372 51.8217 18.848 51.795 18.848H50.32C50.2817 18.848 50.2492 18.8455 50.2225 18.8405C50.1958 18.8372 50.1667 18.8264 50.135 18.808V19.128Z" fill="white"/>
<path d="M12.0017 34.0103L12.8916 34.0103C13.0345 34.0103 13.1639 34.0477 13.2779 34.1192C13.3919 34.1923 13.4497 34.3046 13.4497 34.4578L13.4497 35.8445C13.4497 35.9858 13.397 36.0964 13.2898 36.1746C13.1843 36.2529 13.0533 36.292 12.8967 36.292L12 36.292L12 34.0103H12.0017ZM12.9103 34.4237C12.9103 34.3948 12.9001 34.371 12.8763 34.3489C12.8542 34.3267 12.8253 34.3131 12.7912 34.3063C12.7878 34.3046 12.7453 34.3046 12.6636 34.3046C12.5836 34.3063 12.5411 34.3063 12.536 34.3063L12.536 36.0062C12.5394 36.0062 12.5819 36.0062 12.6619 36.0062C12.7419 36.0062 12.7827 36.0045 12.7878 36.0028C12.8219 35.996 12.8508 35.9824 12.8746 35.9619C12.8984 35.9398 12.9086 35.9143 12.9086 35.8854L12.9086 34.4237H12.9103Z" fill="white"/>
<path d="M14.7599 36.2989H14.2273L14.748 34.012L15.415 34.012L15.9357 36.2989H15.4031L15.0815 34.6875L14.7599 36.2989ZM14.8296 35.6778L14.8296 35.363L15.3895 35.363L15.3895 35.6778L14.8296 35.6778Z" fill="white"/>
<path d="M17.7565 36.2954L17.1711 34.9478L17.1711 36.2954H16.7236L16.7236 34.0068H17.3328L17.8603 35.3885L17.8603 34.0068H18.3061L18.3061 36.2937H17.7565V36.2954Z" fill="white"/>
<path d="M20.0348 36.2989L19.6417 35.4447L19.6417 36.2989H19.1091L19.1091 34.0103H19.6417L19.6417 34.7743L20.0569 34.0103H20.5929L20.0416 35.0533L20.6558 36.2989H20.0348Z" fill="white"/>
<path d="M21.4097 34.4424C21.4097 34.3216 21.4624 34.2195 21.5696 34.1361C21.6768 34.0527 21.8112 34.0085 21.9729 34C21.9814 34 22.0086 34 22.0529 34C22.0988 34 22.1243 34 22.1294 34C22.1362 34 22.1601 34 22.2043 34C22.2485 34 22.2724 34 22.2792 34C22.4425 34.0068 22.5786 34.051 22.6875 34.1327C22.7964 34.2161 22.8509 34.3165 22.8509 34.439L22.8509 35.8904C22.8509 36.0198 22.7981 36.1201 22.6926 36.1899C22.5854 36.2614 22.4493 36.2988 22.2792 36.3022C22.2707 36.3022 22.2451 36.3022 22.2043 36.3022C22.1618 36.3022 22.1362 36.3022 22.1277 36.3022C22.1192 36.3022 22.0937 36.3022 22.0512 36.3022C22.0086 36.3022 21.9831 36.3022 21.9763 36.3022C21.8146 36.2954 21.6802 36.2546 21.5713 36.1763C21.4624 36.098 21.4097 36.0044 21.4097 35.8938L21.4097 34.4424ZM22.3268 34.3863C22.3268 34.3675 22.3217 34.3539 22.3098 34.342C22.2979 34.3301 22.2826 34.325 22.2621 34.3216C22.2604 34.3199 22.2383 34.3182 22.1958 34.3182C22.1532 34.3165 22.1294 34.3165 22.126 34.3165C22.1226 34.3165 22.0988 34.3165 22.0563 34.3165C22.0137 34.3165 21.9899 34.3182 21.9865 34.3199C21.9678 34.3216 21.9542 34.3301 21.9423 34.342C21.932 34.3539 21.9252 34.3675 21.9252 34.3846L21.9252 35.9177C21.9252 35.9313 21.9303 35.9449 21.9423 35.9568C21.9542 35.9687 21.9678 35.9772 21.9831 35.9806C21.9865 35.9823 22.0103 35.984 22.0546 35.9874C22.0971 35.9891 22.1209 35.9908 22.126 35.9908C22.1294 35.9908 22.1532 35.9891 22.1975 35.9874C22.24 35.9857 22.2638 35.984 22.2655 35.9806C22.2843 35.9772 22.2979 35.9687 22.3098 35.9568C22.32 35.9449 22.3268 35.9313 22.3268 35.9177L22.3268 34.3863Z" fill="white"/>
<path d="M23.6501 34.4423C23.6501 34.3215 23.7046 34.2194 23.8101 34.136C23.9173 34.0526 24.0517 34.0084 24.2134 33.9999C24.2219 33.9999 24.2491 33.9999 24.2933 33.9999C24.3393 33.9999 24.3648 33.9999 24.3699 33.9999C24.375 33.9999 24.4005 33.9999 24.4448 33.9999C24.489 33.9999 24.5128 33.9999 24.5196 33.9999C24.683 34.0067 24.8191 34.0509 24.928 34.1326C25.0369 34.216 25.0914 34.3164 25.0914 34.4389L25.0914 35.8903C25.0914 36.0196 25.0386 36.12 24.9331 36.1898C24.8276 36.2613 24.6898 36.2987 24.5196 36.3021C24.5111 36.3021 24.4856 36.3021 24.4448 36.3021C24.4022 36.3021 24.3767 36.3021 24.3682 36.3021C24.3597 36.3021 24.3342 36.3021 24.2916 36.3021C24.2491 36.3021 24.2236 36.3021 24.2168 36.3021C24.0551 36.2953 23.9207 36.2544 23.8118 36.1762C23.7029 36.0979 23.6501 36.0043 23.6501 35.8937L23.6501 34.4423ZM24.569 34.3861C24.569 34.3674 24.5639 34.3538 24.552 34.3419C24.5418 34.33 24.5247 34.3249 24.5043 34.3215C24.5026 34.3198 24.4805 34.3181 24.438 34.3181C24.3954 34.3164 24.3733 34.3164 24.3682 34.3164C24.3648 34.3164 24.341 34.3164 24.2984 34.3164C24.2559 34.3164 24.2321 34.3181 24.2287 34.3198C24.21 34.3215 24.1963 34.33 24.1844 34.3419C24.1742 34.3538 24.1674 34.3674 24.1674 34.3844L24.1674 35.9175C24.1674 35.9312 24.1725 35.9448 24.1844 35.9567C24.1963 35.9686 24.21 35.9771 24.2253 35.9805C24.2287 35.9822 24.2525 35.9839 24.2967 35.9873C24.3393 35.989 24.3631 35.9907 24.3682 35.9907C24.3716 35.9907 24.3954 35.989 24.4397 35.9873C24.4839 35.9856 24.506 35.9839 24.5077 35.9805C24.5264 35.9771 24.5401 35.9686 24.552 35.9567C24.5639 35.9448 24.569 35.9312 24.569 35.9175L24.569 34.3861Z" fill="white"/>
<path d="M26.8209 36.2985L26.4279 35.4443L26.4279 36.2985H25.8953L25.8953 34.0099H26.4279L26.4279 34.7739L26.843 34.0099H27.379L26.8277 35.0529L27.442 36.2985H26.8209Z" fill="white"/>
<path d="M29.9581 34.0103L29.9581 35.9347C29.9581 35.9517 29.9649 35.9653 29.9768 35.9756C29.9887 35.9858 30.0057 35.9943 30.0245 35.9977C30.0279 35.9994 30.0517 36.0011 30.0925 36.0011C30.1334 36.0011 30.1555 36.0011 30.1572 36.0011C30.1606 36.0011 30.1844 36.0011 30.2269 36.0011C30.2695 36.0011 30.2916 36.0011 30.2933 35.9977C30.312 35.9943 30.3273 35.9858 30.3392 35.9756C30.3512 35.9636 30.358 35.95 30.358 35.9347L30.358 34.0103H30.8906L30.8906 35.9041C30.8906 36.0317 30.8361 36.1304 30.7289 36.2019C30.62 36.2733 30.4805 36.3108 30.3052 36.3159C30.2984 36.3159 30.2746 36.3159 30.232 36.3159C30.1895 36.3159 30.164 36.3159 30.1572 36.3159C30.1521 36.3159 30.13 36.3159 30.0857 36.3159C30.0432 36.3159 30.0194 36.3159 30.0143 36.3159C29.8543 36.3125 29.7165 36.2767 29.5974 36.2121C29.48 36.1474 29.4204 36.0453 29.4204 35.9058L29.4204 34.0103H29.9581Z" fill="white"/>
<path d="M32.7267 36.2954L32.1413 34.9478L32.1413 36.2954H31.6921L31.6921 34.0068H32.3013L32.8288 35.3885L32.8288 34.0068H33.2746L33.2746 36.2937H32.7267V36.2954Z" fill="white"/>
<path d="M34.093 36.2955L34.093 34.0103H34.6256L34.6256 36.2955H34.093Z" fill="white"/>
<path d="M36.601 36.2989L35.8472 36.2989L35.4082 34.012H35.9272L36.2266 35.5247L36.521 34.012H37.0451L36.601 36.2989Z" fill="white"/>
<path d="M37.8022 36.2955L37.8022 34.0103L39.0631 34.0103V34.3012L38.3365 34.3012V34.9189H39.0155V35.1945L38.3365 35.1945L38.3365 36.0045L39.0699 36.0045L39.0699 36.2955L37.8022 36.2955Z" fill="white"/>
<path d="M40.7701 36.3019C40.7667 36.2628 40.765 36.2202 40.7684 36.1709C40.7718 36.1215 40.7735 36.033 40.7735 35.9037V35.834V35.7642C40.7735 35.6842 40.7735 35.5889 40.7718 35.48C40.7718 35.3711 40.7701 35.315 40.7701 35.3133C40.7701 35.2827 40.7565 35.2571 40.7276 35.235C40.6987 35.2129 40.6646 35.201 40.6255 35.1993C40.6238 35.1993 40.583 35.1993 40.5047 35.1993C40.4264 35.1993 40.3839 35.1993 40.3805 35.1993L40.3805 36.2985H39.8479L39.8479 34.0099L40.7293 34.0099C40.879 34.0099 41.0101 34.0405 41.1224 34.1001C41.2347 34.1596 41.2908 34.2583 41.2908 34.3978V34.6922C41.2908 34.7671 41.2602 34.8385 41.1972 34.9066C41.1343 34.9747 41.056 35.0223 40.9607 35.0495C41.056 35.07 41.1343 35.1159 41.1989 35.1874C41.2619 35.2588 41.2942 35.3388 41.2942 35.4256V35.834C41.2942 35.9888 41.2942 36.0977 41.2908 36.159C41.2891 36.2202 41.2942 36.2679 41.3061 36.3002H40.7701V36.3019ZM40.7701 34.4234C40.7701 34.3927 40.7565 34.3655 40.7276 34.3417C40.6987 34.3179 40.6646 34.3043 40.6255 34.3026C40.6238 34.3026 40.583 34.3026 40.5047 34.3026C40.4264 34.3026 40.3839 34.3026 40.3805 34.3026L40.3805 34.9236C40.3839 34.9236 40.4264 34.9236 40.5047 34.9236C40.583 34.9236 40.6238 34.9236 40.6255 34.9236C40.6663 34.9202 40.7004 34.9066 40.7276 34.8845C40.7565 34.8624 40.7701 34.8351 40.7701 34.8028V34.4234Z" fill="white"/>
<path d="M42.5743 35.4309L42.5743 35.892C42.5743 35.9124 42.5811 35.9295 42.593 35.9414C42.6066 35.955 42.6236 35.9635 42.6458 35.9669C42.6492 35.9686 42.673 35.9703 42.7155 35.972C42.7581 35.9737 42.7802 35.9754 42.7853 35.9754C42.7921 35.9754 42.8159 35.9737 42.8584 35.972C42.901 35.9703 42.9231 35.9686 42.9248 35.9669C42.9469 35.9635 42.9639 35.955 42.9742 35.9414C42.9844 35.9278 42.9912 35.9124 42.9912 35.892V35.7168C42.9912 35.6589 42.9486 35.5977 42.8619 35.533C42.7751 35.47 42.707 35.4156 42.656 35.3714C42.4297 35.1638 42.2782 35.0191 42.2034 34.9409C42.1285 34.8626 42.0893 34.7809 42.0893 34.6958V34.4457C42.0893 34.3215 42.1455 34.2194 42.2561 34.136C42.3667 34.0526 42.5062 34.0084 42.6747 34.0033C42.6798 34.0033 42.7036 34.0033 42.7461 34.0033C42.787 34.0033 42.8108 34.0033 42.8142 34.0033C42.8176 34.0033 42.8414 34.0033 42.8823 34.0033C42.9231 34.0033 42.9452 34.0033 42.9469 34.0033C43.1001 34.005 43.2277 34.0458 43.3298 34.1224C43.4319 34.2007 43.4829 34.2943 43.4829 34.4049L43.4829 34.8354H42.9929V34.3998C42.9929 34.3827 42.9878 34.3674 42.9793 34.3504C42.9708 34.3334 42.9571 34.3249 42.9418 34.3198C42.9401 34.3181 42.918 34.3164 42.8738 34.3147C42.8295 34.313 42.8057 34.313 42.8023 34.313C42.7955 34.313 42.7717 34.313 42.7308 34.313C42.69 34.313 42.6662 34.3147 42.6628 34.3164C42.6424 34.3249 42.627 34.3351 42.6151 34.347C42.6032 34.3589 42.5981 34.381 42.5981 34.4134L42.6015 34.6278C42.6032 34.6873 42.6321 34.7384 42.6866 34.7843C42.741 34.8303 42.7938 34.8762 42.8465 34.9221C43.0694 35.1212 43.2379 35.2693 43.3536 35.3645C43.4693 35.4598 43.5272 35.5568 43.5272 35.6589V35.8529C43.5272 35.9788 43.471 36.0826 43.3587 36.1694C43.2464 36.2562 43.1052 36.3004 42.9333 36.3038C42.9265 36.3038 42.9044 36.3038 42.8619 36.3038C42.821 36.3038 42.7972 36.3038 42.7938 36.3038C42.787 36.3038 42.7632 36.3038 42.7223 36.3038C42.6815 36.3038 42.6577 36.3038 42.6509 36.3038C42.4892 36.3004 42.3548 36.2596 42.2476 36.1813C42.1404 36.103 42.0876 36.0077 42.0876 35.892V35.4292H42.5743V35.4309Z" fill="white"/>
<path d="M44.3413 36.2955L44.3413 34.0103H44.8739L44.8739 36.2955H44.3413Z" fill="white"/>
<path d="M46.6095 34.3046L46.6095 36.2955L46.0769 36.2955L46.0769 34.3046H45.6804V34.0103L47.0076 34.0103V34.3046L46.6095 34.3046Z" fill="white"/>
<path d="M49.0495 34.9597L48.8436 35.4804L48.8436 36.2989L48.3076 36.2989V35.4957C48.3059 35.4617 48.2855 35.3885 48.2481 35.2779C48.209 35.1673 48.1732 35.0618 48.1392 34.9631C48.1103 34.8781 48.0541 34.7436 47.969 34.5565C47.884 34.371 47.8125 34.1889 47.7546 34.0103H48.2634L48.6156 34.9138L49.0036 34.0103H49.4817L49.0495 34.9597Z" fill="white"/>
<path d="M29.2292 50.3921L31.4216 50.7212C31.5201 50.736 31.6015 50.8059 31.6316 50.9009L31.9197 51.8081C31.9501 51.9046 31.8773 52.0034 31.7761 52.0034C31.6704 52.0037 31.5881 52.0956 31.6003 52.2007L31.9734 55.395C31.981 55.4601 31.9641 55.5256 31.9255 55.5786L28.1863 60.7222C28.1437 60.7808 28.1242 60.8533 28.1326 60.9253L28.4578 63.7075C28.4814 63.9063 28.7462 63.9587 28.8435 63.7837C28.9453 63.6002 29.2256 63.7113 29.1736 63.9146L28.9548 64.7681C28.9411 64.8218 28.9432 64.8785 28.9607 64.9312L29.4998 66.5522C29.5266 66.633 29.5123 66.7221 29.4617 66.7905L29.2224 67.1138C29.1731 67.1803 29.0952 67.2192 29.0125 67.2192H26.4226C26.35 67.2192 26.2806 67.1894 26.2312 67.1362L25.3503 66.1831C25.3163 66.1463 25.2936 66.1007 25.2849 66.0513L24.0955 59.2661C24.0846 59.2038 24.0967 59.1395 24.1296 59.0854L28.2859 52.2769C28.3952 52.0978 28.2423 51.8737 28.0359 51.9106C27.851 51.944 27.7145 51.7412 27.8152 51.5825L28.3044 50.8101C28.3317 50.7671 28.3714 50.7334 28.4177 50.7124L29.0828 50.4126C29.1285 50.392 29.1796 50.3846 29.2292 50.3921Z" fill="white" stroke="white" stroke-width="0.0275"/>
<path d="M28.9441 65.168L28.5554 64.1182L29.5261 62.543L28.9441 65.168Z" fill="white" stroke="white" stroke-width="0.0275"/>
<path d="M31.1755 54.9534L30.1638 56.7766L29.3689 56.9563L30.3777 55.3206L30.366 55.3127H30.365L30.3494 55.303L30.3738 55.3098L28.5427 54.76L28.5476 54.7444L28.5349 54.7629L27.3269 56.5764V55.3196L28.3386 54.0413L31.1755 54.9534Z" fill="#002972" stroke="white" stroke-width="0.01375"/>
<path d="M26.9006 64.1223L26.8879 64.1301H28.5305L28.7268 64.8362H26.3147L25.9211 62.3577L26.9006 64.1223Z" fill="#002972" stroke="#002972" stroke-width="0.0275"/>
<path d="M19.6191 50.9167L16.9868 52.3051C16.9006 52.3505 16.7969 52.347 16.714 52.2958L13.1527 50.098C13.0569 50.0388 12.9347 50.0441 12.8443 50.1113L7.50812 54.0771C7.36858 54.1808 7.35909 54.3864 7.48848 54.5025L10.4018 57.117C10.5281 57.2304 10.5227 57.4299 10.3904 57.5361L9.1262 58.5513C9.00916 58.6453 8.98912 58.8158 9.08117 58.9344L9.60174 59.605C9.68026 59.7061 9.67858 59.8481 9.59767 59.9474L6.1634 64.1607C6.07158 64.2733 6.08326 64.4379 6.19006 64.5365L20.0831 77.3569C20.1745 77.4413 20.3113 77.4538 20.4165 77.3873L27.8015 72.7215C27.905 72.6561 27.9528 72.5302 27.9188 72.4126L26.1191 66.1944" stroke="white" stroke-width="1.1" stroke-linecap="round"/>
<path d="M16.0978 53.6061C16.1599 53.6454 16.1818 53.7291 16.1474 53.7955L15.543 54.9646C15.5004 55.0469 15.3935 55.062 15.3302 54.9949L13.2809 52.8213C13.1376 52.6695 12.9111 52.6522 12.7518 52.7811L11.0155 54.1859C10.8017 54.3588 10.8107 54.7027 11.0335 54.868L14.4234 57.3839C14.4819 57.4277 14.4983 57.5121 14.4604 57.5754L13.8619 58.5692C13.8167 58.6442 13.717 58.6564 13.6559 58.5937L9.69742 54.5231C9.63845 54.4624 9.64376 54.3617 9.70872 54.31L12.9586 51.7321C13.0017 51.6979 13.0602 51.6945 13.107 51.7238L16.0978 53.6061Z" fill="white" stroke="white" stroke-width="0.275"/>
<path d="M23.56 60.849C23.6067 61.0368 23.4403 61.2079 23.2512 61.1659L21.4426 60.763C21.3169 60.735 21.2291 60.6195 21.2361 60.4913L21.3855 57.7516C21.3943 57.5857 21.2618 57.4457 21.0956 57.4455L18.0453 57.4458C17.8445 57.4456 17.7175 57.2277 17.8165 57.0537L18.5328 55.7933C18.5839 55.7033 18.6842 55.6523 18.7875 55.6638L22.1863 56.0419C22.2957 56.0541 22.3867 56.1337 22.4132 56.2406L23.56 60.849Z" fill="white" stroke="white" stroke-width="0.0275"/>
<path d="M11.8171 58.7681C11.9061 58.6444 12.0817 58.6228 12.198 58.7212L13.0886 59.4741C13.188 59.5582 13.2107 59.7028 13.1414 59.813L10.3767 64.1978C10.3143 64.2967 10.3178 64.4237 10.3855 64.519L12.073 66.8843C12.0907 66.9092 12.1128 66.9316 12.1375 66.9497L22.0642 74.2524C22.2079 74.3582 22.2061 74.5744 22.0603 74.6772L20.6033 75.7046C20.5029 75.7753 20.3667 75.766 20.2761 75.6831L8.00952 64.4546C7.91206 64.3651 7.89709 64.2173 7.97437 64.1099L11.8171 58.7681ZM14.1287 60.3823L23.2351 61.938C23.34 61.956 23.4234 62.0362 23.446 62.1401L23.7 63.3042C23.7414 63.4955 23.5657 63.6629 23.3767 63.6118L19.4402 62.5474C19.3277 62.5171 19.2077 62.5568 19.1365 62.6489L18.1619 63.9097C18.0154 64.0994 18.1507 64.3744 18.3904 64.3745H23.7234C23.8439 64.3745 23.9489 64.4575 23.9773 64.5747L25.8279 72.2085C25.8552 72.3212 25.8053 72.4386 25.7048 72.4966L23.4353 73.8062C23.2612 73.9062 23.0438 73.7804 23.0437 73.5796V65.5747C23.0437 65.4009 22.891 65.2658 22.7185 65.2876L13.447 66.4585C13.349 66.4709 13.2521 66.4263 13.197 66.3442L12.1492 64.7817C12.0327 64.6082 12.157 64.3745 12.366 64.3745H16.4099L16.4128 64.3657L16.9343 62.8833C17.0003 62.6955 16.8609 62.4986 16.6619 62.4985H14.1326C13.9914 62.4985 13.8752 62.3867 13.8708 62.2456L13.824 60.6479C13.8191 60.4831 13.9661 60.3547 14.1287 60.3823Z" fill="white" stroke="white" stroke-width="0.0275"/>
<path d="M19.6689 50.3231L27.1426 50.8671C27.2695 50.8763 27.3016 51.0481 27.1865 51.1024L25.7959 51.7567C25.7762 51.766 25.7582 51.7801 25.7441 51.7968L23.7998 54.1053C23.7417 54.1742 23.6312 54.1595 23.5928 54.078L23.292 53.4393C23.2728 53.3986 23.236 53.3685 23.1924 53.3573L21.6309 52.9598C21.5098 52.9287 21.5061 52.7578 21.626 52.7216L24.0771 51.9794C24.0887 51.9759 24.1012 51.9745 24.1133 51.9745H24.4189C24.4811 51.9745 24.5378 51.9366 24.5605 51.8788L24.6719 51.5946C24.7078 51.5032 24.6481 51.4016 24.5508 51.3885L20.7754 50.8837C20.7436 50.8794 20.7108 50.885 20.6826 50.9003L19.083 51.7723C19.0351 51.7985 18.9754 51.7902 18.9365 51.7518L18.5049 51.3251C18.4509 51.2717 18.4575 51.1828 18.5186 51.1376L19.5859 50.3466C19.6097 50.329 19.6394 50.321 19.6689 50.3231Z" fill="white" stroke="white" stroke-width="0.0275"/>
<path d="M18.4354 53.2489C18.5529 53.1908 18.6718 53.3256 18.6086 53.4452L16.2465 57.8983C16.0967 58.1808 16.2892 58.5289 16.5951 58.5289L19.7732 58.5284C19.8468 58.5284 19.9063 58.5919 19.9063 58.6697L19.9064 59.9694C19.9064 60.0572 19.8312 60.1247 19.7495 60.11L15.0762 59.2661C14.9897 59.2504 14.9413 59.1519 14.9783 59.0675L17.2601 53.8656C17.2734 53.8352 17.2964 53.8105 17.325 53.7964L18.4354 53.2489Z" fill="white" stroke="white" stroke-width="0.275"/>
</svg>
