<svg width="54" height="85" viewBox="0 0 54 85" fill="none" xmlns="http://www.w3.org/2000/svg">
<path d="M0 2C0 0.89543 0.895431 0 2 0H52C53.1046 0 54 0.895431 54 2V83C54 84.1046 53.1046 85 52 85H2C0.895429 85 0 84.1046 0 83V2Z" fill="white"/>
<path d="M0 2C0 0.89543 0.895431 0 2 0H52C53.1046 0 54 0.895431 54 2V83C54 84.1046 53.1046 85 52 85H2C0.895429 85 0 84.1046 0 83V2Z" fill="white"/>
<path d="M5.99995 11.3354L48.5 33.3353" stroke="#0045E6"/>
<circle cx="37.5" cy="77.8354" r="5.5" fill="#E93434"/>
<path d="M49.6001 77.8354C49.6001 80.873 47.1377 83.3354 44.1001 83.3354C41.0625 83.3354 38.6001 80.873 38.6001 77.8354C38.6001 74.7979 41.0625 72.3354 44.1001 72.3354C47.1377 72.3354 49.6001 74.7979 49.6001 77.8354Z" fill="#FFB800"/>
<path fill-rule="evenodd" clip-rule="evenodd" d="M41.3501 82.5997C42.9941 81.6487 44.1001 79.8713 44.1001 77.8355C44.1001 75.7997 42.9941 74.0223 41.3501 73.0713C39.7061 74.0223 38.6001 75.7997 38.6001 77.8355C38.6001 79.8713 39.7061 81.6487 41.3501 82.5997Z" fill="#FF9D42"/>
<path d="M28 8.83545L29.4293 7.40616C29.4683 7.36711 29.5317 7.36711 29.5707 7.40616L31 8.83545" stroke="#40537F" stroke-width="0.2"/>
<rect x="23" y="10.3354" width="12" height="13" rx="1" fill="#FFDC83"/>
<path d="M5.95984 4.48013C5.95984 5.2977 5.29685 5.96027 4.48077 5.96027C3.66278 5.96027 3 5.2977 3 4.48013C3.00021 3.66341 3.66278 3 4.48098 3C5.29685 3 5.95984 3.66341 5.95984 4.48013Z" fill="white"/>
<path d="M4.48185 5.8904C5.25961 5.8904 5.89063 5.25938 5.89063 4.48036C5.89063 3.70175 5.25961 3.07031 4.48164 3.07031C3.70261 3.07031 3.07202 3.70154 3.07202 4.48036C3.07181 5.2596 3.70261 5.8904 4.48185 5.8904Z" fill="#004994"/>
<mask id="mask0_129_145" style="mask-type:luminance" maskUnits="userSpaceOnUse" x="3" y="3" width="3" height="3">
<path d="M4.48185 5.89035C5.25961 5.89035 5.89063 5.25933 5.89063 4.48094C5.89063 3.70234 5.25961 3.07153 4.48164 3.07153C3.70261 3.07153 3.07202 3.70234 3.07202 4.48094C3.07181 5.25955 3.70261 5.89035 4.48185 5.89035Z" fill="white"/>
</mask>
<g mask="url(#mask0_129_145)">
<path d="M4.49413 5.16051C5.11434 5.16051 5.64477 5.33372 5.87304 5.57872C5.94821 5.40445 5.99035 5.21027 5.99035 5.00847C5.99035 4.19916 5.32016 3.54443 4.49413 3.54443C3.66915 3.54443 2.99854 4.19938 2.99854 5.00911C2.99854 5.21091 3.04089 5.40402 3.11606 5.57872C3.3439 5.33372 3.87497 5.16051 4.49413 5.16051Z" fill="#004994"/>
<path d="M4.49401 5.16219C5.11274 5.16219 5.64169 5.33392 5.86954 5.57701C5.94471 5.40401 5.98663 5.21153 5.98663 5.01143C5.98663 4.20868 5.31814 3.55713 4.49422 3.55713C3.67157 3.55713 3.00244 4.2089 3.00244 5.01206C3.00244 5.21238 3.04458 5.40401 3.11975 5.57722C3.34675 5.33392 3.87655 5.16219 4.49401 5.16219Z" fill="#004994"/>
<path d="M4.49358 5.16372C5.11062 5.16372 5.6383 5.33397 5.86551 5.57515C5.94047 5.40364 5.98219 5.21285 5.98219 5.01402C5.98219 4.21762 5.31538 3.56946 4.49358 3.56946C3.67305 3.56946 3.00562 4.21805 3.00562 5.01465C3.00562 5.21327 3.04775 5.40342 3.12271 5.57515C3.34929 5.33418 3.8776 5.16372 4.49358 5.16372Z" fill="#004994"/>
<path d="M4.49343 5.16541C5.10899 5.16541 5.63519 5.33438 5.86176 5.57345C5.93651 5.40342 5.97822 5.21411 5.97822 5.01697C5.97822 4.22714 5.31312 3.58215 4.49343 3.58215C3.67502 3.58215 3.00928 4.22757 3.00928 5.01761C3.00928 5.21475 3.0512 5.4032 3.12616 5.57366C3.3521 5.33417 3.87915 5.16541 4.49343 5.16541Z" fill="#004994"/>
<path d="M4.49328 5.16682C5.10715 5.16682 5.63229 5.33431 5.85801 5.57147C5.93276 5.40271 5.97426 5.21509 5.97426 5.01944C5.97426 4.23617 5.31085 3.59436 4.49328 3.59436C3.67699 3.59436 3.01294 4.2366 3.01294 5.02007C3.01294 5.21552 3.05487 5.40271 3.1294 5.57147C3.35492 5.33431 3.88069 5.16682 4.49328 5.16682Z" fill="#004994"/>
<path d="M4.49313 5.1685C5.10552 5.1685 5.62917 5.33451 5.85426 5.56977C5.9288 5.40248 5.9703 5.21636 5.9703 5.02239C5.9703 4.24569 5.30858 3.60706 4.49313 3.60706C3.67896 3.60706 3.0166 4.24591 3.0166 5.02282C3.0166 5.21678 3.05832 5.40227 3.13285 5.56977C3.35773 5.33451 3.88202 5.1685 4.49313 5.1685Z" fill="#004994"/>
<path d="M4.49277 5.17006C5.10346 5.17006 5.62585 5.3348 5.85051 5.56794C5.92484 5.40214 5.96634 5.21749 5.96634 5.02523C5.96634 4.25488 5.30632 3.61963 4.49299 3.61963C3.68092 3.61963 3.02026 4.2553 3.02026 5.02565C3.02026 5.21792 3.06198 5.40193 3.1363 5.56794C3.36033 5.3348 3.88336 5.17006 4.49277 5.17006Z" fill="#004994"/>
<path d="M4.49284 5.17171C5.10204 5.17171 5.62295 5.33497 5.84698 5.5662C5.9213 5.40167 5.96238 5.21872 5.96238 5.02794C5.96238 4.26415 5.30405 3.63208 4.49284 3.63208C3.68268 3.63208 3.02393 4.26437 3.02393 5.02836C3.02393 5.21915 3.06543 5.40167 3.13975 5.5662C3.36315 5.33476 3.8849 5.17171 4.49284 5.17171Z" fill="#004994"/>
<path d="M4.49269 5.17315C5.1002 5.17315 5.61983 5.33493 5.84323 5.56426C5.91734 5.40121 5.95842 5.21974 5.95842 5.03065C5.95842 4.27343 5.30199 3.64453 4.49269 3.64453C3.68486 3.64453 3.02759 4.27364 3.02759 5.03107C3.02759 5.22016 3.06909 5.40121 3.14299 5.56447C3.36596 5.33493 3.88645 5.17315 4.49269 5.17315Z" fill="#004994"/>
<path d="M4.49254 5.17468C5.09835 5.17468 5.61672 5.33498 5.83948 5.5624C5.91338 5.40083 5.95446 5.22085 5.95446 5.03324C5.95446 4.28258 5.29973 3.65686 4.49254 3.65686C3.68683 3.65686 3.03125 4.28279 3.03125 5.03366C3.03125 5.22127 3.07254 5.40062 3.14644 5.5624C3.36899 5.33519 3.88778 5.17468 4.49254 5.17468Z" fill="#004994"/>
<path d="M4.49214 5.17637C5.09648 5.17637 5.61336 5.33539 5.83548 5.56069C5.90939 5.4004 5.95025 5.22211 5.95025 5.03619C5.95025 4.2921 5.29722 3.66956 4.49214 3.66956C3.68855 3.66956 3.03467 4.29231 3.03467 5.03661C3.03467 5.22253 3.07596 5.40061 3.14965 5.56091C3.37156 5.33539 3.88908 5.17637 4.49214 5.17637Z" fill="#004994"/>
<path d="M4.49203 5.1779C5.09467 5.1779 5.61049 5.33544 5.83198 5.55884C5.90567 5.40002 5.94654 5.22321 5.94654 5.03878C5.94654 4.30104 5.29519 3.68188 4.49224 3.68188C3.69076 3.68188 3.03857 4.30147 3.03857 5.03899C3.03857 5.22342 3.07965 5.39981 3.15334 5.55863C3.37441 5.33544 3.89066 5.1779 4.49203 5.1779Z" fill="#004994"/>
<path d="M4.49184 5.17958C5.093 5.17958 5.60734 5.33564 5.8282 5.55713C5.90168 5.3998 5.94233 5.22447 5.94233 5.04173C5.94233 4.31056 5.29268 3.69458 4.49184 3.69458C3.69249 3.69458 3.04199 4.31077 3.04199 5.04195C3.04199 5.22469 3.08307 5.39959 3.15634 5.55713C3.37719 5.33564 3.89196 5.17958 4.49184 5.17958Z" fill="#004994"/>
<path d="M4.4917 5.18102C5.09116 5.18102 5.60423 5.33581 5.82445 5.55519C5.89793 5.39913 5.93837 5.22549 5.93837 5.04444C5.93837 4.31984 5.29042 3.70703 4.4917 3.70703C3.69446 3.70703 3.04565 4.32005 3.04565 5.04466C3.04565 5.22591 3.08652 5.39913 3.15979 5.55519C3.38001 5.33581 3.8935 5.18102 4.4917 5.18102Z" fill="#004994"/>
<path d="M4.4913 5.1828C5.08928 5.1828 5.60087 5.3361 5.82046 5.55357C5.89372 5.39899 5.93417 5.22684 5.93417 5.04728C5.93417 4.32923 5.2879 3.7196 4.4913 3.7196C3.69618 3.7196 3.04907 4.32944 3.04907 5.04749C3.04907 5.22705 3.08994 5.39899 3.16299 5.55357C3.38258 5.3361 3.8948 5.1828 4.4913 5.1828Z" fill="#004994"/>
<path d="M4.49118 5.18424C5.08747 5.18424 5.59779 5.33606 5.81695 5.55162C5.89001 5.39853 5.93045 5.22786 5.93045 5.04999C5.93045 4.33851 5.28588 3.73206 4.4914 3.73206C3.69839 3.73206 3.05298 4.33851 3.05298 5.0502C3.05298 5.22828 3.09363 5.39853 3.16648 5.55162C3.38543 5.33606 3.89617 5.18424 4.49118 5.18424Z" fill="#004994"/>
<path d="M4.49104 5.18589C5.08584 5.18589 5.59468 5.33644 5.8132 5.54989C5.88626 5.39806 5.92628 5.22909 5.92628 5.0527C5.92628 4.34757 5.2834 3.74451 4.49104 3.74451C3.70015 3.74451 3.05664 4.34778 3.05664 5.05291C3.05664 5.2293 3.0973 5.39806 3.16993 5.54989C3.38824 5.33623 3.89771 5.18589 4.49104 5.18589Z" fill="#004994"/>
<path d="M4.49064 5.18745C5.08375 5.18745 5.59153 5.33652 5.80921 5.54806C5.88205 5.39772 5.92207 5.23022 5.92207 5.05553C5.92207 4.35697 5.28089 3.75708 4.49064 3.75708C3.70187 3.75708 3.06006 4.35718 3.06006 5.05574C3.06006 5.23065 3.1005 5.39793 3.17313 5.54827C3.39081 5.33652 3.89901 5.18745 4.49064 5.18745Z" fill="#004994"/>
<path d="M4.49074 5.18914C5.08237 5.18914 5.58866 5.33673 5.8057 5.54636C5.87833 5.3975 5.91835 5.23149 5.91835 5.05849C5.91835 4.36649 5.27908 3.76978 4.49074 3.76978C3.70409 3.76978 3.06396 4.3667 3.06396 5.0587C3.06396 5.23191 3.10441 5.39771 3.17683 5.54657C3.39366 5.33673 3.90038 5.18914 4.49074 5.18914Z" fill="#004994"/>
<path d="M4.49059 5.19054C5.08052 5.19054 5.58555 5.33665 5.80195 5.54438C5.87458 5.39679 5.91439 5.23247 5.91439 5.06095C5.91439 4.37552 5.27681 3.78198 4.49059 3.78198C3.70605 3.78198 3.06763 4.37552 3.06763 5.06095C3.06763 5.23268 3.10786 5.39679 3.18007 5.54438C3.39647 5.33665 3.90192 5.19054 4.49059 5.19054Z" fill="#004994"/>
<path d="M4.49023 5.19211C5.07847 5.19211 5.58222 5.33694 5.79821 5.54255C5.87062 5.39644 5.91043 5.23361 5.91043 5.06379C5.91043 4.38491 5.27455 3.79456 4.49044 3.79456C3.70802 3.79456 3.07129 4.38491 3.07129 5.06379C3.07129 5.23382 3.11152 5.39666 3.18352 5.54255C3.39908 5.33694 3.90325 5.19211 4.49023 5.19211Z" fill="#004994"/>
<path d="M4.49004 5.19376C5.0768 5.19376 5.57907 5.33711 5.79442 5.54082C5.86663 5.39619 5.90623 5.23484 5.90623 5.0665C5.90623 4.39398 5.27204 3.80701 4.49004 3.80701C3.70975 3.80701 3.07471 4.39419 3.07471 5.0665C3.07471 5.23505 3.11473 5.39619 3.18672 5.54082C3.40207 5.33711 3.90456 5.19376 4.49004 5.19376Z" fill="#004994"/>
<path d="M4.48989 5.1952C5.07496 5.1952 5.57596 5.33707 5.79067 5.53887C5.86267 5.39551 5.90227 5.23585 5.90227 5.06921C5.90227 4.40325 5.26977 3.81946 4.48989 3.81946C3.71171 3.81946 3.07837 4.40346 3.07837 5.06921C3.07837 5.23607 3.11839 5.39573 3.19017 5.53887C3.40489 5.33728 3.9061 5.1952 4.48989 5.1952Z" fill="#004994"/>
<path d="M4.48975 5.19697C5.07333 5.19697 5.57285 5.33757 5.78693 5.53725C5.85892 5.39538 5.89831 5.2372 5.89831 5.07204C5.89831 4.41265 5.2675 3.83203 4.48975 3.83203C3.71368 3.83203 3.08203 4.41265 3.08203 5.07204C3.08203 5.23742 3.12184 5.39559 3.19341 5.53725C3.4077 5.33736 3.90764 5.19697 4.48975 5.19697Z" fill="#004994"/>
<path d="M4.48935 5.19844C5.07124 5.19844 5.5697 5.33756 5.78293 5.53555C5.85472 5.39516 5.8941 5.23846 5.8941 5.07499C5.8941 4.42217 5.26499 3.84473 4.48935 3.84473C3.71541 3.84473 3.08545 4.42217 3.08545 5.07499C3.08545 5.23868 3.12526 5.39537 3.19662 5.53555C3.41027 5.33756 3.90873 5.19844 4.48935 5.19844Z" fill="#004994"/>
<path d="M4.48923 5.20013C5.06964 5.20013 5.56662 5.33777 5.77943 5.53385C5.851 5.39473 5.89039 5.23973 5.89039 5.07795C5.89039 4.43148 5.26297 3.85742 4.48945 3.85742C3.71762 3.85742 3.08936 4.43169 3.08936 5.07795C3.08936 5.24015 3.12895 5.39515 3.20031 5.53406C3.41312 5.33777 3.91031 5.20013 4.48923 5.20013Z" fill="#004994"/>
<path d="M4.48905 5.20154C5.06777 5.20154 5.56347 5.33769 5.77565 5.53187C5.84722 5.39423 5.88618 5.24071 5.88618 5.08042C5.88618 4.44051 5.26046 3.86963 4.48905 3.86963C3.71955 3.86963 3.09277 4.44072 3.09277 5.0802C3.09277 5.24071 3.13237 5.39423 3.20352 5.53187C3.4159 5.3379 3.91182 5.20154 4.48905 5.20154Z" fill="#004994"/>
<path d="M4.4889 5.20334C5.06613 5.20334 5.56036 5.33823 5.7719 5.53028C5.84326 5.39413 5.88222 5.24209 5.88222 5.08349C5.88222 4.45015 5.25819 3.88245 4.4889 3.88245C3.72152 3.88245 3.09644 4.45015 3.09644 5.08328C3.09644 5.2423 3.13582 5.39434 3.20676 5.53028C3.41872 5.33802 3.91316 5.20334 4.4889 5.20334Z" fill="#004994"/>
<path d="M4.48851 5.20475C5.06405 5.20475 5.557 5.33815 5.7679 5.5283C5.83905 5.39342 5.87801 5.24308 5.87801 5.08596C5.87801 4.45918 5.25589 3.89465 4.48851 3.89465C3.72325 3.89465 3.09985 4.45918 3.09985 5.08575C3.09985 5.24308 3.13924 5.39363 3.20996 5.5283C3.42129 5.33815 3.91446 5.20475 4.48851 5.20475Z" fill="#004994"/>
<path d="M4.48864 5.20643C5.06269 5.20643 5.55416 5.33836 5.76464 5.5266C5.83579 5.3932 5.87454 5.24434 5.87454 5.08891C5.87454 4.4687 5.25411 3.90735 4.48885 3.90735C3.7257 3.90735 3.104 4.4687 3.104 5.0887C3.104 5.24455 3.14318 5.39341 3.2139 5.5266C3.42417 5.33836 3.91607 5.20643 4.48864 5.20643Z" fill="#004994"/>
<path d="M4.48846 5.20796C5.06082 5.20796 5.55123 5.33861 5.76086 5.52474C5.8318 5.39282 5.87034 5.24544 5.87034 5.0915C5.87034 4.47764 5.2516 3.91968 4.48846 3.91968C3.72743 3.91968 3.10742 4.47785 3.10742 5.09129C3.10742 5.24544 3.14638 5.39303 3.21711 5.52474C3.42695 5.33861 3.91758 5.20796 4.48846 5.20796Z" fill="#004994"/>
<path d="M4.48831 5.2094C5.05918 5.2094 5.54811 5.33857 5.75711 5.52279C5.82784 5.39215 5.86637 5.24646 5.86637 5.09421C5.86637 4.48691 5.24934 3.93213 4.48831 3.93213C3.72939 3.93213 3.11108 4.48691 3.11108 5.094C3.11108 5.24667 3.15005 5.39257 3.22035 5.52279C3.42977 5.33857 3.91891 5.2094 4.48831 5.2094Z" fill="#004994"/>
<path d="M4.48814 5.21304C5.05817 5.21304 5.54647 5.34137 5.75525 5.52432C5.82598 5.39451 5.86452 5.24989 5.86452 5.09849C5.86452 4.49521 5.24832 3.9436 4.48835 3.9436C3.73029 3.9436 3.11304 4.49521 3.11304 5.09828C3.11304 5.24989 3.152 5.39494 3.2223 5.52432C3.43109 5.34137 3.91959 5.21304 4.48814 5.21304Z" fill="#004994"/>
<path d="M4.48816 5.21656C5.05734 5.21656 5.545 5.34404 5.75357 5.52572C5.82409 5.39676 5.86263 5.2532 5.86263 5.10285C5.86263 4.50339 5.24728 3.95496 4.48816 3.95496C3.73115 3.95496 3.11475 4.50339 3.11475 5.10243C3.11475 5.25298 3.1535 5.39697 3.2238 5.52572C3.43258 5.34404 3.92024 5.21656 4.48816 5.21656Z" fill="#004994"/>
<path d="M4.48817 5.22023C5.05672 5.22023 5.54375 5.34686 5.7519 5.52748C5.82241 5.39938 5.86073 5.25666 5.86073 5.10737C5.86073 4.51193 5.24624 3.96667 4.48817 3.96667C3.73222 3.96667 3.11646 4.51193 3.11646 5.10716C3.11646 5.25687 3.15521 5.3998 3.22529 5.5277C3.43387 5.34707 3.92111 5.22023 4.48817 5.22023Z" fill="white"/>
<path d="M4.48819 5.22387C5.05589 5.22387 5.54228 5.34965 5.75 5.52901C5.82031 5.40174 5.85863 5.26008 5.85863 5.11165C5.85863 4.52002 5.24477 3.97815 4.48797 3.97815C3.73309 3.97815 3.11816 4.52023 3.11816 5.11144C3.11816 5.26008 3.15691 5.40217 3.22679 5.52922C3.43537 5.34987 3.92197 5.22387 4.48819 5.22387Z" fill="white"/>
<path d="M4.48827 5.22739C5.05512 5.22739 5.54088 5.35232 5.74839 5.53062C5.81848 5.4042 5.85702 5.26339 5.85702 5.11601C5.85702 4.52841 5.244 3.9895 4.48827 3.9895C3.73422 3.9895 3.12036 4.52819 3.12036 5.11559C3.12036 5.26339 3.15911 5.4042 3.22878 5.53041C3.43672 5.35254 3.92268 5.22739 4.48827 5.22739Z" fill="white"/>
<path d="M4.48831 5.23103C5.05453 5.23103 5.53965 5.35533 5.74674 5.53214C5.81683 5.40657 5.85516 5.26682 5.85516 5.12029C5.85516 4.53649 5.24299 4.00098 4.48831 4.00098C3.73533 4.00098 3.12231 4.53649 3.12231 5.11986C3.12231 5.26661 3.16085 5.40657 3.23073 5.53193C3.43825 5.35533 3.92358 5.23103 4.48831 5.23103Z" fill="white"/>
<path d="M4.48812 5.23458C5.05349 5.23458 5.53797 5.35803 5.74485 5.53357C5.81473 5.40885 5.85306 5.26994 5.85306 5.12468C5.85306 4.54491 5.24174 4.01257 4.48812 4.01257C3.73619 4.01257 3.12402 4.54491 3.12402 5.12447C3.12402 5.27016 3.16256 5.40928 3.23223 5.53379C3.43953 5.35803 3.92423 5.23458 4.48812 5.23458Z" fill="white"/>
<path d="M4.4882 5.23825C5.05272 5.23825 5.53657 5.36086 5.74324 5.53534C5.81312 5.41147 5.85144 5.27362 5.85144 5.1292C5.85144 4.55324 5.24097 4.02429 4.48841 4.02429C3.73733 4.02429 3.12622 4.55346 3.12622 5.12899C3.12622 5.27383 3.16476 5.41168 3.23421 5.53555C3.44088 5.36086 3.92494 5.23825 4.4882 5.23825Z" fill="white"/>
<path d="M4.48818 5.24186C5.05207 5.24186 5.53528 5.36362 5.74153 5.53683C5.81119 5.4138 5.84952 5.2768 5.84952 5.13345C5.84952 4.56151 5.23989 4.03552 4.48818 4.03552C3.73816 4.03552 3.12769 4.56151 3.12769 5.13323C3.12769 5.27701 3.16622 5.41401 3.23547 5.53704C3.44235 5.36362 3.92577 5.24186 4.48818 5.24186Z" fill="white"/>
<path d="M4.48823 5.24541C5.05127 5.24541 5.53385 5.36632 5.73988 5.53847C5.80934 5.41629 5.84766 5.28035 5.84766 5.13784C5.84766 4.56972 5.23888 4.04712 4.48823 4.04712C3.73927 4.04712 3.12964 4.56993 3.12964 5.13763C3.12964 5.28035 3.16797 5.41629 3.23742 5.53847C3.44366 5.36632 3.92645 5.24541 4.48823 5.24541Z" fill="white"/>
<path d="M4.48827 5.24896C5.05047 5.24896 5.53241 5.36902 5.73802 5.53991C5.80748 5.41836 5.8458 5.28369 5.8458 5.14224C5.8458 4.57814 5.23787 4.05872 4.48827 4.05872C3.74037 4.05872 3.13159 4.57814 3.13159 5.14203C3.13159 5.2839 3.16992 5.41879 3.23916 5.54012C3.44519 5.36902 3.92735 5.24896 4.48827 5.24896Z" fill="white"/>
<path d="M4.48808 5.25257C5.04964 5.25257 5.53073 5.37179 5.73613 5.5414C5.80537 5.4207 5.8437 5.28687 5.8437 5.14648C5.8437 4.5864 5.23661 4.06995 4.48808 4.06995C3.74102 4.06995 3.1333 4.58619 3.1333 5.14606C3.1333 5.28687 3.17163 5.42091 3.24066 5.5414C3.44627 5.37179 3.928 5.25257 4.48808 5.25257Z" fill="white"/>
<path d="M4.48812 5.25624C5.04884 5.25624 5.52951 5.37461 5.73449 5.54316C5.80373 5.42331 5.84184 5.29055 5.84184 5.151C5.84184 4.59474 5.23539 4.08167 4.48812 4.08167C3.74213 4.08167 3.13525 4.59474 3.13525 5.15079C3.13525 5.29076 3.17358 5.42352 3.2424 5.54338C3.4478 5.37461 3.92868 5.25624 4.48812 5.25624Z" fill="white"/>
<path d="M4.48814 5.25976C5.04801 5.25976 5.52804 5.37749 5.73281 5.54456C5.80184 5.42556 5.83995 5.29364 5.83995 5.15516C5.83995 4.60291 5.23435 4.09302 4.48814 4.09302C3.7432 4.09302 3.13696 4.60291 3.13696 5.15494C3.13696 5.29385 3.17508 5.42577 3.2439 5.54478C3.44929 5.37728 3.92954 5.25976 4.48814 5.25976Z" fill="white"/>
<path d="M4.48819 5.2634C5.04742 5.2634 5.52661 5.38029 5.73116 5.54609C5.79998 5.42793 5.8383 5.29707 5.8383 5.15964C5.8383 4.61121 5.23355 4.10449 4.48819 4.10449C3.7441 4.10449 3.13892 4.61121 3.13892 5.15922C3.13892 5.29707 3.17703 5.42814 3.24585 5.54609C3.45061 5.38007 3.93023 5.2634 4.48819 5.2634Z" fill="white"/>
<path d="M4.48823 5.26707C5.04662 5.26707 5.52539 5.38311 5.72951 5.54785C5.79833 5.43054 5.83645 5.30053 5.83645 5.16416C5.83645 4.61975 5.23254 4.11621 4.48823 4.11621C3.7452 4.11621 3.14087 4.61954 3.14087 5.16374C3.14087 5.30074 3.17898 5.43054 3.24759 5.54785C3.45214 5.3829 3.93112 5.26707 4.48823 5.26707Z" fill="white"/>
<path d="M4.48828 5.27047C5.04582 5.27047 5.52395 5.38566 5.72787 5.54913C5.79647 5.43267 5.83459 5.30371 5.83459 5.16819C5.83459 4.62759 5.23152 4.12744 4.48828 4.12744C3.74631 4.12744 3.14282 4.62759 3.14282 5.16798C3.14282 5.30392 3.18094 5.43288 3.24933 5.54934C3.45346 5.38566 3.93201 5.27068 4.48828 5.27047Z" fill="white"/>
<path d="M4.48809 5.27402C5.04499 5.27402 5.52227 5.38836 5.72576 5.55078C5.79437 5.43516 5.83249 5.30705 5.83249 5.17259C5.83249 4.63602 5.23027 4.13904 4.48809 4.13904C3.74717 4.13904 3.14453 4.63602 3.14453 5.17238C3.14453 5.30726 3.18265 5.43537 3.25083 5.55099C3.45475 5.38836 3.93245 5.27423 4.48809 5.27402Z" fill="white"/>
<path d="M4.48813 5.27766C5.04419 5.27766 5.52105 5.39116 5.72412 5.5523C5.79251 5.43753 5.83063 5.31048 5.83063 5.17708C5.83063 4.64431 5.22926 4.15051 4.48813 4.15051C3.74807 4.15051 3.14648 4.64431 3.14648 5.17665C3.14648 5.31069 3.18439 5.43753 3.25278 5.55251C3.45627 5.39116 3.93335 5.27787 4.48813 5.27766Z" fill="white"/>
<path d="M4.48815 5.28118C5.04336 5.28118 5.51958 5.39383 5.72244 5.5537C5.79083 5.43978 5.82874 5.31379 5.82874 5.18123C5.82874 4.65249 5.22821 4.16187 4.48815 4.16187C3.74914 4.16187 3.14819 4.65249 3.14819 5.18102C3.14819 5.314 3.1861 5.43999 3.25428 5.55412C3.45756 5.39404 3.93421 5.28139 4.48815 5.28118Z" fill="white"/>
<path d="M4.48819 5.28485C5.04277 5.28485 5.51815 5.39665 5.72079 5.55546C5.78898 5.44239 5.82709 5.31725 5.82709 5.18575C5.82709 4.66082 5.22741 4.17358 4.48819 4.17358C3.75025 4.17358 3.15015 4.66103 3.15015 5.18554C3.15015 5.31746 3.18805 5.4426 3.25602 5.55568C3.45909 5.39686 3.93489 5.28506 4.48819 5.28485Z" fill="white"/>
<path d="M4.48824 5.28846C5.04197 5.28846 5.51692 5.39941 5.71914 5.55695C5.78712 5.44473 5.82523 5.32064 5.82523 5.18999C5.82523 4.66909 5.2264 4.18481 4.48824 4.18481C3.75114 4.18481 3.1521 4.66887 3.1521 5.18957C3.1521 5.32064 3.19 5.44452 3.25776 5.55695C3.46041 5.39962 3.93579 5.28867 4.48824 5.28846Z" fill="white"/>
<path d="M4.48829 5.29197C5.04117 5.29197 5.51549 5.40229 5.7175 5.55835C5.78547 5.44697 5.82337 5.32374 5.82337 5.19414C5.82337 4.67705 5.22518 4.19617 4.48829 4.19617C3.75225 4.19617 3.15405 4.67705 3.15405 5.19393C3.15405 5.32395 3.19174 5.44697 3.2595 5.55857C3.46194 5.40229 3.93647 5.29218 4.48829 5.29197Z" fill="white"/>
<path d="M4.48809 5.29556C5.04034 5.29556 5.51381 5.40503 5.71561 5.56003C5.78337 5.4495 5.82127 5.32732 5.82127 5.19879C5.82127 4.68572 5.22392 4.20801 4.48809 4.20801C3.75311 4.20801 3.15576 4.68572 3.15576 5.19857C3.15576 5.32774 3.19345 5.44971 3.26121 5.56046C3.46322 5.40503 3.93712 5.29577 4.48809 5.29556Z" fill="white"/>
<path d="M4.48814 5.29916C5.03954 5.29916 5.51259 5.40779 5.71375 5.56152C5.78151 5.45162 5.81941 5.3305 5.81941 5.20303C5.81941 4.69377 5.22291 4.21924 4.48814 4.21924C3.75421 4.21924 3.15771 4.69377 3.15771 5.20261C3.15771 5.33071 3.19541 5.45162 3.26295 5.56173C3.46454 5.40779 3.93801 5.29938 4.48814 5.29916Z" fill="white"/>
<path d="M4.48816 5.30284C5.0387 5.30284 5.51112 5.41062 5.71207 5.56329C5.77962 5.45424 5.81752 5.33417 5.81752 5.20755C5.81752 4.70231 5.22187 4.23096 4.48816 4.23096C3.75508 4.23096 3.15942 4.70231 3.15942 5.20712C3.15942 5.33417 3.19712 5.45424 3.26445 5.56329C3.46604 5.41062 3.93866 5.30305 4.48816 5.30284Z" fill="white"/>
<path d="M4.48817 5.30635C5.03808 5.30635 5.50965 5.41329 5.71039 5.56469C5.77773 5.45648 5.81563 5.33727 5.81563 5.2117C5.81563 4.71028 5.22082 4.24231 4.48796 4.24231C3.75594 4.24231 3.16113 4.71049 3.16113 5.21149C3.16113 5.33769 3.19861 5.4567 3.26595 5.5649C3.46732 5.41329 3.93953 5.30657 4.48817 5.30635Z" fill="white"/>
<path d="M4.48825 5.31003C5.03732 5.31003 5.50846 5.41611 5.70878 5.56624C5.77611 5.45889 5.81402 5.34073 5.81402 5.21622C5.81402 4.71882 5.22006 4.25403 4.48825 4.25403C3.75729 4.25403 3.16333 4.71882 3.16333 5.21601C3.16333 5.34115 3.20081 5.4591 3.26815 5.56667C3.46889 5.41611 3.94045 5.31024 4.48825 5.31003Z" fill="white"/>
<path d="M4.4883 5.31367C5.03652 5.31367 5.50703 5.41891 5.70713 5.56798C5.77425 5.46147 5.81216 5.34437 5.81216 5.22071C5.81216 4.72712 5.21905 4.2655 4.4883 4.2655C3.75818 4.2655 3.16528 4.72712 3.16528 5.22028C3.16528 5.34437 3.20276 5.46147 3.26989 5.56819C3.47041 5.41891 3.94114 5.31388 4.4883 5.31367Z" fill="white"/>
<path d="M4.4881 5.31718C5.03569 5.31718 5.50535 5.42158 5.70524 5.56938C5.77236 5.46371 5.81006 5.34746 5.81006 5.22486C5.81006 4.73529 5.21779 4.27686 4.4881 4.27686C3.75905 4.27686 3.16699 4.73529 3.16699 5.22465C3.16699 5.34789 3.20447 5.46371 3.27138 5.5698C3.47149 5.42158 3.94179 5.31739 4.4881 5.31718Z" fill="white"/>
<path d="M4.48818 5.32086C5.03492 5.32086 5.50395 5.42461 5.70363 5.57114C5.77054 5.46633 5.80844 5.35114 5.80844 5.22938C5.80844 4.74362 5.21702 4.28857 4.48839 4.28857C3.7604 4.28857 3.16919 4.74384 3.16919 5.22917C3.16919 5.35135 3.20646 5.46633 3.27337 5.57157C3.47305 5.4244 3.9425 5.32107 4.48818 5.32086Z" fill="white"/>
</g>
<path d="M4.4814 4.8363C4.00306 4.8363 3.55923 4.91762 3.19312 5.05525C3.41312 5.54757 3.90671 5.8904 4.48183 5.8904C5.05588 5.8904 5.54862 5.54715 5.76927 5.05525C5.40315 4.91762 4.95869 4.8363 4.4814 4.8363Z" fill="#004994"/>
<path d="M6.34375 4.90192H7.2763V5.7053H7.64114V4.90192H8.5739V4.67493H6.34375V4.90192Z" fill="#004994"/>
<path d="M6.88949 4.29588C6.96212 4.35178 7.04766 4.39625 7.14443 4.42886C7.2412 4.46105 7.34687 4.47756 7.45867 4.47756C7.56878 4.47756 7.67381 4.46105 7.77015 4.42886C7.86692 4.39646 7.95268 4.35157 8.02552 4.29588C8.09816 4.23786 8.1566 4.1701 8.19937 4.0943C8.24193 4.01785 8.26374 3.93506 8.26374 3.84761C8.26374 3.76227 8.24193 3.68011 8.19937 3.60346C8.1566 3.52765 8.09837 3.45989 8.02531 3.40187C7.95289 3.34618 7.86714 3.30108 7.77058 3.26784C7.67423 3.23459 7.5692 3.21765 7.45888 3.21765C7.34665 3.21765 7.24099 3.23438 7.14465 3.26784C7.04788 3.30108 6.96212 3.3464 6.88949 3.40209C6.81664 3.45968 6.75863 3.52744 6.71691 3.60367C6.6752 3.68011 6.65381 3.76206 6.65381 3.8474C6.65381 3.93485 6.6752 4.01764 6.71691 4.09408C6.75841 4.1701 6.81664 4.23786 6.88949 4.29588ZM7.01865 3.84761C7.01865 3.79488 7.0303 3.743 7.05317 3.69451C7.07625 3.6456 7.10801 3.60261 7.14761 3.56662C7.187 3.52892 7.23379 3.49886 7.28673 3.47705C7.33967 3.45566 7.39769 3.44465 7.45867 3.44465C7.51796 3.44465 7.57471 3.45566 7.62786 3.47705C7.6808 3.49886 7.7278 3.52892 7.76719 3.56683C7.80658 3.60282 7.83876 3.6456 7.8629 3.69472C7.88662 3.74343 7.89848 3.79488 7.89848 3.84761C7.89848 3.90224 7.88662 3.95454 7.8629 4.00346C7.83876 4.05237 7.80679 4.09514 7.76698 4.13135C7.72738 4.16926 7.68058 4.1989 7.62786 4.21944C7.52029 4.26137 7.39049 4.26031 7.28652 4.21944C7.23358 4.1989 7.18678 4.16926 7.14719 4.13135C7.10759 4.09514 7.07583 4.05237 7.05296 4.00346C7.0303 3.95475 7.01865 3.90224 7.01865 3.84761Z" fill="#004994"/>
<path d="M10.5566 3.26062H10.2727L10.29 3.28201C10.297 3.2909 10.3013 3.30022 10.3027 3.31144C10.3112 3.34596 10.315 3.40059 10.315 3.47385V4.60523C10.315 4.67596 10.2737 4.72339 10.1888 4.75007C10.1607 4.75875 10.1162 4.76489 10.0569 4.76828H9.28316C9.24187 4.76828 9.22895 4.75896 9.2245 4.75325C9.21603 4.74266 9.2118 4.72508 9.2118 4.70179V4.25055H9.88029C9.92031 4.25055 9.94742 4.2425 9.96288 4.2262C9.97812 4.21053 9.98596 4.18618 9.98596 4.15442V3.42854C9.98596 3.39656 9.9777 3.37242 9.96139 3.35612C9.94488 3.34024 9.91756 3.3324 9.87775 3.3324H8.83446V3.5594H9.62111V4.02356H8.80884L8.83277 4.07332C8.84251 4.1019 8.84738 4.13727 8.84738 4.17834V4.82948C8.84738 4.87034 8.86178 4.90592 8.88951 4.93493C8.92784 4.97495 8.98967 4.99506 9.07353 4.99506H9.98617L10.1306 4.98956C10.217 4.98067 10.278 4.965 10.3157 4.9417V5.67817H10.6805V3.3593C10.6801 3.31525 10.6587 3.26316 10.5566 3.26062Z" fill="#004994"/>
<path d="M12.9808 3.35379C12.9808 3.31123 12.9594 3.26062 12.8573 3.26062H12.5774L12.6011 3.30953C12.6108 3.34511 12.6159 3.39953 12.6159 3.47131V5.67817H12.9808V4.25839H13.324V4.03181H12.9808V3.35379Z" fill="#004994"/>
<path d="M12.2323 3.3324H11.1223V3.55664L11.9323 3.55643C11.9388 3.55791 11.9443 3.56045 11.9486 3.56299C11.9486 3.56299 11.9507 3.5668 11.9475 3.58247C11.9382 3.72668 11.9107 3.86241 11.8649 3.98903H11.1352V4.21603H11.7582C11.6041 4.47669 11.3582 4.69204 11.0224 4.8606L11.009 4.86737L11.1098 5.02492L11.1198 5.02132C11.9265 4.74308 12.3365 4.20608 12.338 3.42599C12.3378 3.38301 12.3193 3.3324 12.2323 3.3324Z" fill="#004994"/>
<path d="M13.6776 3.45752C13.6907 3.49119 13.6971 3.53015 13.6971 3.57272V4.40532C13.6971 4.45317 13.7147 4.49595 13.7494 4.53215C13.7945 4.57916 13.8623 4.60288 13.9512 4.60288H15.3915V4.37609H14.1306C14.0831 4.37609 14.0619 4.35704 14.0619 4.31469V3.62608H15.3788V3.39929H13.6401L13.656 3.42068C13.6675 3.43508 13.6744 3.44757 13.6776 3.45752Z" fill="#004994"/>
<path d="M15.6532 5.18713H13.4231V5.41413H15.6532V5.18713Z" fill="#004994"/>
<path d="M37.29 4.185C37.32 4.185 37.3408 4.19083 37.3525 4.2025C37.3642 4.2125 37.3742 4.23583 37.3825 4.2725L37.675 5.535L37.965 4.305C37.9683 4.295 37.9717 4.28167 37.975 4.265C37.9783 4.24833 37.98 4.235 37.98 4.225C37.98 4.21667 37.975 4.20333 37.965 4.185H38.245C38.2883 4.185 38.31 4.20083 38.31 4.2325C38.31 4.24417 38.3075 4.25833 38.3025 4.275L37.8725 6H37.5L37.1875 4.6675L36.8775 6H36.51L36.0675 4.2575C36.0592 4.22583 36.0433 4.20167 36.02 4.185H36.3175C36.3492 4.185 36.3717 4.19083 36.385 4.2025C36.3983 4.2125 36.4092 4.23583 36.4175 4.2725L36.7125 5.525L36.9925 4.315C36.9958 4.29667 36.9992 4.28 37.0025 4.265C37.0058 4.24833 37.0075 4.23583 37.0075 4.2275C37.0075 4.2175 37.0025 4.20333 36.9925 4.185H37.29ZM39.3688 5.25H38.5213V5H39.3688V5.25ZM39.7473 4.3525C39.7473 4.32917 39.7456 4.30167 39.7423 4.27C39.7406 4.23667 39.7315 4.20833 39.7148 4.185H39.9773C40.0573 4.185 40.0973 4.2125 40.0973 4.2675V5.285C40.0973 5.35333 40.1015 5.42083 40.1098 5.4875C40.1181 5.5525 40.1356 5.61083 40.1623 5.6625C40.1906 5.71417 40.2298 5.75583 40.2798 5.7875C40.3298 5.81917 40.3965 5.835 40.4798 5.835C40.5598 5.835 40.6248 5.82 40.6748 5.79C40.7248 5.75833 40.764 5.7175 40.7923 5.6675C40.8206 5.6175 40.8398 5.56 40.8498 5.495C40.8598 5.42833 40.8648 5.36 40.8648 5.29V4.3525C40.8648 4.3275 40.8631 4.29917 40.8598 4.2675C40.8565 4.23417 40.8473 4.20667 40.8323 4.185H41.0923C41.1723 4.185 41.2123 4.2125 41.2123 4.2675V5.27C41.2123 5.78 40.9681 6.035 40.4798 6.035C40.2298 6.035 40.0448 5.9725 39.9248 5.8475C39.8065 5.7225 39.7473 5.53 39.7473 5.27V4.3525ZM42.7602 5.4725V4.3525C42.7602 4.3275 42.7585 4.29917 42.7552 4.2675C42.7535 4.23583 42.7452 4.20833 42.7302 4.185H42.9902C43.0702 4.185 43.1102 4.21333 43.1102 4.27V6H42.6927L41.9602 4.5725V6H41.6102V4.355C41.6102 4.33 41.6085 4.30083 41.6052 4.2675C41.6018 4.23417 41.5927 4.20667 41.5777 4.185L42.0427 4.185C42.0593 4.185 42.0727 4.18667 42.0827 4.19C42.0927 4.19167 42.101 4.19583 42.1077 4.2025C42.1143 4.20917 42.1202 4.21833 42.1252 4.23C42.1318 4.24167 42.1393 4.25583 42.1477 4.2725L42.7602 5.4725ZM44.2646 6H43.4546V5.8H43.6846V4.385H43.4546V4.185H44.2646V4.385H44.0346V5.8H44.2646V6ZM45.6481 4.22V4.415H45.3081C45.3048 4.49667 45.294 4.57833 45.2756 4.66C45.2573 4.74167 45.2315 4.82333 45.1981 4.905C45.2748 4.995 45.3556 5.08167 45.4406 5.165C45.5256 5.24667 45.6181 5.32583 45.7181 5.4025L45.4906 5.6125C45.3306 5.4425 45.1981 5.2775 45.0931 5.1175C44.9848 5.29583 44.8215 5.47417 44.6031 5.6525L44.4781 5.5475C44.6465 5.36583 44.7665 5.18417 44.8381 5.0025C44.9115 4.82083 44.9498 4.64917 44.9531 4.4875C44.9531 4.45583 44.9498 4.43583 44.9431 4.4275C44.9365 4.41917 44.9215 4.415 44.8981 4.415H44.5781V4.22H44.9556V4.06C44.9556 4.04167 44.954 4.02 44.9506 3.995C44.949 3.96833 44.939 3.95 44.9206 3.94H45.2006C45.2656 3.94 45.2981 3.96667 45.2981 4.02V4.22H45.6481ZM46.2956 4.18C46.2956 4.15167 46.2948 4.12 46.2931 4.085C46.2915 4.04833 46.2823 4.01667 46.2656 3.99H46.5306C46.569 3.99 46.594 3.99667 46.6056 4.01C46.6173 4.02167 46.6231 4.04167 46.6231 4.07V6.315H46.2956V4.18ZM46.1506 6.315H45.8206V4.91H45.5156V4.7125H45.8206V4.18C45.8206 4.15167 45.8198 4.12 45.8181 4.085C45.8165 4.04833 45.8081 4.01667 45.7931 3.99H46.0606C46.0973 3.99 46.1215 3.99667 46.1331 4.01C46.1448 4.02167 46.1506 4.04167 46.1506 4.07V6.315ZM49.128 5.865V6.0625H46.893V5.865H48.4005C48.4405 5.865 48.468 5.85083 48.483 5.8225C48.498 5.79417 48.5055 5.7625 48.5055 5.7275V5.165H47.173V4.97H48.5055V4.295H47.143V4.1H48.7255C48.7639 4.1 48.7939 4.11083 48.8155 4.1325C48.8372 4.15417 48.848 4.17833 48.848 4.205V5.68C48.848 5.71833 48.8455 5.75083 48.8405 5.7775C48.8372 5.80417 48.8264 5.83333 48.808 5.865H49.128Z" fill="#004994"/>
<path d="M10.0019 37.0112L10.9808 37.0112C11.138 37.0112 11.2802 37.0524 11.4057 37.131C11.5311 37.2115 11.5947 37.335 11.5947 37.5035L11.5947 39.0289C11.5947 39.1843 11.5367 39.306 11.4188 39.3921C11.3027 39.4782 11.1586 39.5212 10.9864 39.5212L10 39.5212L10 37.0112H10.0019ZM11.0014 37.4661C11.0014 37.4342 10.9901 37.408 10.9639 37.3837C10.9396 37.3594 10.9078 37.3444 10.8703 37.3369C10.8666 37.335 10.8198 37.335 10.73 37.335C10.642 37.3369 10.5952 37.3369 10.5896 37.3369L10.5896 39.2068C10.5933 39.2068 10.6401 39.2068 10.7281 39.2068C10.8161 39.2068 10.861 39.2049 10.8666 39.203C10.904 39.1955 10.9359 39.1806 10.9621 39.1581C10.9883 39.1338 10.9995 39.1057 10.9995 39.0739L10.9995 37.4661H11.0014Z" fill="#004994"/>
<path d="M13.0358 39.5288H12.45L13.0227 37.0132L13.7564 37.0132L14.3291 39.5288H13.7433L13.3895 37.7563L13.0358 39.5288ZM13.1125 38.8456L13.1125 38.4993L13.7283 38.4993L13.7283 38.8456L13.1125 38.8456Z" fill="#004994"/>
<path d="M16.3319 39.525L15.6881 38.0426L15.6881 39.525H15.1958L15.1958 37.0076H15.8659L16.4461 38.5274L16.4461 37.0076H16.9365L16.9365 39.5232H16.3319V39.525Z" fill="#004994"/>
<path d="M18.838 39.5287L18.4057 38.5891L18.4057 39.5287H17.8198L17.8198 37.0112H18.4057L18.4057 37.8516L18.8624 37.0112H19.452L18.8455 38.1586L19.5212 39.5287H18.838Z" fill="#004994"/>
<path d="M20.3506 37.4866C20.3506 37.3538 20.4086 37.2415 20.5265 37.1497C20.6444 37.058 20.7923 37.0094 20.9701 37C20.9795 37 21.0094 37 21.0581 37C21.1086 37 21.1367 37 21.1423 37C21.1498 37 21.176 37 21.2247 37C21.2733 37 21.2995 37 21.307 37C21.4867 37.0075 21.6365 37.0562 21.7562 37.146C21.876 37.2377 21.9359 37.3481 21.9359 37.4829L21.9359 39.0795C21.9359 39.2217 21.8779 39.3322 21.7619 39.4089C21.6439 39.4875 21.4942 39.5287 21.307 39.5324C21.2977 39.5324 21.2696 39.5324 21.2247 39.5324C21.1779 39.5324 21.1498 39.5324 21.1404 39.5324C21.1311 39.5324 21.103 39.5324 21.0562 39.5324C21.0094 39.5324 20.9814 39.5324 20.9739 39.5324C20.7961 39.5249 20.6482 39.48 20.5284 39.3939C20.4086 39.3078 20.3506 39.2049 20.3506 39.0832L20.3506 37.4866ZM21.3594 37.4249C21.3594 37.4043 21.3538 37.3893 21.3407 37.3762C21.3276 37.3631 21.3108 37.3575 21.2883 37.3538C21.2864 37.3519 21.2621 37.35 21.2153 37.35C21.1685 37.3481 21.1423 37.3481 21.1386 37.3481C21.1348 37.3481 21.1086 37.3481 21.0618 37.3481C21.015 37.3481 20.9888 37.35 20.9851 37.3519C20.9645 37.3538 20.9495 37.3631 20.9364 37.3762C20.9252 37.3893 20.9177 37.4043 20.9177 37.423L20.9177 39.1094C20.9177 39.1244 20.9233 39.1394 20.9364 39.1525C20.9495 39.1656 20.9645 39.1749 20.9814 39.1787C20.9851 39.1806 21.0113 39.1824 21.06 39.1862C21.1068 39.188 21.133 39.1899 21.1386 39.1899C21.1423 39.1899 21.1685 39.188 21.2172 39.1862C21.264 39.1843 21.2902 39.1824 21.2921 39.1787C21.3126 39.1749 21.3276 39.1656 21.3407 39.1525C21.352 39.1394 21.3594 39.1244 21.3594 39.1094L21.3594 37.4249Z" fill="#004994"/>
<path d="M22.8149 37.4865C22.8149 37.3536 22.8748 37.2413 22.9909 37.1496C23.1088 37.0579 23.2567 37.0092 23.4345 36.9999C23.4438 36.9999 23.4738 36.9999 23.5224 36.9999C23.573 36.9999 23.6011 36.9999 23.6067 36.9999C23.6123 36.9999 23.6404 36.9999 23.689 36.9999C23.7377 36.9999 23.7639 36.9999 23.7714 36.9999C23.9511 37.0074 24.1008 37.056 24.2206 37.1459C24.3404 37.2376 24.4003 37.348 24.4003 37.4828L24.4003 39.0794C24.4003 39.2216 24.3423 39.332 24.2262 39.4088C24.1102 39.4874 23.9586 39.5286 23.7714 39.5323C23.762 39.5323 23.7339 39.5323 23.689 39.5323C23.6422 39.5323 23.6142 39.5323 23.6048 39.5323C23.5954 39.5323 23.5674 39.5323 23.5206 39.5323C23.4738 39.5323 23.4457 39.5323 23.4382 39.5323C23.2604 39.5248 23.1125 39.4799 22.9928 39.3938C22.873 39.3077 22.8149 39.2048 22.8149 39.0831L22.8149 37.4865ZM23.8257 37.4248C23.8257 37.4042 23.82 37.3892 23.8069 37.3761C23.7957 37.363 23.777 37.3574 23.7545 37.3536C23.7527 37.3518 23.7283 37.3499 23.6815 37.3499C23.6348 37.348 23.6104 37.348 23.6048 37.348C23.6011 37.348 23.5749 37.348 23.5281 37.348C23.4813 37.348 23.4551 37.3499 23.4513 37.3518C23.4307 37.3536 23.4158 37.363 23.4027 37.3761C23.3914 37.3892 23.3839 37.4042 23.3839 37.4229L23.3839 39.1093C23.3839 39.1243 23.3896 39.1393 23.4027 39.1524C23.4158 39.1655 23.4307 39.1748 23.4476 39.1786C23.4513 39.1804 23.4775 39.1823 23.5262 39.186C23.573 39.1879 23.5992 39.1898 23.6048 39.1898C23.6085 39.1898 23.6347 39.1879 23.6834 39.186C23.7321 39.1842 23.7564 39.1823 23.7583 39.1786C23.7789 39.1748 23.7938 39.1655 23.8069 39.1524C23.82 39.1393 23.8257 39.1243 23.8257 39.1093L23.8257 37.4248Z" fill="#004994"/>
<path d="M26.3029 39.5283L25.8705 38.5887L25.8705 39.5283H25.2847L25.2847 37.0109H25.8705L25.8705 37.8513L26.3272 37.0109H26.9168L26.3104 38.1582L26.986 39.5283H26.3029Z" fill="#004994"/>
<path d="M29.7541 37.0112L29.7541 39.1281C29.7541 39.1469 29.7615 39.1618 29.7746 39.1731C29.7877 39.1843 29.8065 39.1937 29.8271 39.1974C29.8308 39.1993 29.857 39.2011 29.9019 39.2011C29.9468 39.2011 29.9712 39.2011 29.973 39.2011C29.9768 39.2011 30.003 39.2011 30.0498 39.2011C30.0966 39.2011 30.1209 39.2011 30.1228 39.1974C30.1434 39.1937 30.1602 39.1843 30.1733 39.1731C30.1864 39.16 30.1939 39.145 30.1939 39.1281L30.1939 37.0112H30.7798L30.7798 39.0945C30.7798 39.2348 30.7199 39.3434 30.6019 39.422C30.4822 39.5006 30.3287 39.5418 30.1359 39.5474C30.1284 39.5474 30.1022 39.5474 30.0554 39.5474C30.0086 39.5474 29.9805 39.5474 29.973 39.5474C29.9674 39.5474 29.9431 39.5474 29.8944 39.5474C29.8476 39.5474 29.8214 39.5474 29.8158 39.5474C29.6399 39.5437 29.4883 39.5044 29.3573 39.4332C29.2281 39.3621 29.1626 39.2498 29.1626 39.0963L29.1626 37.0112H29.7541Z" fill="#004994"/>
<path d="M32.7991 39.525L32.1553 38.0426L32.1553 39.525H31.6611L31.6611 37.0076H32.3312L32.9114 38.5274L32.9114 37.0076H33.4018L33.4018 39.5232H32.7991V39.525Z" fill="#004994"/>
<path d="M34.3022 39.5249L34.3022 37.0112H34.8881L34.8881 39.5249H34.3022Z" fill="#004994"/>
<path d="M37.0611 39.5288L36.2319 39.5288L35.749 37.0132H36.3199L36.6493 38.6771L36.9731 37.0132H37.5496L37.0611 39.5288Z" fill="#004994"/>
<path d="M38.3826 39.5249L38.3826 37.0112L39.7695 37.0112V37.3313L38.9703 37.3313V38.0107H39.7171V38.3139L38.9703 38.3139L38.9703 39.2049L39.777 39.2049V39.5249L38.3826 39.5249Z" fill="#004994"/>
<path d="M41.647 39.5321C41.6433 39.489 41.6414 39.4422 41.6452 39.3879C41.6489 39.3337 41.6508 39.2363 41.6508 39.0941V39.0173V38.9406C41.6508 38.8526 41.6508 38.7478 41.6489 38.628C41.6489 38.5082 41.647 38.4465 41.647 38.4446C41.647 38.4109 41.6321 38.3828 41.6002 38.3585C41.5684 38.3342 41.531 38.3211 41.4879 38.3192C41.4861 38.3192 41.4411 38.3192 41.3551 38.3192C41.269 38.3192 41.2222 38.3192 41.2184 38.3192L41.2184 39.5283H40.6326L40.6326 37.0109L41.6021 37.0109C41.7668 37.0109 41.9109 37.0446 42.0345 37.1101C42.158 37.1756 42.2198 37.2841 42.2198 37.4376L42.2198 37.7614C42.2198 37.8438 42.1861 37.9224 42.1168 37.9973C42.0476 38.0721 41.9615 38.1245 41.8567 38.1545C41.9615 38.1769 42.0476 38.2275 42.1187 38.3061C42.188 38.3847 42.2235 38.4727 42.2235 38.5681V39.0173C42.2235 39.1877 42.2235 39.3075 42.2198 39.3748C42.2179 39.4422 42.2235 39.4946 42.2366 39.5302H41.647V39.5321ZM41.647 37.4657C41.647 37.432 41.6321 37.4021 41.6002 37.3758C41.5684 37.3496 41.531 37.3347 41.4879 37.3328C41.4861 37.3328 41.4411 37.3328 41.3551 37.3328C41.269 37.3328 41.2222 37.3328 41.2184 37.3328V38.016C41.2222 38.016 41.269 38.016 41.3551 38.016C41.4411 38.016 41.4861 38.016 41.4879 38.016C41.5329 38.0122 41.5703 37.9973 41.6002 37.9729C41.6321 37.9486 41.647 37.9186 41.647 37.8831L41.647 37.4657Z" fill="#004994"/>
<path d="M43.6317 38.574V39.0813C43.6317 39.1037 43.6392 39.1224 43.6523 39.1355C43.6673 39.1505 43.686 39.1599 43.7104 39.1636C43.7141 39.1655 43.7403 39.1674 43.7871 39.1692C43.8339 39.1711 43.8582 39.173 43.8638 39.173C43.8713 39.173 43.8975 39.1711 43.9443 39.1692C43.9911 39.1674 44.0154 39.1655 44.0173 39.1636C44.0417 39.1599 44.0604 39.1505 44.0716 39.1355C44.0828 39.1206 44.0903 39.1037 44.0903 39.0813V38.8885C44.0903 38.8248 44.0435 38.7575 43.9481 38.6863C43.8526 38.6171 43.7777 38.5572 43.7216 38.5085C43.4726 38.2802 43.3061 38.1211 43.2237 38.035C43.1414 37.9489 43.0983 37.859 43.0983 37.7655V37.4903C43.0983 37.3537 43.1601 37.2414 43.2817 37.1497C43.4034 37.0579 43.5569 37.0093 43.7422 37.0037C43.7478 37.0037 43.774 37.0037 43.8208 37.0037C43.8657 37.0037 43.8919 37.0037 43.8957 37.0037C43.8994 37.0037 43.9256 37.0037 43.9705 37.0037C44.0154 37.0037 44.0398 37.0037 44.0416 37.0037C44.2101 37.0055 44.3505 37.0505 44.4628 37.1347C44.5751 37.2208 44.6312 37.3237 44.6312 37.4454L44.6312 37.9189L44.0922 37.9189L44.0922 37.4398C44.0922 37.4211 44.0866 37.4042 44.0772 37.3855C44.0679 37.3668 44.0529 37.3574 44.036 37.3518C44.0342 37.3499 44.0098 37.3481 43.9612 37.3462C43.9125 37.3443 43.8863 37.3443 43.8826 37.3443C43.8751 37.3443 43.8489 37.3443 43.8039 37.3443C43.759 37.3443 43.7328 37.3462 43.7291 37.3481C43.7066 37.3574 43.6898 37.3686 43.6767 37.3817C43.6636 37.3949 43.6579 37.4192 43.6579 37.4547L43.6617 37.6906C43.6636 37.7561 43.6954 37.8122 43.7553 37.8628C43.8152 37.9133 43.8732 37.9639 43.9312 38.0144C44.1764 38.2334 44.3617 38.3962 44.489 38.501C44.6163 38.6059 44.6799 38.7125 44.6799 38.8248V39.0382C44.6799 39.1767 44.6181 39.2909 44.4946 39.3864C44.3711 39.4818 44.2157 39.5305 44.0267 39.5342C44.0192 39.5342 43.9949 39.5342 43.9481 39.5342C43.9031 39.5342 43.8769 39.5342 43.8732 39.5342C43.8657 39.5342 43.8395 39.5342 43.7946 39.5342C43.7497 39.5342 43.7235 39.5342 43.716 39.5342C43.5382 39.5305 43.3903 39.4856 43.2724 39.3995C43.1545 39.3134 43.0964 39.2085 43.0964 39.0813V38.5722H43.6317V38.574Z" fill="#004994"/>
<path d="M45.5754 39.5249L45.5754 37.0112H46.1613L46.1613 39.5249H45.5754Z" fill="#004994"/>
<path d="M48.0705 37.335L48.0705 39.5249L47.4847 39.5249L47.4847 37.335H47.0486V37.0112L48.5085 37.0112V37.335L48.0705 37.335Z" fill="#004994"/>
<path d="M50.7545 38.0556L50.528 38.6284L50.528 39.5287L49.9384 39.5287V38.6452C49.9365 38.6078 49.914 38.5273 49.8729 38.4057C49.8298 38.284 49.7905 38.168 49.7531 38.0594C49.7213 37.9658 49.6595 37.8179 49.5659 37.6121C49.4723 37.408 49.3937 37.2078 49.3301 37.0112H49.8897L50.2772 38.0051L50.7039 37.0112H51.2299L50.7545 38.0556Z" fill="#004994"/>
<path d="M3.27667 51.9999L19.6909 62.1893" stroke="#FF0000"/>
<path d="M29.0001 34.2629L45.7719 24.6735" stroke="black"/>
<path d="M14 42.5L8 74.5" stroke="black"/>
<path d="M30.2063 56.1686L23.461 42" stroke="#0045E6"/>
<path d="M17.1806 70.3581L45.4303 50.0001" stroke="#FFB300"/>
</svg>
