<svg width="79" height="85" viewBox="0 0 79 85" fill="none" xmlns="http://www.w3.org/2000/svg">
<path d="M13.5591 2C13.5591 0.89543 14.4545 0 15.5591 0H65.5591C66.6637 0 67.5591 0.895431 67.5591 2V83C67.5591 84.1046 66.6637 85 65.5591 85H15.5591C14.4545 85 13.5591 84.1046 13.5591 83V2Z" fill="white"/>
<path d="M13.5591 2C13.5591 0.89543 14.4545 0 15.5591 0H65.5591C66.6637 0 67.5591 0.895431 67.5591 2V83C67.5591 84.1046 66.6637 85 65.5591 85H15.5591C14.4545 85 13.5591 84.1046 13.5591 83V2Z" fill="white"/>
<circle cx="51.0591" cy="76.5" r="5.5" fill="#E93434"/>
<path d="M63.1592 76.5C63.1592 79.5376 60.6967 82 57.6592 82C54.6216 82 52.1592 79.5376 52.1592 76.5C52.1592 73.4624 54.6216 71 57.6592 71C60.6967 71 63.1592 73.4624 63.1592 76.5Z" fill="#FFB800"/>
<path d="M54.9092 71.7368C56.5529 72.6879 57.6592 74.4649 57.6592 76.5005C57.659 78.5357 56.5525 80.3112 54.9092 81.2622C53.2658 80.3112 52.1594 78.5357 52.1592 76.5005C52.1592 74.4649 53.2655 72.6879 54.9092 71.7368Z" fill="#FF9D42"/>
<path d="M41.5591 7.5L42.9884 6.07071C43.0274 6.03166 43.0907 6.03166 43.1298 6.07071L44.5591 7.5" stroke="#40537F" stroke-width="0.2"/>
<path d="M19.5189 3.14468C19.5189 3.96225 18.8559 4.62482 18.0398 4.62482C17.2219 4.62482 16.5591 3.96225 16.5591 3.14468C16.5593 2.32796 17.2219 1.66455 18.0401 1.66455C18.8559 1.66455 19.5189 2.32796 19.5189 3.14468Z" fill="white"/>
<path d="M18.0409 4.55495C18.8187 4.55495 19.4497 3.92393 19.4497 3.14491C19.4497 2.3663 18.8187 1.73486 18.0407 1.73486C17.2617 1.73486 16.6311 2.36609 16.6311 3.14491C16.6309 3.92415 17.2617 4.55495 18.0409 4.55495Z" fill="#004994"/>
<mask id="mask0_130_1221" style="mask-type:luminance" maskUnits="userSpaceOnUse" x="16" y="1" width="4" height="4">
<path d="M18.0409 4.5549C18.8187 4.5549 19.4497 3.92389 19.4497 3.14549C19.4497 2.36689 18.8187 1.73608 18.0407 1.73608C17.2617 1.73608 16.6311 2.36689 16.6311 3.14549C16.6309 3.9241 17.2617 4.5549 18.0409 4.5549Z" fill="white"/>
</mask>
<g mask="url(#mask0_130_1221)">
<path d="M18.0532 3.82506C18.6734 3.82506 19.2039 3.99827 19.4321 4.24327C19.5073 4.069 19.5494 3.87482 19.5494 3.67302C19.5494 2.86372 18.8792 2.20898 18.0532 2.20898C17.2282 2.20898 16.5576 2.86393 16.5576 3.67366C16.5576 3.87546 16.6 4.06857 16.6751 4.24327C16.903 3.99827 17.4341 3.82506 18.0532 3.82506Z" fill="#004994"/>
<path d="M18.0531 3.82674C18.6718 3.82674 19.2008 3.99847 19.4286 4.24156C19.5038 4.06856 19.5457 3.87608 19.5457 3.67598C19.5457 2.87323 18.8772 2.22168 18.0533 2.22168C17.2307 2.22168 16.5615 2.87345 16.5615 3.67661C16.5615 3.87693 16.6037 4.06856 16.6788 4.24177C16.9058 3.99847 17.4356 3.82674 18.0531 3.82674Z" fill="#004994"/>
<path d="M18.0527 3.82827C18.6697 3.82827 19.1974 3.99852 19.4246 4.2397C19.4996 4.06819 19.5413 3.8774 19.5413 3.67857C19.5413 2.88218 18.8745 2.23401 18.0527 2.23401C17.2321 2.23401 16.5647 2.8826 16.5647 3.6792C16.5647 3.87782 16.6068 4.06798 16.6818 4.2397C16.9084 3.99873 17.4367 3.82827 18.0527 3.82827Z" fill="#004994"/>
<path d="M18.0525 3.82996C18.6681 3.82996 19.1943 3.99894 19.4208 4.238C19.4956 4.06797 19.5373 3.87866 19.5373 3.68152C19.5373 2.89169 18.8722 2.2467 18.0525 2.2467C17.2341 2.2467 16.5684 2.89212 16.5684 3.68216C16.5684 3.8793 16.6103 4.06775 16.6852 4.23821C16.9112 3.99872 17.4382 3.82996 18.0525 3.82996Z" fill="#004994"/>
<path d="M18.0524 3.83137C18.6662 3.83137 19.1914 3.99886 19.4171 4.23602C19.4918 4.06726 19.5333 3.87965 19.5333 3.68399C19.5333 2.90073 18.8699 2.25891 18.0524 2.25891C17.2361 2.25891 16.572 2.90115 16.572 3.68462C16.572 3.88007 16.6139 4.06726 16.6885 4.23602C16.914 3.99886 17.4398 3.83137 18.0524 3.83137Z" fill="#004994"/>
<path d="M18.0522 3.83305C18.6646 3.83305 19.1883 3.99906 19.4133 4.23432C19.4879 4.06703 19.5294 3.88091 19.5294 3.68694C19.5294 2.91024 18.8677 2.27161 18.0522 2.27161C17.238 2.27161 16.5757 2.91046 16.5757 3.68737C16.5757 3.88133 16.6174 4.06682 16.6919 4.23432C16.9168 3.99906 17.4411 3.83305 18.0522 3.83305Z" fill="#004994"/>
<path d="M18.0519 3.83461C18.6625 3.83461 19.1849 3.99935 19.4096 4.23249C19.4839 4.06669 19.5254 3.88205 19.5254 3.68978C19.5254 2.91943 18.8654 2.28418 18.0521 2.28418C17.24 2.28418 16.5793 2.91985 16.5793 3.6902C16.5793 3.88247 16.6211 4.06648 16.6954 4.23249C16.9194 3.99935 17.4424 3.83461 18.0519 3.83461Z" fill="#004994"/>
<path d="M18.0519 3.83627C18.6611 3.83627 19.182 3.99952 19.4061 4.23076C19.4804 4.06623 19.5215 3.88327 19.5215 3.69249C19.5215 2.9287 18.8631 2.29663 18.0519 2.29663C17.2418 2.29663 16.583 2.92892 16.583 3.69291C16.583 3.8837 16.6245 4.06623 16.6988 4.23076C16.9222 3.99931 17.444 3.83627 18.0519 3.83627Z" fill="#004994"/>
<path d="M18.0518 3.8377C18.6593 3.8377 19.1789 3.99948 19.4023 4.22881C19.4764 4.06576 19.5175 3.88429 19.5175 3.6952C19.5175 2.93798 18.8611 2.30908 18.0518 2.30908C17.2439 2.30908 16.5867 2.93819 16.5867 3.69562C16.5867 3.88471 16.6282 4.06576 16.7021 4.22902C16.925 3.99948 17.4455 3.8377 18.0518 3.8377Z" fill="#004994"/>
<path d="M18.0516 3.83923C18.6574 3.83923 19.1758 3.99953 19.3986 4.22695C19.4725 4.06538 19.5135 3.8854 19.5135 3.69779C19.5135 2.94713 18.8588 2.32141 18.0516 2.32141C17.2459 2.32141 16.5903 2.94734 16.5903 3.69821C16.5903 3.88582 16.6316 4.06517 16.7055 4.22695C16.9281 3.99974 17.4469 3.83923 18.0516 3.83923Z" fill="#004994"/>
<path d="M18.0512 3.84092C18.6556 3.84092 19.1724 3.99994 19.3946 4.22525C19.4685 4.06495 19.5093 3.88666 19.5093 3.70074C19.5093 2.95665 18.8563 2.33411 18.0512 2.33411C17.2476 2.33411 16.5938 2.95686 16.5938 3.70116C16.5938 3.88708 16.635 4.06516 16.7087 4.22546C16.9306 3.99994 17.4482 3.84092 18.0512 3.84092Z" fill="#004994"/>
<path d="M18.0511 3.84245C18.6537 3.84245 19.1696 3.99999 19.3911 4.22339C19.4648 4.06458 19.5056 3.88776 19.5056 3.70333C19.5056 2.96559 18.8543 2.34644 18.0513 2.34644C17.2498 2.34644 16.5977 2.96602 16.5977 3.70354C16.5977 3.88798 16.6387 4.06436 16.7124 4.22318C16.9335 3.99999 17.4497 3.84245 18.0511 3.84245Z" fill="#004994"/>
<path d="M18.0509 3.84413C18.6521 3.84413 19.1664 4.00019 19.3873 4.22168C19.4608 4.06435 19.5014 3.88902 19.5014 3.70628C19.5014 2.97511 18.8518 2.35913 18.0509 2.35913C17.2516 2.35913 16.6011 2.97532 16.6011 3.7065C16.6011 3.88924 16.6422 4.06414 16.7154 4.22168C16.9363 4.00019 17.451 3.84413 18.0509 3.84413Z" fill="#004994"/>
<path d="M18.0508 3.84557C18.6502 3.84557 19.1633 4.00036 19.3835 4.21974C19.457 4.06368 19.4975 3.89004 19.4975 3.709C19.4975 2.98439 18.8495 2.37158 18.0508 2.37158C17.2535 2.37158 16.6047 2.9846 16.6047 3.70921C16.6047 3.89046 16.6456 4.06368 16.7189 4.21974C16.9391 4.00036 17.4526 3.84557 18.0508 3.84557Z" fill="#004994"/>
<path d="M18.0504 3.84735C18.6484 3.84735 19.16 4.00065 19.3795 4.21812C19.4528 4.06354 19.4932 3.89139 19.4932 3.71183C19.4932 2.99378 18.847 2.38416 18.0504 2.38416C17.2553 2.38416 16.6082 2.994 16.6082 3.71204C16.6082 3.8916 16.649 4.06354 16.7221 4.21812C16.9417 4.00065 17.4539 3.84735 18.0504 3.84735Z" fill="#004994"/>
<path d="M18.0503 3.84879C18.6466 3.84879 19.1569 4.00061 19.376 4.21617C19.4491 4.06308 19.4895 3.89241 19.4895 3.71454C19.4895 3.00306 18.845 2.39661 18.0505 2.39661C17.2575 2.39661 16.6121 3.00306 16.6121 3.71475C16.6121 3.89283 16.6527 4.06308 16.7256 4.21617C16.9445 4.00061 17.4552 3.84879 18.0503 3.84879Z" fill="#004994"/>
<path d="M18.0501 3.85044C18.6449 3.85044 19.1538 4.00099 19.3723 4.21444C19.4453 4.06261 19.4854 3.89364 19.4854 3.71725C19.4854 3.01212 18.8425 2.40906 18.0501 2.40906C17.2592 2.40906 16.6157 3.01233 16.6157 3.71746C16.6157 3.89385 16.6564 4.06261 16.729 4.21444C16.9473 4.00078 17.4568 3.85044 18.0501 3.85044Z" fill="#004994"/>
<path d="M18.0497 3.852C18.6428 3.852 19.1506 4.00107 19.3683 4.21261C19.4411 4.06227 19.4812 3.89478 19.4812 3.72008C19.4812 3.02152 18.84 2.42163 18.0497 2.42163C17.261 2.42163 16.6191 3.02173 16.6191 3.72029C16.6191 3.8952 16.6596 4.06248 16.7322 4.21282C16.9499 4.00107 17.4581 3.852 18.0497 3.852Z" fill="#004994"/>
<path d="M18.0498 3.85369C18.6414 3.85369 19.1477 4.00128 19.3648 4.21091C19.4374 4.06205 19.4774 3.89604 19.4774 3.72304C19.4774 3.03104 18.8382 2.43433 18.0498 2.43433C17.2632 2.43433 16.623 3.03125 16.623 3.72325C16.623 3.89646 16.6635 4.06226 16.7359 4.21112C16.9527 4.00128 17.4595 3.85369 18.0498 3.85369Z" fill="#004994"/>
<path d="M18.0497 3.85509C18.6396 3.85509 19.1446 4.0012 19.361 4.20893C19.4337 4.06134 19.4735 3.89702 19.4735 3.7255C19.4735 3.04007 18.8359 2.44653 18.0497 2.44653C17.2651 2.44653 16.6267 3.04007 16.6267 3.7255C16.6267 3.89723 16.6669 4.06134 16.7391 4.20893C16.9556 4.0012 17.461 3.85509 18.0497 3.85509Z" fill="#004994"/>
<path d="M18.0493 3.85666C18.6375 3.85666 19.1413 4.00149 19.3573 4.2071C19.4297 4.061 19.4695 3.89816 19.4695 3.72834C19.4695 3.04947 18.8336 2.45911 18.0495 2.45911C17.2671 2.45911 16.6304 3.04947 16.6304 3.72834C16.6304 3.89837 16.6706 4.06121 16.7426 4.2071C16.9582 4.00149 17.4623 3.85666 18.0493 3.85666Z" fill="#004994"/>
<path d="M18.0491 3.85831C18.6359 3.85831 19.1382 4.00166 19.3535 4.20537C19.4257 4.06074 19.4653 3.89939 19.4653 3.73105C19.4653 3.05853 18.8311 2.47156 18.0491 2.47156C17.2688 2.47156 16.6338 3.05874 16.6338 3.73105C16.6338 3.8996 16.6738 4.06074 16.7458 4.20537C16.9612 4.00166 17.4636 3.85831 18.0491 3.85831Z" fill="#004994"/>
<path d="M18.049 3.85975C18.634 3.85975 19.135 4.00162 19.3498 4.20342C19.4218 4.06006 19.4613 3.9004 19.4613 3.73376C19.4613 3.0678 18.8289 2.48401 18.049 2.48401C17.2708 2.48401 16.6375 3.06802 16.6375 3.73376C16.6375 3.90062 16.6775 4.06028 16.7493 4.20342C16.964 4.00183 17.4652 3.85975 18.049 3.85975Z" fill="#004994"/>
<path d="M18.0488 3.86152C18.6324 3.86152 19.1319 4.00212 19.346 4.2018C19.418 4.05993 19.4574 3.90176 19.4574 3.73659C19.4574 3.0772 18.8266 2.49658 18.0488 2.49658C17.2728 2.49658 16.6411 3.0772 16.6411 3.73659C16.6411 3.90197 16.6809 4.06014 16.7525 4.2018C16.9668 4.00191 17.4667 3.86152 18.0488 3.86152Z" fill="#004994"/>
<path d="M18.0484 3.863C18.6303 3.863 19.1288 4.00211 19.342 4.2001C19.4138 4.05971 19.4532 3.90302 19.4532 3.73954C19.4532 3.08672 18.8241 2.50928 18.0484 2.50928C17.2745 2.50928 16.6445 3.08672 16.6445 3.73954C16.6445 3.90323 16.6843 4.05992 16.7557 4.2001C16.9694 4.00211 17.4678 3.863 18.0484 3.863Z" fill="#004994"/>
<path d="M18.0483 3.86468C18.6287 3.86468 19.1257 4.00232 19.3385 4.1984C19.4101 4.05928 19.4495 3.90428 19.4495 3.7425C19.4495 3.09603 18.8221 2.52197 18.0485 2.52197C17.2767 2.52197 16.6484 3.09624 16.6484 3.7425C16.6484 3.9047 16.688 4.0597 16.7594 4.19861C16.9722 4.00232 17.4694 3.86468 18.0483 3.86468Z" fill="#004994"/>
<path d="M18.0481 3.86609C18.6268 3.86609 19.1226 4.00224 19.3347 4.19642C19.4063 4.05878 19.4453 3.90526 19.4453 3.74497C19.4453 3.10506 18.8195 2.53418 18.0481 2.53418C17.2786 2.53418 16.6519 3.10527 16.6519 3.74475C16.6519 3.90526 16.6915 4.05878 16.7626 4.19642C16.975 4.00245 17.4709 3.86609 18.0481 3.86609Z" fill="#004994"/>
<path d="M18.048 3.86789C18.6252 3.86789 19.1194 4.00278 19.331 4.19484C19.4023 4.05868 19.4413 3.90664 19.4413 3.74804C19.4413 3.1147 18.8173 2.547 18.048 2.547C17.2806 2.547 16.6555 3.1147 16.6555 3.74783C16.6555 3.90686 16.6949 4.05889 16.7658 4.19484C16.9778 4.00257 17.4722 3.86789 18.048 3.86789Z" fill="#004994"/>
<path d="M18.0476 3.8693C18.6231 3.8693 19.1161 4.0027 19.327 4.19286C19.3981 4.05797 19.4371 3.90763 19.4371 3.75051C19.4371 3.12373 18.815 2.5592 18.0476 2.5592C17.2823 2.5592 16.6589 3.12373 16.6589 3.7503C16.6589 3.90763 16.6983 4.05818 16.769 4.19286C16.9804 4.0027 17.4735 3.8693 18.0476 3.8693Z" fill="#004994"/>
<path d="M18.0477 3.87099C18.6218 3.87099 19.1132 4.00291 19.3237 4.19115C19.3949 4.05775 19.4336 3.90889 19.4336 3.75346C19.4336 3.13325 18.8132 2.5719 18.0479 2.5719C17.2848 2.5719 16.6631 3.13325 16.6631 3.75325C16.6631 3.9091 16.7023 4.05796 16.773 4.19115C16.9833 4.00291 17.4751 3.87099 18.0477 3.87099Z" fill="#004994"/>
<path d="M18.0475 3.87252C18.6199 3.87252 19.1103 4.00317 19.3199 4.18929C19.3909 4.05737 19.4294 3.91 19.4294 3.75605C19.4294 3.14219 18.8107 2.58423 18.0475 2.58423C17.2865 2.58423 16.6665 3.1424 16.6665 3.75584C16.6665 3.91 16.7055 4.05759 16.7762 4.18929C16.986 4.00317 17.4767 3.87252 18.0475 3.87252Z" fill="#004994"/>
<path d="M18.0474 3.87396C18.6183 3.87396 19.1072 4.00312 19.3162 4.18735C19.3869 4.0567 19.4255 3.91101 19.4255 3.75876C19.4255 3.15146 18.8084 2.59668 18.0474 2.59668C17.2885 2.59668 16.6702 3.15146 16.6702 3.75855C16.6702 3.91122 16.7091 4.05712 16.7794 4.18735C16.9888 4.00312 17.478 3.87396 18.0474 3.87396Z" fill="#004994"/>
<path d="M18.0472 3.8776C18.6173 3.8776 19.1056 4.00592 19.3143 4.18887C19.3851 4.05907 19.4236 3.91444 19.4236 3.76304C19.4236 3.15976 18.8074 2.60815 18.0474 2.60815C17.2894 2.60815 16.6721 3.15976 16.6721 3.76283C16.6721 3.91444 16.7111 4.05949 16.7814 4.18887C16.9902 4.00592 17.4787 3.8776 18.0472 3.8776Z" fill="#004994"/>
<path d="M18.0472 3.88111C18.6164 3.88111 19.1041 4.00859 19.3127 4.19027C19.3832 4.06131 19.4217 3.91775 19.4217 3.7674C19.4217 3.16794 18.8064 2.61951 18.0472 2.61951C17.2902 2.61951 16.6738 3.16794 16.6738 3.76698C16.6738 3.91753 16.7126 4.06152 16.7829 4.19027C16.9917 4.00859 17.4793 3.88111 18.0472 3.88111Z" fill="#004994"/>
<path d="M18.0473 3.88479C18.6158 3.88479 19.1028 4.01141 19.311 4.19203C19.3815 4.06393 19.4198 3.92121 19.4198 3.77192C19.4198 3.17648 18.8053 2.63123 18.0473 2.63123C17.2913 2.63123 16.6755 3.17648 16.6755 3.77171C16.6755 3.92142 16.7143 4.06435 16.7844 4.19225C16.993 4.01162 17.4802 3.88479 18.0473 3.88479Z" fill="white"/>
<path d="M18.0473 3.88843C18.615 3.88843 19.1014 4.01421 19.3091 4.19356C19.3794 4.0663 19.4177 3.92463 19.4177 3.7762C19.4177 3.18457 18.8039 2.6427 18.0471 2.6427C17.2922 2.6427 16.6772 3.18478 16.6772 3.77599C16.6772 3.92463 16.716 4.06672 16.7859 4.19377C16.9944 4.01442 17.481 3.88843 18.0473 3.88843Z" fill="white"/>
<path d="M18.0473 3.89194C18.6142 3.89194 19.1 4.01688 19.3075 4.19517C19.3776 4.06875 19.4161 3.92794 19.4161 3.78056C19.4161 3.19296 18.8031 2.65405 18.0473 2.65405C17.2933 2.65405 16.6794 3.19274 16.6794 3.78014C16.6794 3.92794 16.7182 4.06875 16.7879 4.19496C16.9958 4.01709 17.4818 3.89194 18.0473 3.89194Z" fill="white"/>
<path d="M18.0474 3.89558C18.6136 3.89558 19.0987 4.01988 19.3058 4.19669C19.3759 4.07112 19.4142 3.93137 19.4142 3.78484C19.4142 3.20104 18.8021 2.66553 18.0474 2.66553C17.2944 2.66553 16.6814 3.20104 16.6814 3.78441C16.6814 3.93116 16.7199 4.07112 16.7898 4.19648C16.9973 4.01988 17.4827 3.89558 18.0474 3.89558Z" fill="white"/>
<path d="M18.0472 3.89913C18.6126 3.89913 19.0971 4.02258 19.3039 4.19812C19.3738 4.0734 19.4121 3.9345 19.4121 3.78924C19.4121 3.20946 18.8008 2.67712 18.0472 2.67712C17.2953 2.67712 16.6831 3.20946 16.6831 3.78902C16.6831 3.93471 16.7216 4.07383 16.7913 4.19834C16.9986 4.02258 17.4833 3.89913 18.0472 3.89913Z" fill="white"/>
<path d="M18.0473 3.90281C18.6118 3.90281 19.0957 4.02541 19.3023 4.19989C19.3722 4.07602 19.4105 3.93817 19.4105 3.79375C19.4105 3.21779 18.8 2.68884 18.0475 2.68884C17.2964 2.68884 16.6853 3.21801 16.6853 3.79354C16.6853 3.93838 16.7238 4.07623 16.7933 4.2001C17 4.02541 17.484 3.90281 18.0473 3.90281Z" fill="white"/>
<path d="M18.0473 3.90641C18.6112 3.90641 19.0944 4.02817 19.3006 4.20138C19.3703 4.07835 19.4086 3.94135 19.4086 3.798C19.4086 3.22606 18.799 2.70007 18.0473 2.70007C17.2972 2.70007 16.6868 3.22606 16.6868 3.79779C16.6868 3.94156 16.7253 4.07857 16.7945 4.20159C17.0014 4.02817 17.4849 3.90641 18.0473 3.90641Z" fill="white"/>
<path d="M18.0473 3.90996C18.6104 3.90996 19.0929 4.03087 19.299 4.20303C19.3684 4.08085 19.4067 3.9449 19.4067 3.80239C19.4067 3.23427 18.798 2.71167 18.0473 2.71167C17.2983 2.71167 16.6887 3.23448 16.6887 3.80218C16.6887 3.9449 16.727 4.08085 16.7965 4.20303C17.0027 4.03087 17.4855 3.90996 18.0473 3.90996Z" fill="white"/>
<path d="M18.0474 3.91351C18.6096 3.91351 19.0915 4.03358 19.2971 4.20446C19.3666 4.08291 19.4049 3.94824 19.4049 3.80679C19.4049 3.24269 18.797 2.72327 18.0474 2.72327C17.2995 2.72327 16.6907 3.24269 16.6907 3.80658C16.6907 3.94845 16.729 4.08334 16.7982 4.20467C17.0043 4.03358 17.4864 3.91351 18.0474 3.91351Z" fill="white"/>
<path d="M18.0472 3.91712C18.6087 3.91712 19.0898 4.03634 19.2952 4.20595C19.3645 4.08525 19.4028 3.95142 19.4028 3.81103C19.4028 3.25096 18.7957 2.7345 18.0472 2.7345C17.3001 2.7345 16.6924 3.25074 16.6924 3.81061C16.6924 3.95142 16.7307 4.08546 16.7997 4.20595C17.0053 4.03634 17.4871 3.91712 18.0472 3.91712Z" fill="white"/>
<path d="M18.0472 3.92079C18.6079 3.92079 19.0886 4.03916 19.2936 4.20771C19.3628 4.08786 19.4009 3.9551 19.4009 3.81555C19.4009 3.25929 18.7945 2.74622 18.0472 2.74622C17.3012 2.74622 16.6943 3.25929 16.6943 3.81534C16.6943 3.95531 16.7327 4.08808 16.8015 4.20793C17.0069 4.03916 17.4878 3.92079 18.0472 3.92079Z" fill="white"/>
<path d="M18.0472 3.92431C18.6071 3.92431 19.0871 4.04204 19.2919 4.20911C19.3609 4.09011 19.399 3.95819 19.399 3.81971C19.399 3.26746 18.7934 2.75757 18.0472 2.75757C17.3023 2.75757 16.696 3.26746 16.696 3.81949C16.696 3.9584 16.7342 4.09032 16.803 4.20933C17.0084 4.04183 17.4886 3.92431 18.0472 3.92431Z" fill="white"/>
<path d="M18.0473 3.92795C18.6065 3.92795 19.0857 4.04484 19.2902 4.21064C19.3591 4.09248 19.3974 3.96162 19.3974 3.82419C19.3974 3.27576 18.7926 2.76904 18.0473 2.76904C17.3032 2.76904 16.698 3.27576 16.698 3.82377C16.698 3.96162 16.7361 4.09269 16.8049 4.21064C17.0097 4.04463 17.4893 3.92795 18.0473 3.92795Z" fill="white"/>
<path d="M18.0473 3.93162C18.6057 3.93162 19.0845 4.04766 19.2886 4.2124C19.3574 4.09509 19.3955 3.96508 19.3955 3.82871C19.3955 3.2843 18.7916 2.78076 18.0473 2.78076C17.3043 2.78076 16.7 3.28409 16.7 3.82829C16.7 3.96529 16.7381 4.09509 16.8067 4.2124C17.0112 4.04745 17.4902 3.93162 18.0473 3.93162Z" fill="white"/>
<path d="M18.0474 3.93502C18.6049 3.93502 19.083 4.05021 19.2869 4.21368C19.3556 4.09722 19.3937 3.96826 19.3937 3.83274C19.3937 3.29215 18.7906 2.79199 18.0474 2.79199C17.3054 2.79199 16.7019 3.29215 16.7019 3.83253C16.7019 3.96848 16.74 4.09743 16.8084 4.21389C17.0125 4.05021 17.4911 3.93523 18.0474 3.93502Z" fill="white"/>
<path d="M18.0472 3.93857C18.6041 3.93857 19.0814 4.05291 19.2848 4.21533C19.3535 4.09971 19.3916 3.9716 19.3916 3.83714C19.3916 3.30057 18.7894 2.80359 18.0472 2.80359C17.3063 2.80359 16.7036 3.30057 16.7036 3.83693C16.7036 3.97181 16.7417 4.09992 16.8099 4.21554C17.0138 4.05291 17.4915 3.93878 18.0472 3.93857Z" fill="white"/>
<path d="M18.0472 3.94221C18.6033 3.94221 19.0801 4.05571 19.2832 4.21685C19.3516 4.10208 19.3897 3.97503 19.3897 3.84163C19.3897 3.30886 18.7883 2.81506 18.0472 2.81506C17.3071 2.81506 16.7056 3.30886 16.7056 3.8412C16.7056 3.97524 16.7435 4.10208 16.8119 4.21706C17.0154 4.05571 17.4924 3.94242 18.0472 3.94221Z" fill="white"/>
<path d="M18.0472 3.94573C18.6024 3.94573 19.0787 4.05838 19.2815 4.21825C19.3499 4.10433 19.3878 3.97834 19.3878 3.84578C19.3878 3.31704 18.7873 2.82642 18.0472 2.82642C17.3082 2.82642 16.7073 3.31704 16.7073 3.84557C16.7073 3.97855 16.7452 4.10454 16.8134 4.21867C17.0166 4.05859 17.4933 3.94594 18.0472 3.94573Z" fill="white"/>
<path d="M18.0473 3.9494C18.6019 3.9494 19.0772 4.0612 19.2799 4.22002C19.3481 4.10694 19.3862 3.9818 19.3862 3.8503C19.3862 3.32537 18.7865 2.83813 18.0473 2.83813C17.3093 2.83813 16.7092 3.32558 16.7092 3.85009C16.7092 3.98201 16.7471 4.10715 16.8151 4.22023C17.0182 4.06141 17.494 3.94961 18.0473 3.9494Z" fill="white"/>
<path d="M18.0473 3.95301C18.6011 3.95301 19.076 4.06396 19.2782 4.22151C19.3462 4.10928 19.3843 3.98519 19.3843 3.85454C19.3843 3.33364 18.7855 2.84937 18.0473 2.84937C17.3102 2.84937 16.7112 3.33343 16.7112 3.85412C16.7112 3.98519 16.7491 4.10907 16.8168 4.22151C17.0195 4.06417 17.4949 3.95322 18.0473 3.95301Z" fill="white"/>
<path d="M18.0474 3.95652C18.6003 3.95652 19.0746 4.06685 19.2766 4.22291C19.3446 4.11152 19.3825 3.98829 19.3825 3.8587C19.3825 3.3416 18.7843 2.86072 18.0474 2.86072C17.3113 2.86072 16.7131 3.3416 16.7131 3.85848C16.7131 3.9885 16.7508 4.11152 16.8186 4.22312C17.021 4.06685 17.4956 3.95674 18.0474 3.95652Z" fill="white"/>
<path d="M18.0472 3.96011C18.5994 3.96011 19.0729 4.06958 19.2747 4.22458C19.3424 4.11405 19.3804 3.99187 19.3804 3.86334C19.3804 3.35027 18.783 2.87256 18.0472 2.87256C17.3122 2.87256 16.7148 3.35027 16.7148 3.86313C16.7148 3.99229 16.7525 4.11426 16.8203 4.22501C17.0223 4.06958 17.4962 3.96032 18.0472 3.96011Z" fill="white"/>
<path d="M18.0472 3.96371C18.5986 3.96371 19.0717 4.07234 19.2728 4.22607C19.3406 4.11617 19.3785 3.99505 19.3785 3.86758C19.3785 3.35832 18.782 2.88379 18.0472 2.88379C17.3133 2.88379 16.7168 3.35832 16.7168 3.86716C16.7168 3.99526 16.7545 4.11617 16.822 4.22628C17.0236 4.07234 17.4971 3.96393 18.0472 3.96371Z" fill="white"/>
<path d="M18.0472 3.96739C18.5978 3.96739 19.0702 4.07517 19.2712 4.22784C19.3387 4.11879 19.3766 3.99873 19.3766 3.8721C19.3766 3.36686 18.781 2.89551 18.0472 2.89551C17.3142 2.89551 16.7185 3.36686 16.7185 3.87168C16.7185 3.99873 16.7562 4.11879 16.8235 4.22784C17.0251 4.07517 17.4977 3.9676 18.0472 3.96739Z" fill="white"/>
<path d="M18.0473 3.9709C18.5972 3.9709 19.0687 4.07784 19.2695 4.22924C19.3368 4.12103 19.3747 4.00182 19.3747 3.87625C19.3747 3.37483 18.7799 2.90686 18.047 2.90686C17.315 2.90686 16.7202 3.37504 16.7202 3.87604C16.7202 4.00224 16.7577 4.12125 16.825 4.22945C17.0264 4.07784 17.4986 3.97112 18.0473 3.9709Z" fill="white"/>
<path d="M18.0473 3.97458C18.5964 3.97458 19.0675 4.08066 19.2679 4.23079C19.3352 4.12344 19.3731 4.00528 19.3731 3.88077C19.3731 3.38337 18.7791 2.91858 18.0473 2.91858C17.3164 2.91858 16.7224 3.38337 16.7224 3.88056C16.7224 4.0057 16.7599 4.12365 16.8272 4.23122C17.028 4.08066 17.4995 3.97479 18.0473 3.97458Z" fill="white"/>
<path d="M18.0474 3.97822C18.5956 3.97822 19.0661 4.08346 19.2662 4.23253C19.3333 4.12602 19.3712 4.00892 19.3712 3.88526C19.3712 3.39167 18.7781 2.93005 18.0474 2.93005C17.3173 2.93005 16.7244 3.39167 16.7244 3.88483C16.7244 4.00892 16.7618 4.12602 16.829 4.23274C17.0295 4.08346 17.5002 3.97843 18.0474 3.97822Z" fill="white"/>
<path d="M18.0472 3.98173C18.5948 3.98173 19.0644 4.08613 19.2643 4.23393C19.3314 4.12826 19.3691 4.01201 19.3691 3.88941C19.3691 3.39984 18.7769 2.94141 18.0472 2.94141C17.3181 2.94141 16.7261 3.39984 16.7261 3.8892C16.7261 4.01244 16.7636 4.12826 16.8305 4.23435C17.0306 4.08613 17.5009 3.98195 18.0472 3.98173Z" fill="white"/>
<path d="M18.0473 3.98541C18.594 3.98541 19.063 4.08916 19.2627 4.23569C19.3296 4.13088 19.3675 4.01569 19.3675 3.89393C19.3675 3.40818 18.7761 2.95312 18.0475 2.95312C17.3195 2.95312 16.7283 3.40839 16.7283 3.89372C16.7283 4.0159 16.7655 4.13088 16.8325 4.23612C17.0321 4.08895 17.5016 3.98562 18.0473 3.98541Z" fill="white"/>
</g>
<path d="M18.0405 3.50085C17.5621 3.50085 17.1183 3.58217 16.7522 3.7198C16.9722 4.21212 17.4658 4.55495 18.0409 4.55495C18.615 4.55495 19.1077 4.2117 19.3283 3.7198C18.9622 3.58217 18.5178 3.50085 18.0405 3.50085Z" fill="#004994"/>
<path d="M19.9028 3.56647H20.8354V4.36985H21.2002V3.56647H22.133V3.33948H19.9028V3.56647Z" fill="#004994"/>
<path d="M20.4486 2.96043C20.5212 3.01634 20.6067 3.0608 20.7035 3.09341C20.8003 3.1256 20.9059 3.14211 21.0178 3.14211C21.1279 3.14211 21.2329 3.1256 21.3292 3.09341C21.426 3.06101 21.5118 3.01612 21.5846 2.96043C21.6572 2.90241 21.7157 2.83465 21.7585 2.75885C21.801 2.68241 21.8228 2.59961 21.8228 2.51216C21.8228 2.42682 21.801 2.34466 21.7585 2.26801C21.7157 2.1922 21.6574 2.12444 21.5844 2.06642C21.512 2.01073 21.4262 1.96563 21.3297 1.93239C21.2333 1.89914 21.1283 1.8822 21.018 1.8822C20.9057 1.8822 20.8001 1.89893 20.7037 1.93239C20.607 1.96563 20.5212 2.01095 20.4486 2.06664C20.3757 2.12423 20.3177 2.19199 20.276 2.26822C20.2343 2.34466 20.2129 2.42661 20.2129 2.51195C20.2129 2.5994 20.2343 2.68219 20.276 2.75864C20.3175 2.83465 20.3757 2.90241 20.4486 2.96043ZM20.5777 2.51216C20.5777 2.45943 20.5894 2.40755 20.6123 2.35906C20.6353 2.31015 20.6671 2.26716 20.7067 2.23117C20.7461 2.19347 20.7929 2.16341 20.8458 2.1416C20.8987 2.12021 20.9568 2.1092 21.0178 2.1092C21.077 2.1092 21.1338 2.12021 21.1869 2.1416C21.2399 2.16341 21.2869 2.19347 21.3263 2.23138C21.3657 2.26738 21.3978 2.31015 21.422 2.35927C21.4457 2.40798 21.4576 2.45943 21.4576 2.51216C21.4576 2.56679 21.4457 2.61909 21.422 2.66801C21.3978 2.71692 21.3659 2.75969 21.3261 2.7959C21.2865 2.83381 21.2397 2.86345 21.1869 2.88399C21.0794 2.92592 20.9496 2.92486 20.8456 2.88399C20.7927 2.86345 20.7459 2.83381 20.7063 2.7959C20.6667 2.75969 20.6349 2.71692 20.612 2.66801C20.5894 2.6193 20.5777 2.56679 20.5777 2.51216Z" fill="#004994"/>
<path d="M24.1157 1.92517H23.8317L23.8491 1.94656C23.8561 1.95545 23.8603 1.96477 23.8618 1.97599C23.8703 2.01051 23.8741 2.06514 23.8741 2.1384V3.26978C23.8741 3.34051 23.8328 3.38794 23.7479 3.41462C23.7197 3.4233 23.6753 3.42944 23.616 3.43283H22.8422C22.8009 3.43283 22.788 3.42351 22.7836 3.4178C22.7751 3.40721 22.7709 3.38963 22.7709 3.36634V2.9151H23.4394C23.4794 2.9151 23.5065 2.90706 23.522 2.89075C23.5372 2.87508 23.545 2.85073 23.545 2.81897V2.09309C23.545 2.06111 23.5368 2.03697 23.5205 2.02067C23.504 2.00479 23.4766 1.99695 23.4368 1.99695H22.3935V2.22395H23.1802V2.68811H22.3679L22.3918 2.73787C22.4016 2.76645 22.4065 2.80182 22.4065 2.8429V3.49403C22.4065 3.53489 22.4209 3.57047 22.4486 3.59948C22.4869 3.6395 22.5488 3.65962 22.6326 3.65962H23.5453L23.6897 3.65411C23.7761 3.64522 23.837 3.62955 23.8747 3.60625V4.34272H24.2396V2.02385C24.2392 1.9798 24.2178 1.92771 24.1157 1.92517Z" fill="#004994"/>
<path d="M26.5399 2.01834C26.5399 1.97578 26.5185 1.92517 26.4164 1.92517H26.1365L26.1602 1.97409C26.1699 2.00966 26.175 2.06408 26.175 2.13586V4.34272H26.5399V2.92294H26.8831V2.69636H26.5399V2.01834Z" fill="#004994"/>
<path d="M25.7914 1.99695H24.6814V2.22119L25.4913 2.22098C25.4979 2.22246 25.5034 2.225 25.5077 2.22754C25.5077 2.22754 25.5098 2.23136 25.5066 2.24703C25.4973 2.39123 25.4697 2.52696 25.424 2.65358H24.6943V2.88058H25.3173C25.1631 3.14125 24.9173 3.3566 24.5815 3.52515L24.5681 3.53192L24.6689 3.68947L24.6789 3.68587C25.4856 3.40763 25.8956 2.87063 25.8971 2.09054C25.8968 2.04756 25.8784 1.99695 25.7914 1.99695Z" fill="#004994"/>
<path d="M27.2367 2.12207C27.2498 2.15574 27.2562 2.1947 27.2562 2.23727V3.06987C27.2562 3.11772 27.2738 3.1605 27.3085 3.19671C27.3536 3.24371 27.4213 3.26743 27.5103 3.26743H28.9506V3.04065H27.6896C27.6422 3.04065 27.621 3.02159 27.621 2.97924V2.29063H28.9379V2.06384H27.1992L27.2151 2.08523C27.2265 2.09963 27.2335 2.11212 27.2367 2.12207Z" fill="#004994"/>
<path d="M29.2123 3.85168H26.9822V4.07868H29.2123V3.85168Z" fill="#004994"/>
<path d="M50.8491 2.84955C50.8791 2.84955 50.8999 2.85538 50.9116 2.86705C50.9232 2.87705 50.9332 2.90038 50.9416 2.93705L51.2341 4.19955L51.5241 2.96955C51.5274 2.95955 51.5307 2.94622 51.5341 2.92955C51.5374 2.91288 51.5391 2.89955 51.5391 2.88955C51.5391 2.88122 51.5341 2.86788 51.5241 2.84955H51.8041C51.8474 2.84955 51.8691 2.86538 51.8691 2.89705C51.8691 2.90872 51.8666 2.92288 51.8616 2.93955L51.4316 4.66455H51.0591L50.7466 3.33205L50.4366 4.66455H50.0691L49.6266 2.92205C49.6182 2.89038 49.6024 2.86622 49.5791 2.84955H49.8766C49.9082 2.84955 49.9307 2.85538 49.9441 2.86705C49.9574 2.87705 49.9682 2.90038 49.9766 2.93705L50.2716 4.18955L50.5516 2.97955C50.5549 2.96122 50.5582 2.94455 50.5616 2.92955C50.5649 2.91288 50.5666 2.90038 50.5666 2.89205C50.5666 2.88205 50.5616 2.86788 50.5516 2.84955H50.8491ZM52.9279 3.91455H52.0804V3.66455H52.9279V3.91455ZM53.3064 3.01705C53.3064 2.99372 53.3047 2.96622 53.3014 2.93455C53.2997 2.90122 53.2906 2.87288 53.2739 2.84955H53.5364C53.6164 2.84955 53.6564 2.87705 53.6564 2.93205V3.94955C53.6564 4.01788 53.6606 4.08538 53.6689 4.15205C53.6772 4.21705 53.6947 4.27538 53.7214 4.32705C53.7497 4.37872 53.7889 4.42038 53.8389 4.45205C53.8889 4.48372 53.9556 4.49955 54.0389 4.49955C54.1189 4.49955 54.1839 4.48455 54.2339 4.45455C54.2839 4.42288 54.3231 4.38205 54.3514 4.33205C54.3797 4.28205 54.3989 4.22455 54.4089 4.15955C54.4189 4.09288 54.4239 4.02455 54.4239 3.95455V3.01705C54.4239 2.99205 54.4222 2.96372 54.4189 2.93205C54.4156 2.89872 54.4064 2.87122 54.3914 2.84955H54.6514C54.7314 2.84955 54.7714 2.87705 54.7714 2.93205V3.93455C54.7714 4.44455 54.5272 4.69955 54.0389 4.69955C53.7889 4.69955 53.6039 4.63705 53.4839 4.51205C53.3656 4.38705 53.3064 4.19455 53.3064 3.93455V3.01705ZM56.3192 4.13705V3.01705C56.3192 2.99205 56.3176 2.96372 56.3142 2.93205C56.3126 2.90038 56.3042 2.87288 56.2892 2.84955H56.5492C56.6292 2.84955 56.6692 2.87788 56.6692 2.93455V4.66455H56.2517L55.5192 3.23705V4.66455H55.1692V3.01955C55.1692 2.99455 55.1676 2.96538 55.1642 2.93205C55.1609 2.89872 55.1517 2.87122 55.1367 2.84955H55.6017C55.6184 2.84955 55.6317 2.85122 55.6417 2.85455C55.6517 2.85622 55.6601 2.86038 55.6667 2.86705C55.6734 2.87372 55.6792 2.88288 55.6842 2.89455C55.6909 2.90622 55.6984 2.92038 55.7067 2.93705L56.3192 4.13705ZM57.8237 4.66455H57.0137V4.46455H57.2437V3.04955H57.0137V2.84955H57.8237V3.04955L57.5937 3.04955V4.46455H57.8237V4.66455ZM59.2072 2.88455V3.07955H58.8672C58.8639 3.16122 58.8531 3.24288 58.8347 3.32455C58.8164 3.40622 58.7906 3.48788 58.7572 3.56955C58.8339 3.65955 58.9147 3.74622 58.9997 3.82955C59.0847 3.91122 59.1772 3.99038 59.2772 4.06705L59.0497 4.27705C58.8897 4.10705 58.7572 3.94205 58.6522 3.78205C58.5439 3.96038 58.3806 4.13872 58.1622 4.31705L58.0372 4.21205C58.2056 4.03038 58.3256 3.84872 58.3972 3.66705C58.4706 3.48538 58.5089 3.31372 58.5122 3.15205C58.5122 3.12038 58.5089 3.10038 58.5022 3.09205C58.4956 3.08372 58.4806 3.07955 58.4572 3.07955H58.1372V2.88455H58.5147V2.72455C58.5147 2.70622 58.5131 2.68455 58.5097 2.65955C58.5081 2.63288 58.4981 2.61455 58.4797 2.60455H58.7597C58.8247 2.60455 58.8572 2.63122 58.8572 2.68455V2.88455H59.2072ZM59.8547 2.84455C59.8547 2.81622 59.8539 2.78455 59.8522 2.74955C59.8506 2.71288 59.8414 2.68122 59.8247 2.65455H60.0897C60.1281 2.65455 60.1531 2.66122 60.1647 2.67455C60.1764 2.68622 60.1822 2.70622 60.1822 2.73455V4.97955H59.8547V2.84455ZM59.7097 4.97955H59.3797V3.57455H59.0747V3.37705H59.3797V2.84455C59.3797 2.81622 59.3789 2.78455 59.3772 2.74955C59.3756 2.71288 59.3672 2.68122 59.3522 2.65455H59.6197C59.6564 2.65455 59.6806 2.66122 59.6922 2.67455C59.7039 2.68622 59.7097 2.70622 59.7097 2.73455V4.97955ZM62.6871 4.52955V4.72705H60.4521V4.52955H61.9596C61.9996 4.52955 62.0271 4.51538 62.0421 4.48705C62.0571 4.45872 62.0646 4.42705 62.0646 4.39205V3.82955H60.7321V3.63455H62.0646V2.95955H60.7021V2.76455H62.2846C62.323 2.76455 62.353 2.77538 62.3746 2.79705C62.3963 2.81872 62.4071 2.84288 62.4071 2.86955V4.34455C62.4071 4.38288 62.4046 4.41538 62.3996 4.44205C62.3963 4.46872 62.3855 4.49788 62.3671 4.52955H62.6871Z" fill="#004994"/>
<path d="M23.0019 36.0112L23.9808 36.0112C24.138 36.0112 24.2803 36.0524 24.4057 36.131C24.5311 36.2115 24.5947 36.335 24.5947 36.5035L24.5947 38.0289C24.5947 38.1843 24.5367 38.306 24.4188 38.3921C24.3027 38.4782 24.1586 38.5212 23.9864 38.5212H23L23 36.0112H23.0019ZM24.0014 36.4661C24.0014 36.4342 23.9901 36.408 23.9639 36.3837C23.9396 36.3594 23.9078 36.3444 23.8703 36.3369C23.8666 36.335 23.8198 36.335 23.73 36.335C23.642 36.3369 23.5952 36.3369 23.5896 36.3369L23.5896 38.2068C23.5933 38.2068 23.6401 38.2068 23.7281 38.2068C23.8161 38.2068 23.861 38.2049 23.8666 38.203C23.904 38.1955 23.9359 38.1806 23.9621 38.1581C23.9883 38.1338 23.9995 38.1057 23.9995 38.0739L23.9995 36.4661H24.0014Z" fill="#004994"/>
<path d="M26.0358 38.5288H25.45L26.0227 36.0132L26.7564 36.0132L27.3291 38.5288H26.7433L26.3895 36.7563L26.0358 38.5288ZM26.1125 37.8456L26.1125 37.4993L26.7283 37.4993L26.7283 37.8456L26.1125 37.8456Z" fill="#004994"/>
<path d="M29.3319 38.525L28.6881 37.0426L28.6881 38.525H28.1958L28.1958 36.0076H28.8659L29.4461 37.5274L29.4461 36.0076H29.9365L29.9365 38.5232H29.3319V38.525Z" fill="#004994"/>
<path d="M31.838 38.5287L31.4057 37.5891L31.4057 38.5287H30.8198L30.8198 36.0112H31.4057L31.4057 36.8516L31.8624 36.0112H32.452L31.8455 37.1586L32.5212 38.5287H31.838Z" fill="#004994"/>
<path d="M33.3506 36.4866C33.3506 36.3538 33.4086 36.2415 33.5265 36.1497C33.6444 36.058 33.7923 36.0094 33.9701 36C33.9795 36 34.0094 36 34.0581 36C34.1086 36 34.1367 36 34.1423 36C34.1498 36 34.176 36 34.2247 36C34.2733 36 34.2995 36 34.307 36C34.4867 36.0075 34.6365 36.0562 34.7562 36.146C34.876 36.2377 34.9359 36.3481 34.9359 36.4829L34.9359 38.0795C34.9359 38.2217 34.8779 38.3322 34.7619 38.4089C34.6439 38.4875 34.4942 38.5287 34.307 38.5324C34.2977 38.5324 34.2696 38.5324 34.2247 38.5324C34.1779 38.5324 34.1498 38.5324 34.1404 38.5324C34.1311 38.5324 34.103 38.5324 34.0562 38.5324C34.0094 38.5324 33.9814 38.5324 33.9739 38.5324C33.7961 38.5249 33.6482 38.48 33.5284 38.3939C33.4086 38.3078 33.3506 38.2049 33.3506 38.0832L33.3506 36.4866ZM34.3594 36.4249C34.3594 36.4043 34.3538 36.3893 34.3407 36.3762C34.3276 36.3631 34.3108 36.3575 34.2883 36.3538C34.2864 36.3519 34.2621 36.35 34.2153 36.35C34.1685 36.3481 34.1423 36.3481 34.1386 36.3481C34.1348 36.3481 34.1086 36.3481 34.0618 36.3481C34.015 36.3481 33.9888 36.35 33.9851 36.3519C33.9645 36.3538 33.9495 36.3631 33.9364 36.3762C33.9252 36.3893 33.9177 36.4043 33.9177 36.423L33.9177 38.1094C33.9177 38.1244 33.9233 38.1394 33.9364 38.1525C33.9495 38.1656 33.9645 38.1749 33.9814 38.1787C33.9851 38.1806 34.0113 38.1824 34.06 38.1862C34.1068 38.188 34.133 38.1899 34.1386 38.1899C34.1423 38.1899 34.1685 38.188 34.2172 38.1862C34.264 38.1843 34.2902 38.1824 34.2921 38.1787C34.3126 38.1749 34.3276 38.1656 34.3407 38.1525C34.352 38.1394 34.3594 38.1244 34.3594 38.1094L34.3594 36.4249Z" fill="#004994"/>
<path d="M35.8149 36.4865C35.8149 36.3536 35.8748 36.2413 35.9909 36.1496C36.1088 36.0579 36.2567 36.0092 36.4345 35.9999C36.4438 35.9999 36.4738 35.9999 36.5224 35.9999C36.573 35.9999 36.6011 35.9999 36.6067 35.9999C36.6123 35.9999 36.6404 35.9999 36.689 35.9999C36.7377 35.9999 36.7639 35.9999 36.7714 35.9999C36.9511 36.0074 37.1008 36.056 37.2206 36.1459C37.3404 36.2376 37.4003 36.348 37.4003 36.4828L37.4003 38.0794C37.4003 38.2216 37.3423 38.332 37.2262 38.4088C37.1102 38.4874 36.9586 38.5286 36.7714 38.5323C36.762 38.5323 36.7339 38.5323 36.689 38.5323C36.6422 38.5323 36.6142 38.5323 36.6048 38.5323C36.5954 38.5323 36.5674 38.5323 36.5206 38.5323C36.4738 38.5323 36.4457 38.5323 36.4382 38.5323C36.2604 38.5248 36.1125 38.4799 35.9928 38.3938C35.873 38.3077 35.8149 38.2048 35.8149 38.0831L35.8149 36.4865ZM36.8257 36.4248C36.8257 36.4042 36.82 36.3892 36.8069 36.3761C36.7957 36.363 36.777 36.3574 36.7545 36.3536C36.7527 36.3518 36.7283 36.3499 36.6815 36.3499C36.6348 36.348 36.6104 36.348 36.6048 36.348C36.6011 36.348 36.5749 36.348 36.5281 36.348C36.4813 36.348 36.4551 36.3499 36.4513 36.3518C36.4307 36.3536 36.4158 36.363 36.4027 36.3761C36.3914 36.3892 36.3839 36.4042 36.3839 36.4229L36.3839 38.1093C36.3839 38.1243 36.3896 38.1393 36.4027 38.1524C36.4158 38.1655 36.4307 38.1748 36.4476 38.1786C36.4513 38.1804 36.4775 38.1823 36.5262 38.186C36.573 38.1879 36.5992 38.1898 36.6048 38.1898C36.6085 38.1898 36.6347 38.1879 36.6834 38.186C36.7321 38.1842 36.7564 38.1823 36.7583 38.1786C36.7789 38.1748 36.7938 38.1655 36.8069 38.1524C36.82 38.1393 36.8257 38.1243 36.8257 38.1093L36.8257 36.4248Z" fill="#004994"/>
<path d="M39.3029 38.5283L38.8705 37.5887L38.8705 38.5283H38.2847L38.2847 36.0109H38.8705L38.8705 36.8513L39.3272 36.0109H39.9168L39.3104 37.1582L39.986 38.5283H39.3029Z" fill="#004994"/>
<path d="M42.7541 36.0112L42.7541 38.1281C42.7541 38.1469 42.7615 38.1618 42.7746 38.1731C42.7877 38.1843 42.8065 38.1937 42.8271 38.1974C42.8308 38.1993 42.857 38.2011 42.9019 38.2011C42.9468 38.2011 42.9712 38.2011 42.973 38.2011C42.9768 38.2011 43.003 38.2011 43.0498 38.2011C43.0966 38.2011 43.1209 38.2011 43.1228 38.1974C43.1434 38.1937 43.1602 38.1843 43.1733 38.1731C43.1864 38.16 43.1939 38.145 43.1939 38.1281L43.1939 36.0112H43.7798L43.7798 38.0945C43.7798 38.2348 43.7199 38.3434 43.6019 38.422C43.4822 38.5006 43.3287 38.5418 43.1359 38.5474C43.1284 38.5474 43.1022 38.5474 43.0554 38.5474C43.0086 38.5474 42.9805 38.5474 42.973 38.5474C42.9674 38.5474 42.9431 38.5474 42.8944 38.5474C42.8476 38.5474 42.8214 38.5474 42.8158 38.5474C42.6399 38.5437 42.4883 38.5044 42.3573 38.4332C42.2281 38.3621 42.1626 38.2498 42.1626 38.0963L42.1626 36.0112H42.7541Z" fill="#004994"/>
<path d="M45.7991 38.525L45.1553 37.0426L45.1553 38.525H44.6611L44.6611 36.0076H45.3312L45.9114 37.5274L45.9114 36.0076H46.4018L46.4018 38.5232H45.7991V38.525Z" fill="#004994"/>
<path d="M47.3022 38.5249L47.3022 36.0112H47.8881L47.8881 38.5249H47.3022Z" fill="#004994"/>
<path d="M50.0611 38.5288L49.2319 38.5288L48.749 36.0132H49.3199L49.6493 37.6771L49.9731 36.0132H50.5496L50.0611 38.5288Z" fill="#004994"/>
<path d="M51.3826 38.5249L51.3826 36.0112L52.7695 36.0112V36.3313L51.9703 36.3313V37.0107H52.7171L52.7171 37.3139H51.9703V38.2049H52.777V38.5249L51.3826 38.5249Z" fill="#004994"/>
<path d="M54.647 38.5321C54.6433 38.489 54.6414 38.4422 54.6452 38.3879C54.6489 38.3337 54.6508 38.2363 54.6508 38.0941V38.0173V37.9406C54.6508 37.8526 54.6508 37.7478 54.6489 37.628C54.6489 37.5082 54.647 37.4465 54.647 37.4446C54.647 37.4109 54.6321 37.3828 54.6002 37.3585C54.5684 37.3342 54.531 37.3211 54.4879 37.3192C54.4861 37.3192 54.4411 37.3192 54.3551 37.3192C54.269 37.3192 54.2222 37.3192 54.2184 37.3192V38.5283L53.6326 38.5283L53.6326 36.0109L54.6021 36.0109C54.7668 36.0109 54.9109 36.0446 55.0345 36.1101C55.158 36.1756 55.2198 36.2841 55.2198 36.4376V36.7614C55.2198 36.8438 55.1861 36.9224 55.1168 36.9973C55.0476 37.0721 54.9615 37.1245 54.8567 37.1545C54.9615 37.1769 55.0476 37.2275 55.1187 37.3061C55.188 37.3847 55.2235 37.4727 55.2235 37.5681V38.0173C55.2235 38.1877 55.2235 38.3075 55.2198 38.3748C55.2179 38.4422 55.2235 38.4946 55.2366 38.5302L54.647 38.5302V38.5321ZM54.647 36.4657C54.647 36.432 54.6321 36.4021 54.6002 36.3758C54.5684 36.3496 54.531 36.3347 54.4879 36.3328C54.4861 36.3328 54.4411 36.3328 54.3551 36.3328C54.269 36.3328 54.2222 36.3328 54.2184 36.3328V37.016C54.2222 37.016 54.269 37.016 54.3551 37.016C54.4411 37.016 54.4861 37.016 54.4879 37.016C54.5329 37.0122 54.5703 36.9973 54.6002 36.9729C54.6321 36.9486 54.647 36.9186 54.647 36.8831L54.647 36.4657Z" fill="#004994"/>
<path d="M56.6317 37.574V38.0813C56.6317 38.1037 56.6392 38.1224 56.6523 38.1355C56.6673 38.1505 56.686 38.1599 56.7104 38.1636C56.7141 38.1655 56.7403 38.1674 56.7871 38.1692C56.8339 38.1711 56.8582 38.173 56.8638 38.173C56.8713 38.173 56.8975 38.1711 56.9443 38.1692C56.9911 38.1674 57.0154 38.1655 57.0173 38.1636C57.0417 38.1599 57.0604 38.1505 57.0716 38.1355C57.0828 38.1206 57.0903 38.1037 57.0903 38.0813V37.8885C57.0903 37.8248 57.0435 37.7575 56.9481 37.6863C56.8526 37.6171 56.7777 37.5572 56.7216 37.5085C56.4726 37.2802 56.3061 37.1211 56.2237 37.035C56.1414 36.9489 56.0983 36.859 56.0983 36.7655V36.4903C56.0983 36.3537 56.1601 36.2414 56.2817 36.1497C56.4034 36.0579 56.5569 36.0093 56.7422 36.0037C56.7478 36.0037 56.774 36.0037 56.8208 36.0037C56.8657 36.0037 56.8919 36.0037 56.8957 36.0037C56.8994 36.0037 56.9256 36.0037 56.9705 36.0037C57.0154 36.0037 57.0398 36.0037 57.0416 36.0037C57.2101 36.0055 57.3505 36.0505 57.4628 36.1347C57.5751 36.2208 57.6312 36.3237 57.6312 36.4454V36.9189L57.0922 36.9189V36.4398C57.0922 36.4211 57.0866 36.4042 57.0772 36.3855C57.0679 36.3668 57.0529 36.3574 57.036 36.3518C57.0342 36.3499 57.0098 36.3481 56.9612 36.3462C56.9125 36.3443 56.8863 36.3443 56.8826 36.3443C56.8751 36.3443 56.8489 36.3443 56.8039 36.3443C56.759 36.3443 56.7328 36.3462 56.7291 36.3481C56.7066 36.3574 56.6898 36.3686 56.6767 36.3817C56.6636 36.3949 56.6579 36.4192 56.6579 36.4547L56.6617 36.6906C56.6636 36.7561 56.6954 36.8122 56.7553 36.8628C56.8152 36.9133 56.8732 36.9639 56.9312 37.0144C57.1764 37.2334 57.3617 37.3962 57.489 37.501C57.6163 37.6059 57.6799 37.7125 57.6799 37.8248V38.0382C57.6799 38.1767 57.6181 38.2909 57.4946 38.3864C57.3711 38.4818 57.2157 38.5305 57.0267 38.5342C57.0192 38.5342 56.9949 38.5342 56.9481 38.5342C56.9031 38.5342 56.8769 38.5342 56.8732 38.5342C56.8657 38.5342 56.8395 38.5342 56.7946 38.5342C56.7497 38.5342 56.7235 38.5342 56.716 38.5342C56.5382 38.5305 56.3903 38.4856 56.2724 38.3995C56.1545 38.3134 56.0964 38.2085 56.0964 38.0813V37.5722H56.6317V37.574Z" fill="#004994"/>
<path d="M58.5754 38.5249L58.5754 36.0112H59.1613L59.1613 38.5249H58.5754Z" fill="#004994"/>
<path d="M61.0705 36.335L61.0705 38.5249L60.4847 38.5249L60.4847 36.335H60.0486V36.0112L61.5085 36.0112V36.335H61.0705Z" fill="#004994"/>
<path d="M63.7545 37.0556L63.528 37.6284L63.528 38.5287L62.9384 38.5287V37.6452C62.9365 37.6078 62.914 37.5273 62.8729 37.4057C62.8298 37.284 62.7905 37.168 62.7531 37.0594C62.7213 36.9658 62.6595 36.8179 62.5659 36.6121C62.4723 36.408 62.3937 36.2078 62.3301 36.0112H62.8897L63.2772 37.0051L63.7039 36.0112H64.2299L63.7545 37.0556Z" fill="#004994"/>
<path d="M63.5209 41.6647L50.3065 67.1721" stroke="black" stroke-width="0.8"/>
<path d="M46.5974 24.0319L61.1166 32.2155" stroke="#0045E6" stroke-width="0.8" stroke-linejoin="bevel"/>
<path d="M17.5591 7.66455L32.0782 15.8482" stroke="#FFB300" stroke-width="0.8" stroke-linejoin="bevel"/>
<path d="M32.0781 15.8481L46.5973 24.0318" stroke="#FF0000" stroke-width="0.8" stroke-linejoin="bevel"/>
<rect x="36.5591" y="9" width="12" height="13" rx="1" fill="#FFDC83"/>
<path d="M42.2292 54.3921L44.4216 54.7212C44.5201 54.736 44.6015 54.8059 44.6316 54.9009L44.9197 55.8081C44.9501 55.9046 44.8773 56.0034 44.7761 56.0034C44.6704 56.0037 44.5881 56.0956 44.6003 56.2007L44.9734 59.395C44.981 59.4601 44.9641 59.5256 44.9255 59.5786L41.1863 64.7222C41.1437 64.7808 41.1242 64.8533 41.1326 64.9253L41.4578 67.7075C41.4814 67.9063 41.7462 67.9587 41.8435 67.7837C41.9453 67.6002 42.2256 67.7113 42.1736 67.9146L41.9548 68.7681C41.9411 68.8218 41.9432 68.8785 41.9607 68.9312L42.4998 70.5522C42.5266 70.633 42.5123 70.7221 42.4617 70.7905L42.2224 71.1138C42.1731 71.1803 42.0952 71.2192 42.0125 71.2192H39.4226C39.35 71.2192 39.2806 71.1894 39.2312 71.1362L38.3503 70.1831C38.3163 70.1463 38.2936 70.1007 38.2849 70.0513L37.0955 63.2661C37.0846 63.2038 37.0967 63.1395 37.1296 63.0854L41.2859 56.2769C41.3952 56.0978 41.2423 55.8737 41.0359 55.9106C40.851 55.944 40.7145 55.7412 40.8152 55.5825L41.3044 54.8101C41.3317 54.7671 41.3714 54.7334 41.4177 54.7124L42.0828 54.4126C42.1285 54.392 42.1796 54.3846 42.2292 54.3921Z" fill="#004994" stroke="#004994" stroke-width="0.0275"/>
<path d="M41.9441 69.168L41.5554 68.1182L42.5261 66.543L41.9441 69.168Z" fill="#004994" stroke="#004994" stroke-width="0.0275"/>
<path d="M44.1755 58.9534L43.1638 60.7766L42.3689 60.9563L43.3777 59.3206L43.366 59.3127H43.365L43.3494 59.303L43.3738 59.3098L41.5427 58.76L41.5476 58.7444L41.5349 58.7629L40.3269 60.5764V59.3196L41.3386 58.0413L44.1755 58.9534Z" fill="white" stroke="#004994" stroke-width="0.01375"/>
<path d="M39.9006 68.1223L39.8879 68.1301H41.5305L41.7268 68.8362H39.3147L38.9211 66.3577L39.9006 68.1223Z" fill="white" stroke="white" stroke-width="0.0275"/>
<path d="M32.6191 54.9167L29.9868 56.3051C29.9006 56.3505 29.7969 56.347 29.714 56.2958L26.1527 54.098C26.0569 54.0388 25.9347 54.0441 25.8443 54.1113L20.5081 58.0771C20.3686 58.1808 20.3591 58.3864 20.4885 58.5025L23.4018 61.117C23.5281 61.2304 23.5227 61.4299 23.3904 61.5361L22.1262 62.5513C22.0092 62.6453 21.9891 62.8158 22.0812 62.9344L22.6017 63.605C22.6803 63.7061 22.6786 63.8481 22.5977 63.9474L19.1634 68.1607C19.0716 68.2733 19.0833 68.4379 19.1901 68.5365L33.0831 81.3569C33.1745 81.4413 33.3113 81.4538 33.4165 81.3873L40.8015 76.7215C40.905 76.6561 40.9528 76.5302 40.9188 76.4126L39.1191 70.1944" stroke="#004994" stroke-width="1.1" stroke-linecap="round"/>
<path d="M29.0978 57.6061C29.1599 57.6454 29.1818 57.7291 29.1474 57.7955L28.543 58.9646C28.5004 59.0469 28.3935 59.062 28.3302 58.9949L26.2809 56.8213C26.1376 56.6695 25.9111 56.6522 25.7518 56.7811L24.0155 58.1859C23.8017 58.3588 23.8107 58.7027 24.0335 58.868L27.4234 61.3839C27.4819 61.4277 27.4983 61.5121 27.4604 61.5754L26.8619 62.5692C26.8167 62.6442 26.717 62.6564 26.6559 62.5937L22.6974 58.5231C22.6385 58.4624 22.6438 58.3617 22.7087 58.31L25.9586 55.7321C26.0017 55.6979 26.0602 55.6945 26.107 55.7238L29.0978 57.6061Z" fill="#004994" stroke="#004994" stroke-width="0.275"/>
<path d="M36.56 64.849C36.6067 65.0368 36.4403 65.2079 36.2512 65.1659L34.4426 64.763C34.3169 64.735 34.2291 64.6195 34.2361 64.4913L34.3855 61.7516C34.3943 61.5857 34.2618 61.4457 34.0956 61.4455L31.0453 61.4458C30.8445 61.4456 30.7175 61.2277 30.8165 61.0537L31.5328 59.7933C31.5839 59.7033 31.6842 59.6523 31.7875 59.6638L35.1863 60.0419C35.2957 60.0541 35.3867 60.1337 35.4132 60.2406L36.56 64.849Z" fill="#004994" stroke="#004994" stroke-width="0.0275"/>
<path d="M24.8171 62.7681C24.9061 62.6444 25.0817 62.6228 25.198 62.7212L26.0886 63.4741C26.188 63.5582 26.2107 63.7028 26.1414 63.813L23.3767 68.1978C23.3143 68.2967 23.3178 68.4237 23.3855 68.519L25.073 70.8843C25.0907 70.9092 25.1128 70.9316 25.1375 70.9497L35.0642 78.2524C35.2079 78.3582 35.2061 78.5744 35.0603 78.6772L33.6033 79.7046C33.5029 79.7753 33.3667 79.766 33.2761 79.6831L21.0095 68.4546C20.9121 68.3651 20.8971 68.2173 20.9744 68.1099L24.8171 62.7681ZM27.1287 64.3823L36.2351 65.938C36.34 65.956 36.4234 66.0362 36.446 66.1401L36.7 67.3042C36.7414 67.4955 36.5657 67.6629 36.3767 67.6118L32.4402 66.5474C32.3277 66.5171 32.2077 66.5568 32.1365 66.6489L31.1619 67.9097C31.0154 68.0994 31.1507 68.3744 31.3904 68.3745H36.7234C36.8439 68.3745 36.9489 68.4575 36.9773 68.5747L38.8279 76.2085C38.8552 76.3212 38.8053 76.4386 38.7048 76.4966L36.4353 77.8062C36.2612 77.9062 36.0438 77.7804 36.0437 77.5796V69.5747C36.0437 69.4009 35.891 69.2658 35.7185 69.2876L26.447 70.4585C26.349 70.4709 26.2521 70.4263 26.197 70.3442L25.1492 68.7817C25.0327 68.6082 25.157 68.3745 25.366 68.3745H29.4099L29.4128 68.3657L29.9343 66.8833C30.0003 66.6955 29.8609 66.4986 29.6619 66.4985H27.1326C26.9914 66.4985 26.8752 66.3867 26.8708 66.2456L26.824 64.6479C26.8191 64.4831 26.9661 64.3547 27.1287 64.3823Z" fill="#004994" stroke="#004994" stroke-width="0.0275"/>
<path d="M32.6689 54.3231L40.1426 54.8671C40.2695 54.8763 40.3016 55.0481 40.1865 55.1024L38.7959 55.7567C38.7762 55.766 38.7582 55.7801 38.7441 55.7968L36.7998 58.1053C36.7417 58.1742 36.6312 58.1595 36.5928 58.078L36.292 57.4393C36.2728 57.3986 36.236 57.3685 36.1924 57.3573L34.6309 56.9598C34.5098 56.9287 34.5061 56.7578 34.626 56.7216L37.0771 55.9794C37.0887 55.9759 37.1012 55.9745 37.1133 55.9745H37.4189C37.4811 55.9745 37.5378 55.9366 37.5605 55.8788L37.6719 55.5946C37.7078 55.5032 37.6481 55.4016 37.5508 55.3885L33.7754 54.8837C33.7436 54.8794 33.7108 54.885 33.6826 54.9003L32.083 55.7723C32.0351 55.7985 31.9754 55.7902 31.9365 55.7518L31.5049 55.3251C31.4509 55.2717 31.4575 55.1828 31.5186 55.1376L32.5859 54.3466C32.6097 54.329 32.6394 54.321 32.6689 54.3231Z" fill="#004994" stroke="#004994" stroke-width="0.0275"/>
<path d="M31.4354 57.2489C31.5529 57.1908 31.6718 57.3256 31.6086 57.4452L29.2465 61.8983C29.0967 62.1808 29.2892 62.5289 29.5951 62.5289L32.7732 62.5284C32.8468 62.5284 32.9063 62.5919 32.9063 62.6697L32.9064 63.9694C32.9064 64.0572 32.8312 64.1247 32.7495 64.11L28.0762 63.2661C27.9897 63.2504 27.9413 63.1519 27.9783 63.0675L30.2601 57.8656C30.2734 57.8352 30.2964 57.8105 30.325 57.7964L31.4354 57.2489Z" fill="#004994" stroke="#004994" stroke-width="0.275"/>
</svg>
