<svg width="707" height="202" viewBox="0 0 707 202" fill="none" xmlns="http://www.w3.org/2000/svg">
<path d="M31.9206 2.80077H73.6406L105.561 198.801H74.7606L69.1606 159.881V160.441H34.1606L28.5606 198.801H0.000625029L31.9206 2.80077ZM65.5206 133.841L51.8006 36.9608H51.2406L37.8006 133.841H65.5206ZM103.703 2.80077H134.503V170.801H185.183V198.801H103.703V2.80077ZM183.153 2.80077H213.953V170.801H264.633V198.801H183.153V2.80077ZM290.647 2.80077H372.127V30.8008H321.447V85.4008H361.207V113.401H321.447V198.801H290.647V2.80077ZM370.097 2.80077H400.897V198.801H370.097V2.80077ZM407.164 2.80077H437.964V170.801H488.644V198.801H407.164V2.80077ZM486.614 2.80077H530.574L550.174 143.081H550.734L570.334 2.80077H614.294V198.801H585.174V50.4008H584.614L562.214 198.801H536.454L514.054 50.4008H513.494V198.801H486.614V2.80077ZM660.518 201.601C645.585 201.601 634.292 197.401 626.638 189.001C618.985 180.414 615.158 168.187 615.158 152.321V141.121H644.278V154.561C644.278 167.254 649.598 173.601 660.238 173.601C665.465 173.601 669.385 172.107 671.998 169.121C674.798 165.947 676.198 160.907 676.198 154.001C676.198 145.787 674.332 138.601 670.598 132.441C666.865 126.094 659.958 118.534 649.878 109.761C637.185 98.5608 628.318 88.4808 623.278 79.5208C618.238 70.3741 615.718 60.1074 615.718 48.7208C615.718 33.2274 619.638 21.2808 627.478 12.8808C635.318 4.2941 646.705 0.000770569 661.638 0.000770569C676.385 0.000770569 687.492 4.2941 694.958 12.8808C702.612 21.2808 706.438 33.4141 706.438 49.2808V57.4008H677.318V47.3208C677.318 40.6008 676.012 35.7474 673.398 32.7608C670.785 29.5874 666.958 28.0008 661.918 28.0008C651.652 28.0008 646.518 34.2541 646.518 46.7608C646.518 53.8541 648.385 60.4808 652.118 66.6408C656.038 72.8008 663.038 80.2674 673.118 89.0408C685.998 100.241 694.865 110.414 699.718 119.561C704.572 128.707 706.998 139.441 706.998 151.761C706.998 167.814 702.985 180.134 694.958 188.721C687.118 197.307 675.638 201.601 660.518 201.601Z" fill="#2B2929"/>
</svg>
